0
SECTION
2
HEADER
9
$INSUNITS
70
1
9
$ACADVER
1
AC1014
9
$HANDSEED
5
FFFF
0
ENDSEC
0
SECTION
2
TABLES
0
TABLE
2
VPORT
5
8
100
AcDbSymbolTable
0
ENDTAB
0
TABLE
2
LTYPE
5
5
100
AcDbSymbolTable
70
2
0
LTYPE
5
14
100
AcDbSymbolTableRecord
100
AcDbLinetypeTableRecord
2
BYBLOCK
70
0
0
LTYPE
5
15
100
AcDbSymbolTableRecord
100
AcDbLinetypeTableRecord
2
BYLAYER
70
0
0
ENDTAB
0
TABLE
2
LAYER
5
2
100
AcDbSymbolTable
70
3
0
LAYER
5
50
100
AcDbSymbolTableRecord
100
AcDbLayerTableRecord
2
0
70
0
6
CONTINUOUS
0
LAYER
5
51
100
AcDbSymbolTableRecord
100
AcDbLayerTableRecord
2
CUTOUTS
70
0
62
1
6
CONTINUOUS
0
LAYER
5
52
100
AcDbSymbolTableRecord
100
AcDbLayerTableRecord
2
PERIMETER
70
0
62
5
6
CONTINUOUS
0
ENDTAB
0
TABLE
2
STYLE
5
3
100
AcDbSymbolTable
70
1
0
STYLE
5
11
100
AcDbSymbolTableRecord
100
AcDbTextStyleTableRecord
2
STANDARD
70
0
0
ENDTAB
0
TABLE
2
VIEW
5
6
100
AcDbSymbolTable
0
ENDTAB
0
TABLE
2
UCS
5
7
100
AcDbSymbolTable
0
ENDTAB
0
TABLE
2
APPID
5
9
100
AcDbSymbolTable
70
1
0
APPID
5
12
100
AcDbSymbolTableRecord
100
AcDbRegAppTableRecord
2
ACAD
70
0
0
ENDTAB
0
TABLE
2
DIMSTYLE
5
A
100
AcDbSymbolTable
0
ENDTAB
0
TABLE
2
BLOCK_RECORD
5
1
100
AcDbSymbolTable
70
2
0
BLOCK_RECORD
5
1F
100
AcDbSymbolTableRecord
100
AcDbBlockTableRecord
2
*MODEL_SPACE
0
BLOCK_RECORD
5
1B
100
AcDbSymbolTableRecord
100
AcDbBlockTableRecord
2
*PAPER_SPACE
0
ENDTAB
0
ENDSEC
0
SECTION
2
BLOCKS
0
BLOCK
5
20
100
AcDbEntity
100
AcDbBlockBegin
2
*MODEL_SPACE
0
ENDBLK
5
21
100
AcDbEntity
100
AcDbBlockEnd
0
BLOCK
5
1C
100
AcDbEntity
100
AcDbBlockBegin
2
*PAPER_SPACE
0
ENDBLK
5
1D
100
AcDbEntity
100
AcDbBlockEnd
0
ENDSEC
0
SECTION
2
ENTITIES
0
CIRCLE
5
100
100
AcDbEntity
8
CUTOUTS
100
AcDbCircle
10
8.7419135797256413e-17
20
4.3523175810642174e-18
30
2.1854783949314103e-17
40
0.036417322834645667
210
0
220
0
230
1
0
ARC
5
101
100
AcDbEntity
8
PERIMETER
100
AcDbCircle
10
1.7483827159451283e-16
20
-1.3956152066188716e-17
30
0
40
0.40893700787401555
210
-0
220
0
230
1
100
AcDbArc
50
320.13129480371447
51
324.86870519628474
0
ARC
5
102
100
AcDbEntity
8
PERIMETER
100
AcDbCircle
10
0.0093844017893059267
20
-0.4300799549998976
30
0
40
0.37893700787401824
210
0
220
-0
230
1
100
AcDbArc
50
30.927587346763524
51
42.890426805880978
0
ARC
5
103
100
AcDbEntity
8
PERIMETER
100
AcDbCircle
10
0.29099979254612296
20
-0.16847445600122216
30
0
40
0.0054386747822342671
210
0
220
0
230
1
100
AcDbArc
50
149.93128565458039
51
222.89042680588523
0
ARC
5
104
100
AcDbEntity
8
PERIMETER
100
AcDbCircle
10
1.7483827159451283e-16
20
-1.3956152066188716e-17
30
0
40
0.33081200787401588
210
-0
220
0
230
1
100
AcDbArc
50
329.93128565458005
51
330.0687143454204
0
ARC
5
105
100
AcDbEntity
8
PERIMETER
100
AcDbCircle
10
0.29140305505888209
20
-0.16777598484033557
30
0
40
0.0054386747822341812
210
0
220
-0
230
1
100
AcDbArc
50
77.109573194116919
51
150.0687143454233
0
ARC
5
106
100
AcDbEntity
8
PERIMETER
100
AcDbCircle
10
0.37715236758303344
20
0.20691284715107827
30
0
40
0.37893700787401113
210
0
220
0
230
1
100
AcDbArc
50
257.10957319411835
51
269.07241265323609
0
ARC
5
107
100
AcDbEntity
8
PERIMETER
100
AcDbCircle
10
1.7483827159451283e-16
20
-1.3956152066188716e-17
30
0
40
0.40893700787401593
210
-0
220
0
230
1
100
AcDbArc
50
335.13129480371452
51
339.86870519628491
0
ARC
5
108
100
AcDbEntity
8
PERIMETER
100
AcDbCircle
10
0.12037751932336881
20
-0.4129964739936805
30
0
40
0.37893700787402518
210
0
220
-0
230
1
100
AcDbArc
50
45.927587346763652
51
57.890426805880956
0
ARC
5
109
100
AcDbEntity
8
PERIMETER
100
AcDbCircle
10
0.32468861289146439
20
-0.087417539689762486
30
0
40
0.0054386747822342723
210
0
220
0
230
1
100
AcDbArc
50
164.93128565458036
51
237.89042680588082
0
ARC
5
10A
100
AcDbEntity
8
PERIMETER
100
AcDbCircle
10
1.7483827159451283e-16
20
-1.3956152066188716e-17
30
0
40
0.33081200787401599
210
-0
220
0
230
1
100
AcDbArc
50
344.93128565458011
51
345.06871434541779
0
ARC
5
10B
100
AcDbEntity
8
PERIMETER
100
AcDbCircle
10
0.32489735692842026
20
-0.086638496338066057
30
0
40
0.0054386747822341274
210
0
220
0
230
1
100
AcDbArc
50
92.109573194117942
51
165.06871434552241
0
ARC
5
10C
100
AcDbEntity
8
PERIMETER
100
AcDbCircle
10
0.31074822677543484
20
0.29747667849021947
30
0
40
0.37893700787400592
210
-0
220
0
230
1
100
AcDbArc
50
272.10957319411818
51
284.07241265323626
0
ARC
5
10D
100
AcDbEntity
8
PERIMETER
100
AcDbCircle
10
1.7483827159451283e-16
20
-1.3956152066188716e-17
30
0
40
0.40893700787401621
210
-0
220
0
230
1
100
AcDbArc
50
350.13129480371458
51
354.86870519628519
0
ARC
5
10E
100
AcDbEntity
8
PERIMETER
100
AcDbCircle
10
0.22316710784881155
20
-0.36776796579371873
30
0
40
0.37893700787401052
210
0
220
-0
230
1
100
AcDbArc
50
60.927587346763424
51
72.890426805881191
0
ARC
5
10F
100
AcDbEntity
8
PERIMETER
100
AcDbCircle
10
0.33625044084155509
20
-0.00040326251276028707
30
0
40
0.0054386747822343
210
0
220
0
230
1
100
AcDbArc
50
179.93128565458068
51
252.8904268058817
0
ARC
5
110
100
AcDbEntity
8
PERIMETER
100
AcDbCircle
10
1.7483827159451283e-16
20
-1.3956152066188716e-17
30
0
40
0.33081200787401577
210
-0
220
0
230
1
100
AcDbArc
50
-0.068714345419331871
51
0.068714345414029543
0
ARC
5
111
100
AcDbEntity
8
PERIMETER
100
AcDbCircle
10
0.33625044084155509
20
0.00040326251275786589
30
0
40
0.0054386747822343078
210
0
220
0
230
1
100
AcDbArc
50
107.10957319411823
51
180.06871434547767
0
ARC
5
112
100
AcDbEntity
8
PERIMETER
100
AcDbCircle
10
0.223167107848809
20
0.36776796579372861
30
0
40
0.37893700787402324
210
-0
220
0
230
1
100
AcDbArc
50
287.10957319411858
51
299.07241265323603
0
ARC
5
113
100
AcDbEntity
8
PERIMETER
100
AcDbCircle
10
1.7483827159451283e-16
20
-1.3956152066188716e-17
30
0
40
0.40893700787401588
210
0
220
-0
230
1
100
AcDbArc
50
5.1312948037145327
51
9.8687051962850099
0
ARC
5
114
100
AcDbEntity
8
PERIMETER
100
AcDbCircle
10
0.31074822677542979
20
-0.29747667849024195
30
0
40
0.37893700787402607
210
0
220
-0
230
1
100
AcDbArc
50
75.92758734676373
51
87.890426805881049
0
ARC
5
115
100
AcDbEntity
8
PERIMETER
100
AcDbCircle
10
0.32489735692842081
20
0.086638496338063711
30
0
40
0.005438674782234261
210
0
220
0
230
1
100
AcDbArc
50
194.93128565458031
51
267.89042680588034
0
ARC
5
116
100
AcDbEntity
8
PERIMETER
100
AcDbCircle
10
1.7483827159451283e-16
20
-1.3956152066188716e-17
30
0
40
0.33081200787401593
210
0
220
-0
230
1
100
AcDbArc
50
14.931285654580105
51
15.068714345420453
0
ARC
5
117
100
AcDbEntity
8
PERIMETER
100
AcDbCircle
10
0.32468861289146494
20
0.08741753968976014
30
0
40
0.0054386747822342289
210
0
220
0
230
1
100
AcDbArc
50
122.10957319411933
51
195.06871434534628
0
ARC
5
118
100
AcDbEntity
8
PERIMETER
100
AcDbCircle
10
0.12037751932338148
20
0.41299647399366662
30
0
40
0.37893700787400975
210
-0
220
0
230
1
100
AcDbArc
50
302.10957319411835
51
314.07241265323614
0
ARC
5
119
100
AcDbEntity
8
PERIMETER
100
AcDbCircle
10
1.7483827159451283e-16
20
-1.3956152066188716e-17
30
0
40
0.40893700787401616
210
0
220
-0
230
1
100
AcDbArc
50
20.131294803714617
51
24.868705196284882
0
ARC
5
11A
100
AcDbEntity
8
PERIMETER
100
AcDbCircle
10
0.37715236758303355
20
-0.20691284715109318
30
0
40
0.37893700787402229
210
0
220
0
230
1
100
AcDbArc
50
90.927587346763659
51
102.89042680588118
0
ARC
5
11B
100
AcDbEntity
8
PERIMETER
100
AcDbCircle
10
0.2914030550588832
20
0.16777598484033346
30
0
40
0.0054386747822342948
210
0
220
0
230
1
100
AcDbArc
50
209.93128565458079
51
282.89042680587914
0
ARC
5
11C
100
AcDbEntity
8
PERIMETER
100
AcDbCircle
10
1.7483827159451283e-16
20
-1.3956152066188716e-17
30
0
40
0.33081200787401588
210
0
220
-0
230
1
100
AcDbArc
50
29.931285654580165
51
30.068714345420503
0
ARC
5
11D
100
AcDbEntity
8
PERIMETER
100
AcDbCircle
10
0.29099979254612413
20
0.16847445600122005
30
0
40
0.0054386747822342913
210
0
220
0
230
1
100
AcDbArc
50
137.109573194116
51
210.06871434546937
0
ARC
5
11E
100
AcDbEntity
8
PERIMETER
100
AcDbCircle
10
0.0093844017893053144
20
0.43007995499989987
30
0
40
0.37893700787402329
210
-0
220
0
230
1
100
AcDbArc
50
317.1095731941187
51
329.07241265323603
0
ARC
5
11F
100
AcDbEntity
8
PERIMETER
100
AcDbCircle
10
1.7483827159451283e-16
20
-1.3956152066188716e-17
30
0
40
0.40893700787401555
210
0
220
-0
230
1
100
AcDbArc
50
35.131294803714646
51
39.868705196285056
0
ARC
5
120
100
AcDbEntity
8
PERIMETER
100
AcDbCircle
10
0.41785419781361044
20
-0.10224824721824967
30
0
40
0.37893700787402573
210
0
220
0
230
1
100
AcDbArc
50
105.9275873467638
51
117.89042680588111
0
ARC
5
121
100
AcDbEntity
8
PERIMETER
100
AcDbCircle
10
0.23805011655340039
20
0.23747981723865885
30
0
40
0.00543867478223432
210
0
220
0
230
1
100
AcDbArc
50
224.93128565457934
51
297.89042680587949
0
ARC
5
122
100
AcDbEntity
8
PERIMETER
100
AcDbCircle
10
1.7483827159451283e-16
20
-1.3956152066188716e-17
30
0
40
0.33081200787401582
210
0
220
-0
230
1
100
AcDbArc
50
44.931285654580208
51
45.068714345420567
0
ARC
5
123
100
AcDbEntity
8
PERIMETER
100
AcDbCircle
10
0.23747981723865985
20
0.23805011655339939
30
0
40
0.0054386747822341855
210
0
220
0
230
1
100
AcDbArc
50
152.10957319411864
51
225.0687143454318
0
ARC
5
124
100
AcDbEntity
8
PERIMETER
100
AcDbCircle
10
-0.10224824721823622
20
0.4178541978136065
30
0
40
0.37893700787401302
210
-0
220
0
230
1
100
AcDbArc
50
332.10957319411841
51
344.07241265323609
0
ARC
5
125
100
AcDbEntity
8
PERIMETER
100
AcDbCircle
10
1.7483827159451283e-16
20
-1.3956152066188716e-17
30
0
40
0.40893700787401571
210
0
220
-0
230
1
100
AcDbArc
50
50.131294803714681
51
54.868705196285099
0
ARC
5
126
100
AcDbEntity
8
PERIMETER
100
AcDbCircle
10
0.43007995499989216
20
0.0093844017893140817
30
0
40
0.37893700787400991
210
0
220
0
230
1
100
AcDbArc
50
120.92758734676353
51
132.89042680588133
0
ARC
5
127
100
AcDbEntity
8
PERIMETER
100
AcDbCircle
10
0.16847445600122127
20
0.2909997925461234
30
0
40
0.0054386747822343139
210
0
220
0
230
1
100
AcDbArc
50
239.93128565457414
51
312.89042680588176
0
ARC
5
128
100
AcDbEntity
8
PERIMETER
100
AcDbCircle
10
-2.3972053563539703e-11
20
-4.1501815932538142e-11
30
0
40
0.33081200792194349
210
0
220
-0
230
1
100
AcDbArc
50
59.931285654588613
51
60.068714345410378
0
ARC
5
129
100
AcDbEntity
8
PERIMETER
100
AcDbCircle
10
0.16777598484033468
20
0.29140305505888248
30
0
40
0.0054386747822342263
210
0
220
0
230
1
100
AcDbArc
50
167.10957319411889
51
240.06871434542302
0
ARC
5
12A
100
AcDbEntity
8
PERIMETER
100
AcDbCircle
10
-0.2069128471510899
20
0.37715236758303383
30
0
40
0.37893700787402151
210
-0
220
0
230
1
100
AcDbArc
50
347.10957319411864
51
359.07241265323654
0
ARC
5
12B
100
AcDbEntity
8
PERIMETER
100
AcDbCircle
10
1.7483827159451283e-16
20
-1.3956152066188716e-17
30
0
40
0.4089370078740156
210
0
220
-0
230
1
100
AcDbArc
50
65.131294803714724
51
69.868705196285134
0
ARC
5
12C
100
AcDbEntity
8
PERIMETER
100
AcDbCircle
10
0.4129964739936729
20
0.12037751932337543
30
0
40
0.37893700787401713
210
0
220
0
230
1
100
AcDbArc
50
135.92758734676383
51
147.89042680588139
0
ARC
5
12D
100
AcDbEntity
8
PERIMETER
100
AcDbCircle
10
0.087417539689761473
20
0.32468861289146445
30
0
40
0.0054386747822343009
210
0
220
0
230
1
100
AcDbArc
50
254.93128565456703
51
327.89042680587983
0
ARC
5
12E
100
AcDbEntity
8
PERIMETER
100
AcDbCircle
10
-2.550702431421978e-11
20
-9.5164096151251885e-11
30
0
40
0.33081200797253896
210
0
220
-0
230
1
100
AcDbArc
50
74.931285654599606
51
75.068714345394852
0
ARC
5
12F
100
AcDbEntity
8
PERIMETER
100
AcDbCircle
10
0.086638496338065044
20
0.32489735692842026
30
0
40
0.0054386747822342384
210
0
220
0
230
1
100
AcDbArc
50
182.10957319411779
51
255.06871434551388
0
ARC
5
130
100
AcDbEntity
8
PERIMETER
100
AcDbCircle
10
-0.29747667849023696
20
0.31074822677543146
30
0
40
0.37893700787402229
210
0
220
-0
230
1
100
AcDbArc
50
2.1095731941184952
51
14.072412653236045
0
ARC
5
131
100
AcDbEntity
8
PERIMETER
100
AcDbCircle
10
1.7483827159451283e-16
20
-1.3956152066188716e-17
30
0
40
0.40893700787401605
210
0
220
-0
230
1
100
AcDbArc
50
80.131294803714752
51
84.868705196285319
0
ARC
5
132
100
AcDbEntity
8
PERIMETER
100
AcDbCircle
10
0.36776796579372356
20
0.22316710784881066
30
0
40
0.37893700787401635
210
0
220
0
230
1
100
AcDbArc
50
150.92758734676377
51
162.89042680588142
0
ARC
5
133
100
AcDbEntity
8
PERIMETER
100
AcDbCircle
10
0.00040326251275925128
20
0.33625044084155487
30
0
40
0.0054386747822343
210
0
220
0
230
1
100
AcDbArc
50
269.93128565458039
51
342.89042680588102
0
ARC
5
134
100
AcDbEntity
8
PERIMETER
100
AcDbCircle
10
1.7483827159451283e-16
20
-1.3956152066188716e-17
30
0
40
0.33081200787401577
210
0
220
-0
230
1
100
AcDbArc
50
89.931285654580293
51
90.068714345418002
0
ARC
5
135
100
AcDbEntity
8
PERIMETER
100
AcDbCircle
10
-0.00040326251275890163
20
0.33625044084155487
30
0
40
0.0054386747822342419
210
0
220
0
230
1
100
AcDbArc
50
197.1095731941173
51
270.06871434547935
0
ARC
5
136
100
AcDbEntity
8
PERIMETER
100
AcDbCircle
10
-0.36776796579371829
20
0.22316710784881247
30
0
40
0.37893700787401124
210
0
220
-0
230
1
100
AcDbArc
50
17.109573194118539
51
29.072412653236313
0
ARC
5
137
100
AcDbEntity
8
PERIMETER
100
AcDbCircle
10
1.7483827159451283e-16
20
-1.3956152066188716e-17
30
0
40
0.40893700787401605
210
0
220
0
230
1
100
AcDbArc
50
95.131294803714809
51
99.868705196284409
0
ARC
5
138
100
AcDbEntity
8
PERIMETER
100
AcDbCircle
10
0.29747667849023518
20
0.3107482267754279
30
0
40
0.37893700787401419
210
0
220
0
230
1
100
AcDbArc
50
165.92758734676286
51
177.89042680588068
0
ARC
5
139
100
AcDbEntity
8
PERIMETER
100
AcDbCircle
10
-0.086638496338060172
20
0.32489735692842148
30
0
40
0.0054386747822342913
210
-0
220
0
230
1
100
AcDbArc
50
284.93128565457977
51
357.8904268058817
0
ARC
5
13A
100
AcDbEntity
8
PERIMETER
100
AcDbCircle
10
1.7483827159451283e-16
20
-1.3956152066188716e-17
30
0
40
0.33081200787401577
210
0
220
0
230
1
100
AcDbArc
50
104.93128565457953
51
105.06871434541725
0
ARC
5
13B
100
AcDbEntity
8
PERIMETER
100
AcDbCircle
10
-0.087417539689756601
20
0.32468861289146567
30
0
40
0.0054386747822341907
210
0
220
0
230
1
100
AcDbArc
50
212.1095731941175
51
285.06871434548549
0
ARC
5
13C
100
AcDbEntity
8
PERIMETER
100
AcDbCircle
10
-0.41299647399366646
20
0.12037751932338452
30
0
40
0.37893700787401147
210
0
220
-0
230
1
100
AcDbArc
50
32.1095731941178
51
44.07241265323561
0
ARC
5
13D
100
AcDbEntity
8
PERIMETER
100
AcDbCircle
10
1.7483827159451283e-16
20
-1.3956152066188716e-17
30
0
40
0.40893700787401616
210
0
220
0
230
1
100
AcDbArc
50
110.13129480371406
51
114.8687051962843
0
ARC
5
13E
100
AcDbEntity
8
PERIMETER
100
AcDbCircle
10
0.20691284715109715
20
0.377152367583031
30
0
40
0.37893700787402163
210
0
220
0
230
1
100
AcDbArc
50
180.92758734676266
51
192.89042680588051
0
ARC
5
13F
100
AcDbEntity
8
PERIMETER
100
AcDbCircle
10
-0.16777598484033027
20
0.29140305505888475
30
0
40
0.0054386747822342081
210
-0
220
0
230
1
100
AcDbArc
50
-60.068714345434536
51
12.890426805879965
0
ARC
5
140
100
AcDbEntity
8
PERIMETER
100
AcDbCircle
10
4.9776215520334359e-11
20
-8.6218058889439645e-11
30
0
40
0.33081200797357085
210
0
220
0
230
1
100
AcDbArc
50
119.9312856546002
51
120.06871434539543
0
ARC
5
141
100
AcDbEntity
8
PERIMETER
100
AcDbCircle
10
-0.16847445600121685
20
0.29099979254612568
30
0
40
0.0054386747822342619
210
0
220
0
230
1
100
AcDbArc
50
227.1095731941158
51
300.06871434549743
0
ARC
5
142
100
AcDbEntity
8
PERIMETER
100
AcDbCircle
10
-0.43007995499988833
20
0.0093844017893250972
30
0
40
0.37893700787400425
210
0
220
-0
230
1
100
AcDbArc
50
47.109573194117708
51
59.072412653235652
0
ARC
5
143
100
AcDbEntity
8
PERIMETER
100
AcDbCircle
10
1.7483827159451283e-16
20
-1.3956152066188716e-17
30
0
40
0.40893700787401577
210
0
220
0
230
1
100
AcDbArc
50
125.13129480371407
51
129.86870519628431
0
ARC
5
144
100
AcDbEntity
8
PERIMETER
100
AcDbCircle
10
0.10224824721825763
20
0.41785419781361105
30
0
40
0.37893700787402879
210
0
220
0
230
1
100
AcDbArc
50
195.9275873467632
51
207.89042680588045
0
ARC
5
145
100
AcDbEntity
8
PERIMETER
100
AcDbCircle
10
-0.23747981723865613
20
0.23805011655340272
30
0
40
0.00543867478223432
210
-0
220
0
230
1
100
AcDbArc
50
-45.068714345427267
51
27.890426805878981
0
ARC
5
146
100
AcDbEntity
8
PERIMETER
100
AcDbCircle
10
3.528638448801936e-11
20
-3.5298947442475915e-11
30
0
40
0.33081200792392701
210
0
220
0
230
1
100
AcDbArc
50
134.93128565458849
51
135.068714345405
0
ARC
5
147
100
AcDbEntity
8
PERIMETER
100
AcDbCircle
10
-0.23805011655339667
20
0.23747981723866213
30
0
40
0.0054386747822342081
210
0
220
0
230
1
100
AcDbArc
50
242.10957319411722
51
315.068714345486
0
ARC
5
148
100
AcDbEntity
8
PERIMETER
100
AcDbCircle
10
-0.41785419781361194
20
-0.1022482472182438
30
0
40
0.37893700787402562
210
0
220
-0
230
1
100
AcDbArc
50
62.109573194118049
51
74.072412653235375
0
ARC
5
149
100
AcDbEntity
8
PERIMETER
100
AcDbCircle
10
1.7483827159451283e-16
20
-1.3956152066188716e-17
30
0
40
0.40893700787401571
210
0
220
0
230
1
100
AcDbArc
50
140.1312948037141
51
144.86870519628437
0
ARC
5
14A
100
AcDbEntity
8
PERIMETER
100
AcDbCircle
10
-0.0093844017893030419
20
0.43007995499989715
30
0
40
0.37893700787401846
210
0
220
0
230
1
100
AcDbArc
50
210.92758734676312
51
222.89042680588065
0
ARC
5
14B
100
AcDbEntity
8
PERIMETER
100
AcDbCircle
10
-0.29099979254612141
20
0.16847445600122413
30
0
40
0.005438674782234235
210
-0
220
0
230
1
100
AcDbArc
50
-30.068714345420673
51
42.890426805880253
0
ARC
5
14C
100
AcDbEntity
8
PERIMETER
100
AcDbCircle
10
1.7483827159451283e-16
20
-1.3956152066188716e-17
30
0
40
0.33081200787401588
210
0
220
0
230
1
100
AcDbArc
50
149.93128565457963
51
150.06871434541998
0
ARC
5
14D
100
AcDbEntity
8
PERIMETER
100
AcDbCircle
10
-0.29140305505888048
20
0.16777598484033754
30
0
40
0.0054386747822342653
210
0
220
0
230
1
100
AcDbArc
50
257.10957319411659
51
330.06871434534628
0
ARC
5
14E
100
AcDbEntity
8
PERIMETER
100
AcDbCircle
10
-0.37715236758303522
20
-0.20691284715108077
30
0
40
0.37893700787401607
210
0
220
-0
230
1
100
AcDbArc
50
77.109573194117957
51
89.072412653235602
0
ARC
5
14F
100
AcDbEntity
8
PERIMETER
100
AcDbCircle
10
1.7483827159451283e-16
20
-1.3956152066188716e-17
30
0
40
0.40893700787401588
210
0
220
0
230
1
100
AcDbArc
50
155.13129480371416
51
159.86870519628474
0
ARC
5
150
100
AcDbEntity
8
PERIMETER
100
AcDbCircle
10
-0.12037751932336976
20
0.41299647399367517
30
0
40
0.37893700787401879
210
0
220
0
230
1
100
AcDbArc
50
225.92758734676315
51
237.89042680588068
0
ARC
5
151
100
AcDbEntity
8
PERIMETER
100
AcDbCircle
10
-0.32468861289146339
20
0.087417539689764664
30
0
40
0.0054386747822342835
210
-0
220
0
230
1
100
AcDbArc
50
-15.068714345419874
51
57.890426805880359
0
ARC
5
152
100
AcDbEntity
8
PERIMETER
100
AcDbCircle
10
1.7483827159451283e-16
20
-1.3956152066188716e-17
30
0
40
0.33081200787401588
210
0
220
0
230
1
100
AcDbArc
50
164.93128565457968
51
165.06871434541739
0
ARC
5
153
100
AcDbEntity
8
PERIMETER
100
AcDbCircle
10
-0.3248973569284192
20
0.086638496338068235
30
0
40
0.0054386747822342115
210
-0
220
0
230
1
100
AcDbArc
50
272.10957319411619
51
345.06871434535344
0
ARC
5
154
100
AcDbEntity
8
PERIMETER
100
AcDbCircle
10
-0.31074822677543368
20
-0.29747667849023784
30
0
40
0.37893700787402623
210
0
220
0
230
1
100
AcDbArc
50
92.109573194118141
51
104.07241265323546
0
ARC
5
155
100
AcDbEntity
8
PERIMETER
100
AcDbCircle
10
1.7483827159451283e-16
20
-1.3956152066188716e-17
30
0
40
0.40893700787401605
210
0
220
0
230
1
100
AcDbArc
50
170.13129480371418
51
174.86870519628474
0
ARC
5
156
100
AcDbEntity
8
PERIMETER
100
AcDbCircle
10
-0.22316710784880753
20
0.36776796579372312
30
0
40
0.37893700787401396
210
0
220
0
230
1
100
AcDbArc
50
240.92758734676306
51
252.89042680588082
0
ARC
5
157
100
AcDbEntity
8
PERIMETER
100
AcDbCircle
10
-0.3362504408415547
20
0.00040326251276256195
30
0
40
0.0054386747822343
210
-0
220
0
230
1
100
AcDbArc
50
-0.068714345414039424
51
72.890426805882313
0
ARC
5
158
100
AcDbEntity
8
PERIMETER
100
AcDbCircle
10
1.7483827159451283e-16
20
-1.3956152066188716e-17
30
0
40
0.33081200787401577
210
0
220
0
230
1
100
AcDbArc
50
179.93128565458068
51
180.06871434541401
0
ARC
5
159
100
AcDbEntity
8
PERIMETER
100
AcDbCircle
10
-0.3362504408415547
20
-0.00040326251275559096
30
0
40
0.0054386747822341933
210
-0
220
0
230
1
100
AcDbArc
50
-72.890426805882583
51
0.068714345472374164
0
ARC
5
15A
100
AcDbEntity
8
PERIMETER
100
AcDbCircle
10
-0.22316710784881286
20
-0.36776796579372384
30
0
40
0.37893700787401968
210
0
220
0
230
1
100
AcDbArc
50
107.10957319411807
51
119.07241265323555
0
ARC
5
15B
100
AcDbEntity
8
PERIMETER
100
AcDbCircle
10
1.7483827159451283e-16
20
-1.3956152066188716e-17
30
0
40
0.40893700787401577
210
0
220
0
230
1
100
AcDbArc
50
185.13129480371418
51
189.86870519628431
0
ARC
5
15C
100
AcDbEntity
8
PERIMETER
100
AcDbCircle
10
-0.31074822677542957
20
0.29747667849022702
30
0
40
0.37893700787400664
210
0
220
0
230
1
100
AcDbArc
50
255.92758734676289
51
267.89042680588085
0
ARC
5
15D
100
AcDbEntity
8
PERIMETER
100
AcDbCircle
10
-0.32489735692842109
20
-0.086638496338061505
30
0
40
0.0054386747822342775
210
0
220
-0
230
1
100
AcDbArc
50
14.931285654579165
51
87.890426805880935
0
ARC
5
15E
100
AcDbEntity
8
PERIMETER
100
AcDbCircle
10
1.7483827159451283e-16
20
-1.3956152066188716e-17
30
0
40
0.33081200787401588
210
0
220
0
230
1
100
AcDbArc
50
194.93128565457974
51
195.06871434542535
0
ARC
5
15F
100
AcDbEntity
8
PERIMETER
100
AcDbCircle
10
-0.32468861289146522
20
-0.08741753968975792
30
0
40
0.0054386747822343807
210
-0
220
0
230
1
100
AcDbArc
50
-57.89042680588183
51
15.068714345253634
0
ARC
5
160
100
AcDbEntity
8
PERIMETER
100
AcDbCircle
10
-0.12037751932338087
20
-0.41299647399366934
30
0
40
0.3789370078740143
210
0
220
0
230
1
100
AcDbArc
50
122.10957319411806
51
134.07241265323574
0
ARC
5
161
100
AcDbEntity
8
PERIMETER
100
AcDbCircle
10
1.7483827159451283e-16
20
-1.3956152066188716e-17
30
0
40
0.40893700787401577
210
0
220
0
230
1
100
AcDbArc
50
200.13129480371424
51
204.86870519628465
0
ARC
5
162
100
AcDbEntity
8
PERIMETER
100
AcDbCircle
10
-0.37715236758303172
20
0.20691284715109448
30
0
40
0.37893700787402201
210
-0
220
0
230
1
100
AcDbArc
50
270.92758734676335
51
282.89042680588079
0
ARC
5
163
100
AcDbEntity
8
PERIMETER
100
AcDbCircle
10
-0.29140305505888398
20
-0.16777598484033152
30
0
40
0.0054386747822343321
210
0
220
-0
230
1
100
AcDbArc
50
29.931285654580826
51
102.89042680588143
0
ARC
5
164
100
AcDbEntity
8
PERIMETER
100
AcDbCircle
10
1.7483827159451283e-16
20
-1.3956152066188716e-17
30
0
40
0.33081200787401577
210
0
220
0
230
1
100
AcDbArc
50
209.93128565457974
51
210.06871434541745
0
ARC
5
165
100
AcDbEntity
8
PERIMETER
100
AcDbCircle
10
-0.29099979254612496
20
-0.1684744560012181
30
0
40
0.0054386747822342645
210
-0
220
0
230
1
100
AcDbArc
50
-42.890426805882967
51
30.068714345432461
0
ARC
5
166
100
AcDbEntity
8
PERIMETER
100
AcDbCircle
10
-0.00938440178931952
20
-0.43007995499989121
30
0
40
0.37893700787400897
210
0
220
0
230
1
100
AcDbArc
50
137.10957319411804
51
149.07241265323586
0
ARC
5
167
100
AcDbEntity
8
PERIMETER
100
AcDbCircle
10
1.7483827159451283e-16
20
-1.3956152066188716e-17
30
0
40
0.40893700787401588
210
0
220
0
230
1
100
AcDbArc
50
215.1312948037143
51
219.86870519628457
0
ARC
5
168
100
AcDbEntity
8
PERIMETER
100
AcDbCircle
10
-0.41785419781361094
20
0.10224824721825573
30
0
40
0.3789370078740284
210
-0
220
0
230
1
100
AcDbArc
50
285.9275873467634
51
297.89042680588057
0
ARC
5
169
100
AcDbEntity
8
PERIMETER
100
AcDbCircle
10
-0.23805011655340169
20
-0.23747981723865719
30
0
40
0.00543867478223432
210
0
220
-0
230
1
100
AcDbArc
50
44.931285654579355
51
117.89042680588096
0
ARC
5
16A
100
AcDbEntity
8
PERIMETER
100
AcDbCircle
10
1.7483827159451283e-16
20
-1.3956152066188716e-17
30
0
40
0.33081200787401582
210
0
220
0
230
1
100
AcDbArc
50
224.9312856545798
51
225.0687143454175
0
ARC
5
16B
100
AcDbEntity
8
PERIMETER
100
AcDbCircle
10
-0.23747981723866118
20
-0.23805011655339778
30
0
40
0.0054386747822342853
210
-0
220
0
230
1
100
AcDbArc
50
-27.890426805882377
51
45.068714345431808
0
ARC
5
16C
100
AcDbEntity
8
PERIMETER
100
AcDbCircle
10
0.10224824721822634
20
-0.41785419781360389
30
0
40
0.37893700787400492
210
0
220
0
230
1
100
AcDbArc
50
152.10957319411798
51
164.07241265323597
0
ARC
5
16D
100
AcDbEntity
8
PERIMETER
100
AcDbCircle
10
1.7483827159451283e-16
20
-1.3956152066188716e-17
30
0
40
0.40893700787401588
210
0
220
0
230
1
100
AcDbArc
50
230.13129480371427
51
234.86870519628482
0
ARC
5
16E
100
AcDbEntity
8
PERIMETER
100
AcDbCircle
10
-0.43007995499989943
20
-0.009384401789301092
30
0
40
0.37893700787402296
210
-0
220
0
230
1
100
AcDbArc
50
300.92758734676335
51
312.89042680588079
0
ARC
5
16F
100
AcDbEntity
8
PERIMETER
100
AcDbCircle
10
-0.16847445600122296
20
-0.29099979254612224
30
0
40
0.0054386747822342671
210
0
220
-0
230
1
100
AcDbArc
50
59.93128565456022
51
132.89042680587903
0
ARC
5
170
100
AcDbEntity
8
PERIMETER
100
AcDbCircle
10
5.9375383000471852e-11
20
1.0285777396626124e-10
30
0
40
0.33081200799278093
210
0
220
0
230
1
100
AcDbArc
50
239.93128565460631
51
240.06871434539889
0
ARC
5
171
100
AcDbEntity
8
PERIMETER
100
AcDbCircle
10
-0.16777598484033637
20
-0.29140305505888131
30
0
40
0.0054386747822342454
210
-0
220
0
230
1
100
AcDbArc
50
-12.890426805882296
51
60.068714345308813
0
ARC
5
172
100
AcDbEntity
8
PERIMETER
100
AcDbCircle
10
0.20691284715108726
20
-0.37715236758303522
30
0
40
0.37893700787402113
210
0
220
0
230
1
100
AcDbArc
50
167.10957319411824
51
179.0724126532362
0
ARC
5
173
100
AcDbEntity
8
PERIMETER
100
AcDbCircle
10
1.7483827159451283e-16
20
-1.3956152066188716e-17
30
0
40
0.40893700787401605
210
0
220
0
230
1
100
AcDbArc
50
245.1312948037143
51
249.86870519628471
0
ARC
5
174
100
AcDbEntity
8
PERIMETER
100
AcDbCircle
10
-0.41299647399367179
20
-0.12037751932337416
30
0
40
0.37893700787401435
210
-0
220
0
230
1
100
AcDbArc
50
315.92758734676329
51
327.89042680588096
0
ARC
5
175
100
AcDbEntity
8
PERIMETER
100
AcDbCircle
10
-0.087417539689763402
20
-0.32468861289146383
30
0
40
0.005438674782234307
210
0
220
-0
230
1
100
AcDbArc
50
74.931285658461491
51
147.89042680588045
0
ARC
5
176
100
AcDbEntity
8
PERIMETER
100
AcDbCircle
10
5.9375383000471852e-11
20
1.0285777396626124e-10
30
0
40
0.33081200798877308
210
0
220
0
230
1
100
AcDbArc
50
254.93128564921741
51
255.06871434007104
0
ARC
5
177
100
AcDbEntity
8
PERIMETER
100
AcDbCircle
10
-0.086638496338066973
20
-0.3248973569284197
30
0
40
0.0054386747822341881
210
0
220
-0
230
1
100
AcDbArc
50
2.1095731941160762
51
75.068714345483087
0
ARC
5
178
100
AcDbEntity
8
PERIMETER
100
AcDbCircle
10
0.29747667849022646
20
-0.31074822677543451
30
0
40
0.37893700787401363
210
0
220
0
230
1
100
AcDbArc
50
182.10957319411816
51
194.07241265323572
0
ARC
5
179
100
AcDbEntity
8
PERIMETER
100
AcDbCircle
10
1.7483827159451283e-16
20
-1.3956152066188716e-17
30
0
40
0.40893700787401555
210
0
220
0
230
1
100
AcDbArc
50
260.13129480371435
51
264.86870519628525
0
ARC
5
17A
100
AcDbEntity
8
PERIMETER
100
AcDbCircle
10
-0.36776796579372945
20
-0.22316710784880814
30
0
40
0.37893700787402307
210
-0
220
0
230
1
100
AcDbArc
50
330.92758734676397
51
342.89042680588136
0
ARC
5
17B
100
AcDbEntity
8
PERIMETER
100
AcDbCircle
10
-0.00040326251275890163
20
-0.33625044084155492
30
0
40
0.0054386747822343
210
0
220
-0
230
1
100
AcDbArc
50
89.931285654580336
51
162.89042680588295
0
ARC
5
17C
100
AcDbEntity
8
PERIMETER
100
AcDbCircle
10
1.7483827159451283e-16
20
-1.3956152066188716e-17
30
0
40
0.33081200787401588
210
0
220
0
230
1
100
AcDbArc
50
269.93128565458028
51
270.06871434542063
0
ARC
5
17D
100
AcDbEntity
8
PERIMETER
100
AcDbCircle
10
0.00040326251275925128
20
-0.33625044084155492
30
0
40
0.0054386747822342705
210
0
220
-0
230
1
100
AcDbArc
50
17.109573194117115
51
90.068714345496147
0
ARC
5
17E
100
AcDbEntity
8
PERIMETER
100
AcDbCircle
10
0.36776796579372023
20
-0.22316710784881208
30
0
40
0.37893700787401291
210
0
220
0
230
1
100
AcDbArc
50
197.1095731941185
51
209.0724126532362
0
ARC
5
17F
100
AcDbEntity
8
PERIMETER
100
AcDbCircle
10
1.7483827159451283e-16
20
-1.3956152066188716e-17
30
0
40
0.40893700787401588
210
-0
220
0
230
1
100
AcDbArc
50
275.13129480371475
51
279.86870519628502
0
ARC
5
180
100
AcDbEntity
8
PERIMETER
100
AcDbCircle
10
-0.29747667849024212
20
-0.31074822677542863
30
0
40
0.37893700787402562
210
-0
220
0
230
1
100
AcDbArc
50
345.92758734676357
51
357.89042680588079
0
ARC
5
181
100
AcDbEntity
8
PERIMETER
100
AcDbCircle
10
0.086638496338062768
20
-0.32489735692842092
30
0
40
0.005438674782234169
210
0
220
0
230
1
100
AcDbArc
50
104.93128565164737
51
177.89042680588273
0
ARC
5
182
100
AcDbEntity
8
PERIMETER
100
AcDbCircle
10
-4.4458662473274894e-11
20
7.7021966282307974e-11
30
0
40
0.3308120079598928
210
-0
220
0
230
1
100
AcDbArc
50
284.93128565863111
51
285.06871434938654
0
ARC
5
183
100
AcDbEntity
8
PERIMETER
100
AcDbCircle
10
0.087417539689759211
20
-0.32468861289146506
30
0
40
0.0054386747822342228
210
0
220
-0
230
1
100
AcDbArc
50
32.109573194116606
51
105.06871434554364
0
ARC
5
184
100
AcDbEntity
8
PERIMETER
100
AcDbCircle
10
0.41299647399366679
20
-0.12037751932338224
30
0
40
0.37893700787401041
210
0
220
0
230
1
100
AcDbArc
50
212.10957319411824
51
224.072412653236
0
ARC
5
185
100
AcDbEntity
8
PERIMETER
100
AcDbCircle
10
1.7483827159451283e-16
20
-1.3956152066188716e-17
30
0
40
0.40893700787401588
210
-0
220
0
230
1
100
AcDbArc
50
290.13129480371441
51
294.86870519628502
0
ARC
5
186
100
AcDbEntity
8
PERIMETER
100
AcDbCircle
10
-0.20691284715108407
20
-0.37715236758303128
30
0
40
0.37893700787401308
210
0
220
-0
230
1
100
AcDbArc
50
0.92758734676304211
51
12.890426805880963
0
ARC
5
187
100
AcDbEntity
8
PERIMETER
100
AcDbCircle
10
0.16777598484033263
20
-0.2914030550588837
30
0
40
0.0054386747822342801
210
0
220
0
230
1
100
AcDbArc
50
119.93128565456747
51
192.89042680588094
0
ARC
5
188
100
AcDbEntity
8
PERIMETER
100
AcDbCircle
10
-4.4458662473274894e-11
20
7.7021966282307974e-11
30
0
40
0.33081200796294824
210
-0
220
0
230
1
100
AcDbArc
50
299.93128565459716
51
300.06871434539772
0
ARC
5
189
100
AcDbEntity
8
PERIMETER
100
AcDbCircle
10
0.16847445600121921
20
-0.29099979254612462
30
0
40
0.005438674782234313
210
0
220
-0
230
1
100
AcDbArc
50
47.109573194117637
51
120.06871434546883
0
ARC
5
18A
100
AcDbEntity
8
PERIMETER
100
AcDbCircle
10
0.43007995499989549
20
-0.0093844017893128066
30
0
40
0.37893700787401574
210
0
220
0
230
1
100
AcDbArc
50
227.1095731941183
51
239.07241265323592
0
ARC
5
18B
100
AcDbEntity
8
PERIMETER
100
AcDbCircle
10
1.7483827159451283e-16
20
-1.3956152066188716e-17
30
0
40
0.40893700787401605
210
-0
220
0
230
1
100
AcDbArc
50
305.13129480371447
51
309.86870519628485
0
ARC
5
18C
100
AcDbEntity
8
PERIMETER
100
AcDbCircle
10
-0.10224824721824352
20
-0.41785419781360711
30
0
40
0.37893700787401685
210
0
220
-0
230
1
100
AcDbArc
50
15.927587346763403
51
27.890426805880921
0
ARC
5
18D
100
AcDbEntity
8
PERIMETER
100
AcDbCircle
10
0.23747981723865816
20
-0.23805011655340108
30
0
40
0.0054386747822342887
210
0
220
0
230
1
100
AcDbArc
50
134.9312856545798
51
207.89042680588398
0
ARC
5
18E
100
AcDbEntity
8
PERIMETER
100
AcDbCircle
10
1.7483827159451283e-16
20
-1.3956152066188716e-17
30
0
40
0.33081200787401588
210
-0
220
0
230
1
100
AcDbArc
50
314.93128565457999
51
315.06871434542035
0
ARC
5
18F
100
AcDbEntity
8
PERIMETER
100
AcDbCircle
10
0.23805011655339869
20
-0.23747981723866055
30
0
40
0.0054386747822343061
210
0
220
-0
230
1
100
AcDbArc
50
62.109573194117218
51
135.0687143453768
0
ARC
5
190
100
AcDbEntity
8
PERIMETER
100
AcDbCircle
10
0.417854197813608
20
0.10224824721823764
30
0
40
0.37893700787401591
210
0
220
0
230
1
100
AcDbArc
50
242.10957319411835
51
254.07241265323583
0
ENDSEC
0
SECTION
2
OBJECTS
0
DICTIONARY
5
C
100
AcDbDictionary
3
ACAD_GROUP
350
D
3
ACAD_MLINESTYLE
350
17
0
DICTIONARY
5
D
100
AcDbDictionary
0
DICTIONARY
5
1A
330
C
100
AcDbDictionary
0
DICTIONARY
5
17
100
AcDbDictionary
0
ENDSEC
0
EOF
