0
SECTION
2
HEADER
9
$INSUNITS
70
1
9
$ACADVER
1
AC1014
9
$HANDSEED
5
FFFF
0
ENDSEC
0
SECTION
2
TABLES
0
TABLE
2
VPORT
5
8
100
AcDbSymbolTable
0
ENDTAB
0
TABLE
2
LTYPE
5
5
100
AcDbSymbolTable
70
2
0
LTYPE
5
14
100
AcDbSymbolTableRecord
100
AcDbLinetypeTableRecord
2
BYBLOCK
70
0
0
LTYPE
5
15
100
AcDbSymbolTableRecord
100
AcDbLinetypeTableRecord
2
BYLAYER
70
0
0
ENDTAB
0
TABLE
2
LAYER
5
2
100
AcDbSymbolTable
70
3
0
LAYER
5
50
100
AcDbSymbolTableRecord
100
AcDbLayerTableRecord
2
0
70
0
6
CONTINUOUS
0
LAYER
5
51
100
AcDbSymbolTableRecord
100
AcDbLayerTableRecord
2
CUTOUTS
70
0
62
1
6
CONTINUOUS
0
LAYER
5
52
100
AcDbSymbolTableRecord
100
AcDbLayerTableRecord
2
PERIMETER
70
0
62
5
6
CONTINUOUS
0
ENDTAB
0
TABLE
2
STYLE
5
3
100
AcDbSymbolTable
70
1
0
STYLE
5
11
100
AcDbSymbolTableRecord
100
AcDbTextStyleTableRecord
2
STANDARD
70
0
0
ENDTAB
0
TABLE
2
VIEW
5
6
100
AcDbSymbolTable
0
ENDTAB
0
TABLE
2
UCS
5
7
100
AcDbSymbolTable
0
ENDTAB
0
TABLE
2
APPID
5
9
100
AcDbSymbolTable
70
1
0
APPID
5
12
100
AcDbSymbolTableRecord
100
AcDbRegAppTableRecord
2
ACAD
70
0
0
ENDTAB
0
TABLE
2
DIMSTYLE
5
A
100
AcDbSymbolTable
0
ENDTAB
0
TABLE
2
BLOCK_RECORD
5
1
100
AcDbSymbolTable
70
2
0
BLOCK_RECORD
5
1F
100
AcDbSymbolTableRecord
100
AcDbBlockTableRecord
2
*MODEL_SPACE
0
BLOCK_RECORD
5
1B
100
AcDbSymbolTableRecord
100
AcDbBlockTableRecord
2
*PAPER_SPACE
0
ENDTAB
0
ENDSEC
0
SECTION
2
BLOCKS
0
BLOCK
5
20
100
AcDbEntity
100
AcDbBlockBegin
2
*MODEL_SPACE
0
ENDBLK
5
21
100
AcDbEntity
100
AcDbBlockEnd
0
BLOCK
5
1C
100
AcDbEntity
100
AcDbBlockBegin
2
*PAPER_SPACE
0
ENDBLK
5
1D
100
AcDbEntity
100
AcDbBlockEnd
0
ENDSEC
0
SECTION
2
ENTITIES
0
CIRCLE
5
100
100
AcDbEntity
8
CUTOUTS
100
AcDbCircle
10
8.7419135797256413e-17
20
0
30
2.1854783949314103e-17
40
0.03582677165354331
210
0
220
0
230
1
0
ARC
5
101
100
AcDbEntity
8
PERIMETER
100
AcDbCircle
10
-0.16777598484033027
20
0.29140305505888475
30
0
40
0.0058323755696358696
210
-0
220
0
230
1
100
AcDbArc
50
-60.068714345432447
51
12.89042680588045
0
ARC
5
102
100
AcDbEntity
8
PERIMETER
100
AcDbCircle
10
0.20691284715109715
20
0.377152367583031
30
0
40
0.37854330708661987
210
0
220
0
230
1
100
AcDbArc
50
180.96633655939092
51
192.89042680588042
0
ARC
5
103
100
AcDbEntity
8
PERIMETER
100
AcDbCircle
10
1.7483827159451283e-16
20
-1.8308469647252933e-17
30
0
40
0.40854330708661452
210
0
220
0
230
1
100
AcDbArc
50
110.16719996816771
51
114.83280003183057
0
ARC
5
104
100
AcDbEntity
8
PERIMETER
100
AcDbCircle
10
-0.41299647399366646
20
0.12037751932338452
30
0
40
0.37854330708660971
210
0
220
-0
230
1
100
AcDbArc
50
32.109573194117786
51
44.033663440607526
0
ARC
5
105
100
AcDbEntity
8
PERIMETER
100
AcDbCircle
10
-0.087417539689756601
20
0.32468861289146567
30
0
40
0.0058323755696358575
210
0
220
0
230
1
100
AcDbArc
50
212.10957319411739
51
285.0687143454852
0
ARC
5
106
100
AcDbEntity
8
PERIMETER
100
AcDbCircle
10
1.7483827159451283e-16
20
-1.8308469647252933e-17
30
0
40
0.33041830708661418
210
0
220
0
230
1
100
AcDbArc
50
104.93128565457954
51
105.06871434541455
0
ARC
5
107
100
AcDbEntity
8
PERIMETER
100
AcDbCircle
10
-0.086638496338060172
20
0.32489735692842148
30
0
40
0.0058323755696358982
210
-0
220
0
230
1
100
AcDbArc
50
284.93128565457948
51
357.89042680588199
0
ARC
5
108
100
AcDbEntity
8
PERIMETER
100
AcDbCircle
10
0.29747667849023518
20
0.3107482267754279
30
0
40
0.3785433070866126
210
0
220
0
230
1
100
AcDbArc
50
165.96633655939092
51
177.89042680588082
0
ARC
5
109
100
AcDbEntity
8
PERIMETER
100
AcDbCircle
10
1.7483827159451283e-16
20
-1.8308469647252933e-17
30
0
40
0.40854330708661435
210
0
220
0
230
1
100
AcDbArc
50
95.167199968168461
51
99.832800031830516
0
ARC
5
10A
100
AcDbEntity
8
PERIMETER
100
AcDbCircle
10
-0.36776796579371829
20
0.22316710784881247
30
0
40
0.37854330708660971
210
0
220
-0
230
1
100
AcDbArc
50
17.109573194118539
51
29.033663440608297
0
ARC
5
10B
100
AcDbEntity
8
PERIMETER
100
AcDbCircle
10
-0.00040326251275890163
20
0.33625044084155487
30
0
40
0.0058323755696358835
210
0
220
0
230
1
100
AcDbArc
50
197.1095731941173
51
270.06871434547935
0
ARC
5
10C
100
AcDbEntity
8
PERIMETER
100
AcDbCircle
10
1.7483827159451283e-16
20
-1.8308469647252933e-17
30
0
40
0.33041830708661413
210
0
220
-0
230
1
100
AcDbArc
50
89.931285654580293
51
90.068714345420645
0
ARC
5
10D
100
AcDbEntity
8
PERIMETER
100
AcDbCircle
10
0.00040326251275925128
20
0.33625044084155487
30
0
40
0.0058323755696359537
210
0
220
0
230
1
100
AcDbArc
50
269.93128565458028
51
342.89042680588068
0
ARC
5
10E
100
AcDbEntity
8
PERIMETER
100
AcDbCircle
10
0.36776796579372356
20
0.22316710784881066
30
0
40
0.37854330708661454
210
0
220
0
230
1
100
AcDbArc
50
150.96633655939186
51
162.89042680588145
0
ARC
5
10F
100
AcDbEntity
8
PERIMETER
100
AcDbCircle
10
1.7483827159451283e-16
20
-1.8308469647252933e-17
30
0
40
0.40854330708661424
210
0
220
-0
230
1
100
AcDbArc
50
80.167199968168404
51
84.832800031831482
0
ARC
5
110
100
AcDbEntity
8
PERIMETER
100
AcDbCircle
10
-0.29747667849023696
20
0.31074822677543146
30
0
40
0.3785433070866206
210
0
220
-0
230
1
100
AcDbArc
50
2.1095731941184952
51
14.033663440607926
0
ARC
5
111
100
AcDbEntity
8
PERIMETER
100
AcDbCircle
10
0.086638496338065044
20
0.32489735692842026
30
0
40
0.005832375569635913
210
0
220
0
230
1
100
AcDbArc
50
182.10957319411747
51
255.06871434551337
0
ARC
5
112
100
AcDbEntity
8
PERIMETER
100
AcDbCircle
10
-2.550702431421978e-11
20
-9.5164096151251885e-11
30
0
40
0.33041830718513737
210
0
220
-0
230
1
100
AcDbArc
50
74.931285654599606
51
75.068714345394852
0
ARC
5
113
100
AcDbEntity
8
PERIMETER
100
AcDbCircle
10
0.087417539689761473
20
0.32468861289146445
30
0
40
0.0058323755696358896
210
0
220
0
230
1
100
AcDbArc
50
254.93128565456888
51
327.8904268058796
0
ARC
5
114
100
AcDbEntity
8
PERIMETER
100
AcDbCircle
10
0.4129964739936729
20
0.12037751932337543
30
0
40
0.37854330708661565
210
0
220
0
230
1
100
AcDbArc
50
135.96633655939186
51
147.89042680588139
0
ARC
5
115
100
AcDbEntity
8
PERIMETER
100
AcDbCircle
10
1.7483827159451283e-16
20
-1.8308469647252933e-17
30
0
40
0.40854330708661402
210
0
220
-0
230
1
100
AcDbArc
50
65.167199968168376
51
69.832800031831496
0
ARC
5
116
100
AcDbEntity
8
PERIMETER
100
AcDbCircle
10
-0.2069128471510899
20
0.37715236758303383
30
0
40
0.37854330708661976
210
-0
220
0
230
1
100
AcDbArc
50
347.10957319411864
51
359.033663440608
0
ARC
5
117
100
AcDbEntity
8
PERIMETER
100
AcDbCircle
10
0.16777598484033468
20
0.29140305505888248
30
0
40
0.0058323755696359373
210
0
220
0
230
1
100
AcDbArc
50
167.10957319411909
51
240.06871434542273
0
ARC
5
118
100
AcDbEntity
8
PERIMETER
100
AcDbCircle
10
-2.3972053563539703e-11
20
-4.1501815932538142e-11
30
0
40
0.33041830713454184
210
0
220
-0
230
1
100
AcDbArc
50
59.931285654588613
51
60.068714345407727
0
ARC
5
119
100
AcDbEntity
8
PERIMETER
100
AcDbCircle
10
0.16847445600122127
20
0.2909997925461234
30
0
40
0.0058323755696359399
210
0
220
0
230
1
100
AcDbArc
50
239.93128565457516
51
312.89042680588221
0
ARC
5
11A
100
AcDbEntity
8
PERIMETER
100
AcDbCircle
10
0.43007995499989216
20
0.0093844017893140817
30
0
40
0.37854330708660822
210
0
220
0
230
1
100
AcDbArc
50
120.96633655939161
51
132.89042680588133
0
ARC
5
11B
100
AcDbEntity
8
PERIMETER
100
AcDbCircle
10
1.7483827159451283e-16
20
-1.8308469647252933e-17
30
0
40
0.40854330708661407
210
0
220
-0
230
1
100
AcDbArc
50
50.167199968168326
51
54.832800031831191
0
ARC
5
11C
100
AcDbEntity
8
PERIMETER
100
AcDbCircle
10
-0.10224824721823622
20
0.4178541978136065
30
0
40
0.37854330708661138
210
-0
220
0
230
1
100
AcDbArc
50
332.10957319411841
51
344.03366344060805
0
ARC
5
11D
100
AcDbEntity
8
PERIMETER
100
AcDbCircle
10
0.23747981723865985
20
0.23805011655339939
30
0
40
0.0058323755696358818
210
0
220
0
230
1
100
AcDbArc
50
152.10957319411858
51
225.06871434543208
0
ARC
5
11E
100
AcDbEntity
8
PERIMETER
100
AcDbCircle
10
1.7483827159451283e-16
20
-1.8308469647252933e-17
30
0
40
0.33041830708661418
210
0
220
-0
230
1
100
AcDbArc
50
44.931285654580208
51
45.068714345420553
0
ARC
5
11F
100
AcDbEntity
8
PERIMETER
100
AcDbCircle
10
0.23805011655340039
20
0.23747981723865885
30
0
40
0.0058323755696359286
210
0
220
0
230
1
100
AcDbArc
50
224.93128565457948
51
297.89042680587983
0
ARC
5
120
100
AcDbEntity
8
PERIMETER
100
AcDbCircle
10
0.41785419781361044
20
-0.10224824721824967
30
0
40
0.37854330708662404
210
0
220
0
230
1
100
AcDbArc
50
105.96633655939188
51
117.89042680588111
0
ARC
5
121
100
AcDbEntity
8
PERIMETER
100
AcDbCircle
10
1.7483827159451283e-16
20
-1.8308469647252933e-17
30
0
40
0.40854330708661402
210
0
220
-0
230
1
100
AcDbArc
50
35.167199968168298
51
39.832800031831368
0
ARC
5
122
100
AcDbEntity
8
PERIMETER
100
AcDbCircle
10
0.0093844017893053144
20
0.43007995499989987
30
0
40
0.37854330708662165
210
-0
220
0
230
1
100
AcDbArc
50
317.1095731941187
51
329.03366344060794
0
ARC
5
123
100
AcDbEntity
8
PERIMETER
100
AcDbCircle
10
0.29099979254612413
20
0.16847445600122005
30
0
40
0.0058323755696359503
210
0
220
0
230
1
100
AcDbArc
50
137.10957319411585
51
210.06871434546952
0
ARC
5
124
100
AcDbEntity
8
PERIMETER
100
AcDbCircle
10
1.7483827159451283e-16
20
-1.8308469647252933e-17
30
0
40
0.33041830708661418
210
0
220
-0
230
1
100
AcDbArc
50
29.931285654580151
51
30.068714345420503
0
ARC
5
125
100
AcDbEntity
8
PERIMETER
100
AcDbCircle
10
0.2914030550588832
20
0.16777598484033346
30
0
40
0.0058323755696359399
210
0
220
0
230
1
100
AcDbArc
50
209.93128565458068
51
282.89042680587977
0
ARC
5
126
100
AcDbEntity
8
PERIMETER
100
AcDbCircle
10
0.37715236758303355
20
-0.20691284715109318
30
0
40
0.3785433070866206
210
0
220
0
230
1
100
AcDbArc
50
90.966336559391706
51
102.89042680588116
0
ARC
5
127
100
AcDbEntity
8
PERIMETER
100
AcDbCircle
10
1.7483827159451283e-16
20
-1.8308469647252933e-17
30
0
40
0.4085433070866144
210
0
220
-0
230
1
100
AcDbArc
50
20.167199968168276
51
24.832800031831344
0
ARC
5
128
100
AcDbEntity
8
PERIMETER
100
AcDbCircle
10
0.12037751932338148
20
0.41299647399366662
30
0
40
0.37854330708660816
210
-0
220
0
230
1
100
AcDbArc
50
302.10957319411835
51
314.03366344060811
0
ARC
5
129
100
AcDbEntity
8
PERIMETER
100
AcDbCircle
10
0.32468861289146494
20
0.08741753968976014
30
0
40
0.0058323755696358349
210
0
220
0
230
1
100
AcDbArc
50
122.10957319411889
51
195.06871434534602
0
ARC
5
12A
100
AcDbEntity
8
PERIMETER
100
AcDbCircle
10
1.7483827159451283e-16
20
-1.8308469647252933e-17
30
0
40
0.33041830708661418
210
0
220
-0
230
1
100
AcDbArc
50
14.93128565458013
51
15.068714345415119
0
ARC
5
12B
100
AcDbEntity
8
PERIMETER
100
AcDbCircle
10
0.32489735692842081
20
0.086638496338063711
30
0
40
0.005832375569635926
210
0
220
0
230
1
100
AcDbArc
50
194.93128565458036
51
267.89042680588028
0
ARC
5
12C
100
AcDbEntity
8
PERIMETER
100
AcDbCircle
10
0.31074822677542979
20
-0.29747667849024195
30
0
40
0.37854330708662454
210
0
220
-0
230
1
100
AcDbArc
50
75.966336559391806
51
87.890426805881077
0
ARC
5
12D
100
AcDbEntity
8
PERIMETER
100
AcDbCircle
10
1.7483827159451283e-16
20
-1.8308469647252933e-17
30
0
40
0.4085433070866144
210
0
220
-0
230
1
100
AcDbArc
50
5.1671999681683012
51
9.832800031831388
0
ARC
5
12E
100
AcDbEntity
8
PERIMETER
100
AcDbCircle
10
0.223167107848809
20
0.36776796579372861
30
0
40
0.37854330708662165
210
-0
220
0
230
1
100
AcDbArc
50
287.10957319411858
51
299.03366344060794
0
ARC
5
12F
100
AcDbEntity
8
PERIMETER
100
AcDbCircle
10
0.33625044084155509
20
0.00040326251275786589
30
0
40
0.0058323755696358531
210
0
220
0
230
1
100
AcDbArc
50
107.10957319411791
51
180.06871434547233
0
ARC
5
130
100
AcDbEntity
8
PERIMETER
100
AcDbCircle
10
1.7483827159451283e-16
20
-1.8308469647252933e-17
30
0
40
0.33041830708661413
210
-0
220
0
230
1
100
AcDbArc
50
-0.068714345419331871
51
0.06871434540872548
0
ARC
5
131
100
AcDbEntity
8
PERIMETER
100
AcDbCircle
10
0.33625044084155509
20
-0.00040326251276028707
30
0
40
0.0058323755696359537
210
0
220
0
230
1
100
AcDbArc
50
179.93128565458068
51
252.8904268058813
0
ARC
5
132
100
AcDbEntity
8
PERIMETER
100
AcDbCircle
10
0.22316710784881155
20
-0.36776796579371873
30
0
40
0.37854330708660888
210
0
220
-0
230
1
100
AcDbArc
50
60.966336559391465
51
72.890426805881262
0
ARC
5
133
100
AcDbEntity
8
PERIMETER
100
AcDbCircle
10
1.7483827159451283e-16
20
-1.8308469647252933e-17
30
0
40
0.40854330708661452
210
-0
220
0
230
1
100
AcDbArc
50
350.16719996816823
51
354.83280003183137
0
ARC
5
134
100
AcDbEntity
8
PERIMETER
100
AcDbCircle
10
0.31074822677543484
20
0.29747667849021947
30
0
40
0.37854330708660405
210
-0
220
0
230
1
100
AcDbArc
50
272.10957319411818
51
284.03366344060811
0
ARC
5
135
100
AcDbEntity
8
PERIMETER
100
AcDbCircle
10
0.32489735692842026
20
-0.086638496338066057
30
0
40
0.0058323755696358471
210
0
220
0
230
1
100
AcDbArc
50
92.10957319411807
51
165.06871434552227
0
ARC
5
136
100
AcDbEntity
8
PERIMETER
100
AcDbCircle
10
1.7483827159451283e-16
20
-1.8308469647252933e-17
30
0
40
0.33041830708661435
210
-0
220
0
230
1
100
AcDbArc
50
344.93128565458011
51
345.06871434541506
0
ARC
5
137
100
AcDbEntity
8
PERIMETER
100
AcDbCircle
10
0.32468861289146439
20
-0.087417539689762486
30
0
40
0.0058323755696358896
210
0
220
0
230
1
100
AcDbArc
50
164.93128565458051
51
237.89042680588017
0
ARC
5
138
100
AcDbEntity
8
PERIMETER
100
AcDbCircle
10
0.12037751932336881
20
-0.4129964739936805
30
0
40
0.37854330708662348
210
0
220
-0
230
1
100
AcDbArc
50
45.966336559391728
51
57.890426805881013
0
ARC
5
139
100
AcDbEntity
8
PERIMETER
100
AcDbCircle
10
1.7483827159451283e-16
20
-1.8308469647252933e-17
30
0
40
0.40854330708661452
210
-0
220
0
230
1
100
AcDbArc
50
335.16719996816818
51
339.83280003183131
0
ARC
5
13A
100
AcDbEntity
8
PERIMETER
100
AcDbCircle
10
0.37715236758303344
20
0.20691284715107827
30
0
40
0.37854330708660927
210
0
220
0
230
1
100
AcDbArc
50
257.10957319411835
51
269.033663440608
0
ARC
5
13B
100
AcDbEntity
8
PERIMETER
100
AcDbCircle
10
0.29140305505888209
20
-0.16777598484033557
30
0
40
0.0058323755696358393
210
0
220
-0
230
1
100
AcDbArc
50
77.109573194117189
51
150.06871434542367
0
ARC
5
13C
100
AcDbEntity
8
PERIMETER
100
AcDbCircle
10
1.7483827159451283e-16
20
-1.8308469647252933e-17
30
0
40
0.33041830708661424
210
-0
220
0
230
1
100
AcDbArc
50
329.93128565458005
51
330.06871434541506
0
ARC
5
13D
100
AcDbEntity
8
PERIMETER
100
AcDbCircle
10
0.29099979254612296
20
-0.16847445600122216
30
0
40
0.0058323755696358878
210
0
220
0
230
1
100
AcDbArc
50
149.93128565458025
51
222.89042680588489
0
ARC
5
13E
100
AcDbEntity
8
PERIMETER
100
AcDbCircle
10
0.0093844017893059267
20
-0.4300799549998976
30
0
40
0.37854330708661671
210
0
220
-0
230
1
100
AcDbArc
50
30.966336559391621
51
42.890426805880942
0
ARC
5
13F
100
AcDbEntity
8
PERIMETER
100
AcDbCircle
10
1.7483827159451283e-16
20
-1.8308469647252933e-17
30
0
40
0.40854330708661407
210
-0
220
0
230
1
100
AcDbArc
50
320.16719996816812
51
324.83280003183114
0
ARC
5
140
100
AcDbEntity
8
PERIMETER
100
AcDbCircle
10
0.417854197813608
20
0.10224824721823764
30
0
40
0.37854330708661449
210
0
220
0
230
1
100
AcDbArc
50
242.10957319411835
51
254.03366344060785
0
ARC
5
141
100
AcDbEntity
8
PERIMETER
100
AcDbCircle
10
0.23805011655339869
20
-0.23747981723866055
30
0
40
0.0058323755696358072
210
0
220
-0
230
1
100
AcDbArc
50
62.109573194117218
51
135.06871434537655
0
ARC
5
142
100
AcDbEntity
8
PERIMETER
100
AcDbCircle
10
1.7483827159451283e-16
20
-1.8308469647252933e-17
30
0
40
0.33041830708661429
210
-0
220
0
230
1
100
AcDbArc
50
314.93128565457999
51
315.068714345415
0
ARC
5
143
100
AcDbEntity
8
PERIMETER
100
AcDbCircle
10
0.23747981723865816
20
-0.23805011655340108
30
0
40
0.0058323755696358661
210
0
220
0
230
1
100
AcDbArc
50
134.93128565458025
51
207.89042680588432
0
ARC
5
144
100
AcDbEntity
8
PERIMETER
100
AcDbCircle
10
-0.10224824721824352
20
-0.41785419781360711
30
0
40
0.37854330708661527
210
0
220
-0
230
1
100
AcDbArc
50
15.966336559391427
51
27.890426805880995
0
ARC
5
145
100
AcDbEntity
8
PERIMETER
100
AcDbCircle
10
1.7483827159451283e-16
20
-1.8308469647252933e-17
30
0
40
0.4085433070866144
210
-0
220
0
230
1
100
AcDbArc
50
305.16719996816812
51
309.83280003183125
0
ARC
5
146
100
AcDbEntity
8
PERIMETER
100
AcDbCircle
10
0.43007995499989549
20
-0.0093844017893128066
30
0
40
0.37854330708661421
210
0
220
0
230
1
100
AcDbArc
50
227.1095731941183
51
239.03366344060788
0
ARC
5
147
100
AcDbEntity
8
PERIMETER
100
AcDbCircle
10
0.16847445600121921
20
-0.29099979254612462
30
0
40
0.00583237556963588
210
0
220
-0
230
1
100
AcDbArc
50
47.109573194117999
51
120.06871434546883
0
ARC
5
148
100
AcDbEntity
8
PERIMETER
100
AcDbCircle
10
-4.4458662473274894e-11
20
7.7021966282307974e-11
30
0
40
0.33041830717554665
210
-0
220
0
230
1
100
AcDbArc
50
299.93128565459716
51
300.06871434540034
0
ARC
5
149
100
AcDbEntity
8
PERIMETER
100
AcDbCircle
10
0.16777598484033263
20
-0.2914030550588837
30
0
40
0.0058323755696358818
210
0
220
0
230
1
100
AcDbArc
50
119.93128565456924
51
192.8904268058804
0
ARC
5
14A
100
AcDbEntity
8
PERIMETER
100
AcDbCircle
10
-0.20691284715108407
20
-0.37715236758303128
30
0
40
0.37854330708661132
210
0
220
-0
230
1
100
AcDbArc
50
0.96633655939128948
51
12.890426805881049
0
ARC
5
14B
100
AcDbEntity
8
PERIMETER
100
AcDbCircle
10
1.7483827159451283e-16
20
-1.8308469647252933e-17
30
0
40
0.40854330708661435
210
-0
220
0
230
1
100
AcDbArc
50
290.16719996816806
51
294.8328000318312
0
ARC
5
14C
100
AcDbEntity
8
PERIMETER
100
AcDbCircle
10
0.41299647399366679
20
-0.12037751932338224
30
0
40
0.37854330708660872
210
0
220
0
230
1
100
AcDbArc
50
212.10957319411818
51
224.03366344060782
0
ARC
5
14D
100
AcDbEntity
8
PERIMETER
100
AcDbCircle
10
0.087417539689759211
20
-0.32468861289146506
30
0
40
0.0058323755696358531
210
0
220
-0
230
1
100
AcDbArc
50
32.109573194116862
51
105.06871434554371
0
ARC
5
14E
100
AcDbEntity
8
PERIMETER
100
AcDbCircle
10
-4.4458662473274894e-11
20
7.7021966282307974e-11
30
0
40
0.33041830717249104
210
-0
220
0
230
1
100
AcDbArc
50
284.93128565863111
51
285.06871434938921
0
ARC
5
14F
100
AcDbEntity
8
PERIMETER
100
AcDbCircle
10
0.086638496338062768
20
-0.32489735692842092
30
0
40
0.0058323755696357924
210
0
220
0
230
1
100
AcDbArc
50
104.931285652119
51
177.89042680588256
0
ARC
5
150
100
AcDbEntity
8
PERIMETER
100
AcDbCircle
10
-0.29747667849024212
20
-0.31074822677542863
30
0
40
0.37854330708662393
210
-0
220
0
230
1
100
AcDbArc
50
345.96633655939161
51
357.89042680588079
0
ARC
5
151
100
AcDbEntity
8
PERIMETER
100
AcDbCircle
10
1.7483827159451283e-16
20
-1.8308469647252933e-17
30
0
40
0.40854330708661418
210
-0
220
0
230
1
100
AcDbArc
50
275.16719996816846
51
279.83280003183131
0
ARC
5
152
100
AcDbEntity
8
PERIMETER
100
AcDbCircle
10
0.36776796579372023
20
-0.22316710784881208
30
0
40
0.37854330708661132
210
0
220
0
230
1
100
AcDbArc
50
197.10957319411852
51
209.03366344060817
0
ARC
5
153
100
AcDbEntity
8
PERIMETER
100
AcDbCircle
10
0.00040326251275925128
20
-0.33625044084155492
30
0
40
0.0058323755696359147
210
0
220
-0
230
1
100
AcDbArc
50
17.109573194117157
51
90.068714345496133
0
ARC
5
154
100
AcDbEntity
8
PERIMETER
100
AcDbCircle
10
1.7483827159451283e-16
20
-1.8308469647252933e-17
30
0
40
0.33041830708661418
210
0
220
0
230
1
100
AcDbArc
50
269.93128565458028
51
270.06871434541529
0
ARC
5
155
100
AcDbEntity
8
PERIMETER
100
AcDbCircle
10
-0.00040326251275890163
20
-0.33625044084155492
30
0
40
0.0058323755696359104
210
0
220
-0
230
1
100
AcDbArc
50
89.931285654580336
51
162.89042680588281
0
ARC
5
156
100
AcDbEntity
8
PERIMETER
100
AcDbCircle
10
-0.36776796579372945
20
-0.22316710784880814
30
0
40
0.37854330708662143
210
-0
220
0
230
1
100
AcDbArc
50
330.966336559392
51
342.89042680588125
0
ARC
5
157
100
AcDbEntity
8
PERIMETER
100
AcDbCircle
10
1.7483827159451283e-16
20
-1.8308469647252933e-17
30
0
40
0.40854330708661407
210
0
220
0
230
1
100
AcDbArc
50
260.16719996816795
51
264.8328000318316
0
ARC
5
158
100
AcDbEntity
8
PERIMETER
100
AcDbCircle
10
0.29747667849022646
20
-0.31074822677543451
30
0
40
0.37854330708661199
210
0
220
0
230
1
100
AcDbArc
50
182.10957319411816
51
194.03366344060768
0
ARC
5
159
100
AcDbEntity
8
PERIMETER
100
AcDbCircle
10
-0.086638496338066973
20
-0.3248973569284197
30
0
40
0.0058323755696358644
210
0
220
-0
230
1
100
AcDbArc
50
2.1095731941164217
51
75.068714345482817
0
ARC
5
15A
100
AcDbEntity
8
PERIMETER
100
AcDbCircle
10
5.9375383000471852e-11
20
1.0285777396626124e-10
30
0
40
0.3304183072013715
210
0
220
0
230
1
100
AcDbArc
50
254.93128564921741
51
255.06871434006572
0
ARC
5
15B
100
AcDbEntity
8
PERIMETER
100
AcDbCircle
10
-0.087417539689763402
20
-0.32468861289146383
30
0
40
0.0058323755696359312
210
0
220
-0
230
1
100
AcDbArc
50
74.931285657837606
51
147.89042680588045
0
ARC
5
15C
100
AcDbEntity
8
PERIMETER
100
AcDbCircle
10
-0.41299647399367179
20
-0.12037751932337416
30
0
40
0.3785433070866126
210
-0
220
0
230
1
100
AcDbArc
50
315.96633655939132
51
327.89042680588096
0
ARC
5
15D
100
AcDbEntity
8
PERIMETER
100
AcDbCircle
10
1.7483827159451283e-16
20
-1.8308469647252933e-17
30
0
40
0.4085433070866144
210
0
220
0
230
1
100
AcDbArc
50
245.16719996816798
51
249.83280003183108
0
ARC
5
15E
100
AcDbEntity
8
PERIMETER
100
AcDbCircle
10
0.20691284715108726
20
-0.37715236758303522
30
0
40
0.37854330708661943
210
0
220
0
230
1
100
AcDbArc
50
167.10957319411824
51
179.0336634406076
0
ARC
5
15F
100
AcDbEntity
8
PERIMETER
100
AcDbCircle
10
-0.16777598484033637
20
-0.29140305505888131
30
0
40
0.0058323755696359572
210
-0
220
0
230
1
100
AcDbArc
50
-12.89042680588199
51
60.068714345308884
0
ARC
5
160
100
AcDbEntity
8
PERIMETER
100
AcDbCircle
10
5.9375383000471852e-11
20
1.0285777396626124e-10
30
0
40
0.33041830720537924
210
0
220
0
230
1
100
AcDbArc
50
239.93128565460626
51
240.06871434539624
0
ARC
5
161
100
AcDbEntity
8
PERIMETER
100
AcDbCircle
10
-0.16847445600122296
20
-0.29099979254612224
30
0
40
0.0058323755696359138
210
0
220
-0
230
1
100
AcDbArc
50
59.931285654563681
51
132.89042680587895
0
ARC
5
162
100
AcDbEntity
8
PERIMETER
100
AcDbCircle
10
-0.43007995499989943
20
-0.009384401789301092
30
0
40
0.37854330708662137
210
-0
220
0
230
1
100
AcDbArc
50
300.96633655939144
51
312.89042680588074
0
ARC
5
163
100
AcDbEntity
8
PERIMETER
100
AcDbCircle
10
1.7483827159451283e-16
20
-1.8308469647252933e-17
30
0
40
0.4085433070866144
210
0
220
0
230
1
100
AcDbArc
50
230.16719996816801
51
234.83280003183106
0
ARC
5
164
100
AcDbEntity
8
PERIMETER
100
AcDbCircle
10
0.10224824721822634
20
-0.41785419781360389
30
0
40
0.37854330708660333
210
0
220
0
230
1
100
AcDbArc
50
152.10957319411798
51
164.03366344060785
0
ARC
5
165
100
AcDbEntity
8
PERIMETER
100
AcDbCircle
10
-0.23747981723866118
20
-0.23805011655339778
30
0
40
0.0058323755696359052
210
-0
220
0
230
1
100
AcDbArc
50
-27.890426805882736
51
45.068714345431111
0
ARC
5
166
100
AcDbEntity
8
PERIMETER
100
AcDbCircle
10
1.7483827159451283e-16
20
-1.8308469647252933e-17
30
0
40
0.33041830708661418
210
0
220
0
230
1
100
AcDbArc
50
224.9312856545798
51
225.06871434541216
0
ARC
5
167
100
AcDbEntity
8
PERIMETER
100
AcDbCircle
10
-0.23805011655340169
20
-0.23747981723865719
30
0
40
0.0058323755696359286
210
0
220
-0
230
1
100
AcDbArc
50
44.93128565457949
51
117.89042680588129
0
ARC
5
168
100
AcDbEntity
8
PERIMETER
100
AcDbCircle
10
-0.41785419781361094
20
0.10224824721825573
30
0
40
0.37854330708662659
210
-0
220
0
230
1
100
AcDbArc
50
285.96633655939144
51
297.89042680588068
0
ARC
5
169
100
AcDbEntity
8
PERIMETER
100
AcDbCircle
10
1.7483827159451283e-16
20
-1.8308469647252933e-17
30
0
40
0.40854330708661435
210
0
220
0
230
1
100
AcDbArc
50
215.16719996816792
51
219.83280003183097
0
ARC
5
16A
100
AcDbEntity
8
PERIMETER
100
AcDbCircle
10
-0.00938440178931952
20
-0.43007995499989121
30
0
40
0.37854330708660744
210
0
220
0
230
1
100
AcDbArc
50
137.10957319411801
51
149.03366344060777
0
ARC
5
16B
100
AcDbEntity
8
PERIMETER
100
AcDbCircle
10
-0.29099979254612496
20
-0.1684744560012181
30
0
40
0.0058323755696358314
210
-0
220
0
230
1
100
AcDbArc
50
-42.890426805882925
51
30.068714345432713
0
ARC
5
16C
100
AcDbEntity
8
PERIMETER
100
AcDbCircle
10
1.7483827159451283e-16
20
-1.8308469647252933e-17
30
0
40
0.33041830708661413
210
0
220
0
230
1
100
AcDbArc
50
209.93128565457974
51
210.06871434542009
0
ARC
5
16D
100
AcDbEntity
8
PERIMETER
100
AcDbCircle
10
-0.29140305505888398
20
-0.16777598484033152
30
0
40
0.0058323755696359399
210
0
220
-0
230
1
100
AcDbArc
50
29.931285654580698
51
102.89042680588139
0
ARC
5
16E
100
AcDbEntity
8
PERIMETER
100
AcDbCircle
10
-0.37715236758303172
20
0.20691284715109448
30
0
40
0.37854330708662037
210
-0
220
0
230
1
100
AcDbArc
50
270.96633655939138
51
282.89042680588079
0
ARC
5
16F
100
AcDbEntity
8
PERIMETER
100
AcDbCircle
10
1.7483827159451283e-16
20
-1.8308469647252933e-17
30
0
40
0.40854330708661435
210
0
220
0
230
1
100
AcDbArc
50
200.16719996816789
51
204.832800031831
0
ARC
5
170
100
AcDbEntity
8
PERIMETER
100
AcDbCircle
10
-0.12037751932338087
20
-0.41299647399366934
30
0
40
0.37854330708661266
210
0
220
0
230
1
100
AcDbArc
50
122.10957319411806
51
134.03366344060768
0
ARC
5
171
100
AcDbEntity
8
PERIMETER
100
AcDbCircle
10
-0.32468861289146522
20
-0.08741753968975792
30
0
40
0.0058323755696359503
210
-0
220
0
230
1
100
AcDbArc
50
-57.890426805881987
51
15.068714345253827
0
ARC
5
172
100
AcDbEntity
8
PERIMETER
100
AcDbCircle
10
1.7483827159451283e-16
20
-1.8308469647252933e-17
30
0
40
0.33041830708661424
210
0
220
0
230
1
100
AcDbArc
50
194.93128565457974
51
195.06871434542006
0
ARC
5
173
100
AcDbEntity
8
PERIMETER
100
AcDbCircle
10
-0.32489735692842109
20
-0.086638496338061505
30
0
40
0.0058323755696358956
210
0
220
-0
230
1
100
AcDbArc
50
14.931285654579192
51
87.89042680588139
0
ARC
5
174
100
AcDbEntity
8
PERIMETER
100
AcDbCircle
10
-0.31074822677542957
20
0.29747667849022702
30
0
40
0.37854330708660516
210
0
220
0
230
1
100
AcDbArc
50
255.96633655939095
51
267.89042680588091
0
ARC
5
175
100
AcDbEntity
8
PERIMETER
100
AcDbCircle
10
1.7483827159451283e-16
20
-1.8308469647252933e-17
30
0
40
0.40854330708661424
210
0
220
0
230
1
100
AcDbArc
50
185.16719996816786
51
189.8328000318306
0
ARC
5
176
100
AcDbEntity
8
PERIMETER
100
AcDbCircle
10
-0.22316710784881286
20
-0.36776796579372384
30
0
40
0.37854330708661793
210
0
220
0
230
1
100
AcDbArc
50
107.10957319411807
51
119.03366344060751
0
ARC
5
177
100
AcDbEntity
8
PERIMETER
100
AcDbCircle
10
-0.3362504408415547
20
-0.00040326251275559096
30
0
40
0.0058323755696359321
210
-0
220
0
230
1
100
AcDbArc
50
-72.890426805882839
51
0.068714345472374164
0
ARC
5
178
100
AcDbEntity
8
PERIMETER
100
AcDbCircle
10
1.7483827159451283e-16
20
-1.8308469647252933e-17
30
0
40
0.33041830708661413
210
0
220
0
230
1
100
AcDbArc
50
179.93128565458068
51
180.06871434541401
0
ARC
5
179
100
AcDbEntity
8
PERIMETER
100
AcDbCircle
10
-0.3362504408415547
20
0.00040326251276256195
30
0
40
0.0058323755696359537
210
-0
220
0
230
1
100
AcDbArc
50
-0.068714345419331871
51
72.89042680588183
0
ARC
5
17A
100
AcDbEntity
8
PERIMETER
100
AcDbCircle
10
-0.22316710784880753
20
0.36776796579372312
30
0
40
0.37854330708661227
210
0
220
0
230
1
100
AcDbArc
50
240.96633655939115
51
252.89042680588074
0
ARC
5
17B
100
AcDbEntity
8
PERIMETER
100
AcDbCircle
10
1.7483827159451283e-16
20
-1.8308469647252933e-17
30
0
40
0.40854330708661463
210
0
220
0
230
1
100
AcDbArc
50
170.16719996816781
51
174.8328000318312
0
ARC
5
17C
100
AcDbEntity
8
PERIMETER
100
AcDbCircle
10
-0.31074822677543368
20
-0.29747667849023784
30
0
40
0.37854330708662465
210
0
220
0
230
1
100
AcDbArc
50
92.109573194118141
51
104.03366344060737
0
ARC
5
17D
100
AcDbEntity
8
PERIMETER
100
AcDbCircle
10
-0.3248973569284192
20
0.086638496338068235
30
0
40
0.0058323755696358445
210
-0
220
0
230
1
100
AcDbArc
50
272.10957319411699
51
345.06871434535361
0
ARC
5
17E
100
AcDbEntity
8
PERIMETER
100
AcDbCircle
10
1.7483827159451283e-16
20
-1.8308469647252933e-17
30
0
40
0.33041830708661418
210
0
220
0
230
1
100
AcDbArc
50
164.93128565457968
51
165.06871434542006
0
ARC
5
17F
100
AcDbEntity
8
PERIMETER
100
AcDbCircle
10
-0.32468861289146339
20
0.087417539689764664
30
0
40
0.0058323755696359459
210
-0
220
0
230
1
100
AcDbArc
50
-15.068714345419824
51
57.890426805880004
0
ARC
5
180
100
AcDbEntity
8
PERIMETER
100
AcDbCircle
10
-0.12037751932336976
20
0.41299647399367517
30
0
40
0.37854330708661732
210
0
220
0
230
1
100
AcDbArc
50
225.96633655939121
51
237.89042680588071
0
ARC
5
181
100
AcDbEntity
8
PERIMETER
100
AcDbCircle
10
1.7483827159451283e-16
20
-1.8308469647252933e-17
30
0
40
0.40854330708661424
210
0
220
0
230
1
100
AcDbArc
50
155.16719996816778
51
159.83280003183106
0
ARC
5
182
100
AcDbEntity
8
PERIMETER
100
AcDbCircle
10
-0.37715236758303522
20
-0.20691284715108077
30
0
40
0.37854330708661449
210
0
220
-0
230
1
100
AcDbArc
50
77.109573194117957
51
89.033663440607498
0
ARC
5
183
100
AcDbEntity
8
PERIMETER
100
AcDbCircle
10
-0.29140305505888048
20
0.16777598484033754
30
0
40
0.0058323755696358393
210
0
220
0
230
1
100
AcDbArc
50
257.10957319411722
51
330.06871434534617
0
ARC
5
184
100
AcDbEntity
8
PERIMETER
100
AcDbCircle
10
1.7483827159451283e-16
20
-1.8308469647252933e-17
30
0
40
0.33041830708661429
210
0
220
0
230
1
100
AcDbArc
50
149.93128565457963
51
150.06871434542262
0
ARC
5
185
100
AcDbEntity
8
PERIMETER
100
AcDbCircle
10
-0.29099979254612141
20
0.16847445600122413
30
0
40
0.0058323755696358557
210
-0
220
0
230
1
100
AcDbArc
50
-30.068714345420723
51
42.890426805879656
0
ARC
5
186
100
AcDbEntity
8
PERIMETER
100
AcDbCircle
10
-0.0093844017893030419
20
0.43007995499989715
30
0
40
0.37854330708661671
210
0
220
0
230
1
100
AcDbArc
50
210.96633655939121
51
222.89042680588062
0
ARC
5
187
100
AcDbEntity
8
PERIMETER
100
AcDbCircle
10
1.7483827159451283e-16
20
-1.8308469647252933e-17
30
0
40
0.40854330708661402
210
0
220
0
230
1
100
AcDbArc
50
140.16719996816775
51
144.83280003183083
0
ARC
5
188
100
AcDbEntity
8
PERIMETER
100
AcDbCircle
10
-0.41785419781361194
20
-0.1022482472182438
30
0
40
0.37854330708662398
210
0
220
-0
230
1
100
AcDbArc
50
62.109573194118077
51
74.033663440607313
0
ARC
5
189
100
AcDbEntity
8
PERIMETER
100
AcDbCircle
10
-0.23805011655339667
20
0.23747981723866213
30
0
40
0.005832375569635828
210
0
220
0
230
1
100
AcDbArc
50
242.10957319411671
51
315.06871434548526
0
ARC
5
18A
100
AcDbEntity
8
PERIMETER
100
AcDbCircle
10
3.528638448801936e-11
20
-3.5298947442475915e-11
30
0
40
0.33041830713652548
210
0
220
0
230
1
100
AcDbArc
50
134.93128565458849
51
135.06871434540764
0
ARC
5
18B
100
AcDbEntity
8
PERIMETER
100
AcDbCircle
10
-0.23747981723865613
20
0.23805011655340272
30
0
40
0.0058323755696358679
210
-0
220
0
230
1
100
AcDbArc
50
-45.068714345426301
51
27.890426805878857
0
ARC
5
18C
100
AcDbEntity
8
PERIMETER
100
AcDbCircle
10
0.10224824721825763
20
0.41785419781361105
30
0
40
0.37854330708662726
210
0
220
0
230
1
100
AcDbArc
50
195.96633655939132
51
207.89042680588045
0
ARC
5
18D
100
AcDbEntity
8
PERIMETER
100
AcDbCircle
10
1.7483827159451283e-16
20
-1.8308469647252933e-17
30
0
40
0.40854330708661418
210
0
220
0
230
1
100
AcDbArc
50
125.16719996816772
51
129.8328000318308
0
ARC
5
18E
100
AcDbEntity
8
PERIMETER
100
AcDbCircle
10
-0.43007995499988833
20
0.0093844017893250972
30
0
40
0.37854330708660255
210
0
220
-0
230
1
100
AcDbArc
50
47.109573194117722
51
59.033663440607619
0
ARC
5
18F
100
AcDbEntity
8
PERIMETER
100
AcDbCircle
10
-0.16847445600121685
20
0.29099979254612568
30
0
40
0.0058323755696359208
210
0
220
0
230
1
100
AcDbArc
50
227.10957319411568
51
300.06871434549765
0
ARC
5
190
100
AcDbEntity
8
PERIMETER
100
AcDbCircle
10
4.9776215520334359e-11
20
-8.6218058889439645e-11
30
0
40
0.33041830718616921
210
0
220
0
230
1
100
AcDbArc
50
119.9312856546002
51
120.06871434539545
0
ENDSEC
0
SECTION
2
OBJECTS
0
DICTIONARY
5
C
100
AcDbDictionary
3
ACAD_GROUP
350
D
3
ACAD_MLINESTYLE
350
17
0
DICTIONARY
5
D
100
AcDbDictionary
0
DICTIONARY
5
1A
330
C
100
AcDbDictionary
0
DICTIONARY
5
17
100
AcDbDictionary
0
ENDSEC
0
EOF
