0
SECTION
2
HEADER
9
$INSUNITS
70
1
9
$ACADVER
1
AC1014
9
$HANDSEED
5
FFFF
0
ENDSEC
0
SECTION
2
TABLES
0
TABLE
2
VPORT
5
8
100
AcDbSymbolTable
0
ENDTAB
0
TABLE
2
LTYPE
5
5
100
AcDbSymbolTable
70
2
0
LTYPE
5
14
100
AcDbSymbolTableRecord
100
AcDbLinetypeTableRecord
2
BYBLOCK
70
0
0
LTYPE
5
15
100
AcDbSymbolTableRecord
100
AcDbLinetypeTableRecord
2
BYLAYER
70
0
0
ENDTAB
0
TABLE
2
LAYER
5
2
100
AcDbSymbolTable
70
3
0
LAYER
5
50
100
AcDbSymbolTableRecord
100
AcDbLayerTableRecord
2
0
70
0
6
CONTINUOUS
0
LAYER
5
51
100
AcDbSymbolTableRecord
100
AcDbLayerTableRecord
2
CUTOUTS
70
0
62
1
6
CONTINUOUS
0
LAYER
5
52
100
AcDbSymbolTableRecord
100
AcDbLayerTableRecord
2
PERIMETER
70
0
62
5
6
CONTINUOUS
0
ENDTAB
0
TABLE
2
STYLE
5
3
100
AcDbSymbolTable
70
1
0
STYLE
5
11
100
AcDbSymbolTableRecord
100
AcDbTextStyleTableRecord
2
STANDARD
70
0
0
ENDTAB
0
TABLE
2
VIEW
5
6
100
AcDbSymbolTable
0
ENDTAB
0
TABLE
2
UCS
5
7
100
AcDbSymbolTable
0
ENDTAB
0
TABLE
2
APPID
5
9
100
AcDbSymbolTable
70
1
0
APPID
5
12
100
AcDbSymbolTableRecord
100
AcDbRegAppTableRecord
2
ACAD
70
0
0
ENDTAB
0
TABLE
2
DIMSTYLE
5
A
100
AcDbSymbolTable
0
ENDTAB
0
TABLE
2
BLOCK_RECORD
5
1
100
AcDbSymbolTable
70
2
0
BLOCK_RECORD
5
1F
100
AcDbSymbolTableRecord
100
AcDbBlockTableRecord
2
*MODEL_SPACE
0
BLOCK_RECORD
5
1B
100
AcDbSymbolTableRecord
100
AcDbBlockTableRecord
2
*PAPER_SPACE
0
ENDTAB
0
ENDSEC
0
SECTION
2
BLOCKS
0
BLOCK
5
20
100
AcDbEntity
100
AcDbBlockBegin
2
*MODEL_SPACE
0
ENDBLK
5
21
100
AcDbEntity
100
AcDbBlockEnd
0
BLOCK
5
1C
100
AcDbEntity
100
AcDbBlockBegin
2
*PAPER_SPACE
0
ENDBLK
5
1D
100
AcDbEntity
100
AcDbBlockEnd
0
ENDSEC
0
SECTION
2
ENTITIES
0
CIRCLE
5
100
100
AcDbEntity
8
CUTOUTS
100
AcDbCircle
10
8.7419135797256413e-17
20
4.3523175810642174e-18
30
2.1854783949314103e-17
40
0.037204724409448817
210
0
220
0
230
1
0
ARC
5
101
100
AcDbEntity
8
PERIMETER
100
AcDbCircle
10
-0.29140305505888398
20
-0.16777598484033152
30
0
40
0.0062260763570374167
210
0
220
-0
230
1
100
AcDbArc
50
29.931285654580467
51
102.89042680588166
0
ARC
5
102
100
AcDbEntity
8
PERIMETER
100
AcDbCircle
10
-0.37715236758303172
20
0.20691284715109448
30
0
40
0.37814960629921895
210
-0
220
0
230
1
100
AcDbArc
50
271.00518146771901
51
282.89042680588074
0
ARC
5
103
100
AcDbEntity
8
PERIMETER
100
AcDbCircle
10
1.7483827159451283e-16
20
-1.3956152066188716e-17
30
0
40
0.40814960629921265
210
0
220
0
230
1
100
AcDbArc
50
200.2031910557946
51
204.79680894420423
0
ARC
5
104
100
AcDbEntity
8
PERIMETER
100
AcDbCircle
10
-0.12037751932338087
20
-0.41299647399366934
30
0
40
0.37814960629921118
210
0
220
0
230
1
100
AcDbArc
50
122.10957319411806
51
133.99481853228014
0
ARC
5
105
100
AcDbEntity
8
PERIMETER
100
AcDbCircle
10
-0.32468861289146522
20
-0.08741753968975792
30
0
40
0.0062260763570374592
210
-0
220
0
230
1
100
AcDbArc
50
-57.890426805882292
51
15.068714345253291
0
ARC
5
106
100
AcDbEntity
8
PERIMETER
100
AcDbCircle
10
1.7483827159451283e-16
20
-1.3956152066188716e-17
30
0
40
0.33002460629921276
210
0
220
0
230
1
100
AcDbArc
50
194.93128565457974
51
195.06871434541739
0
ARC
5
107
100
AcDbEntity
8
PERIMETER
100
AcDbCircle
10
-0.32489735692842109
20
-0.086638496338061505
30
0
40
0.0062260763570373689
210
0
220
-0
230
1
100
AcDbArc
50
14.931285654579142
51
87.890426805881219
0
ARC
5
108
100
AcDbEntity
8
PERIMETER
100
AcDbCircle
10
-0.31074822677542957
20
0.29747667849022702
30
0
40
0.37814960629920369
210
0
220
0
230
1
100
AcDbArc
50
256.0051814677185
51
267.89042680588096
0
ARC
5
109
100
AcDbEntity
8
PERIMETER
100
AcDbCircle
10
1.7483827159451283e-16
20
-1.3956152066188716e-17
30
0
40
0.40814960629921265
210
0
220
0
230
1
100
AcDbArc
50
185.20319105579458
51
189.79680894420383
0
ARC
5
10A
100
AcDbEntity
8
PERIMETER
100
AcDbCircle
10
-0.22316710784881286
20
-0.36776796579372384
30
0
40
0.37814960629921662
210
0
220
0
230
1
100
AcDbArc
50
107.10957319411807
51
118.99481853227996
0
ARC
5
10B
100
AcDbEntity
8
PERIMETER
100
AcDbCircle
10
-0.3362504408415547
20
-0.00040326251275559096
30
0
40
0.006226076357037395
210
-0
220
0
230
1
100
AcDbArc
50
-72.890426805882385
51
0.068714345477678226
0
ARC
5
10C
100
AcDbEntity
8
PERIMETER
100
AcDbCircle
10
1.7483827159451283e-16
20
-1.3956152066188716e-17
30
0
40
0.33002460629921265
210
0
220
0
230
1
100
AcDbArc
50
179.93128565458068
51
180.06871434541932
0
ARC
5
10D
100
AcDbEntity
8
PERIMETER
100
AcDbCircle
10
-0.3362504408415547
20
0.00040326251276256195
30
0
40
0.0062260763570374323
210
-0
220
0
230
1
100
AcDbArc
50
-0.068714345414039424
51
72.890426805882441
0
ARC
5
10E
100
AcDbEntity
8
PERIMETER
100
AcDbCircle
10
-0.22316710784880753
20
0.36776796579372312
30
0
40
0.37814960629921079
210
0
220
0
230
1
100
AcDbArc
50
241.0051814677187
51
252.89042680588082
0
ARC
5
10F
100
AcDbEntity
8
PERIMETER
100
AcDbCircle
10
1.7483827159451283e-16
20
-1.3956152066188716e-17
30
0
40
0.4081496062992131
210
0
220
0
230
1
100
AcDbArc
50
170.20319105579452
51
174.79680894420423
0
ARC
5
110
100
AcDbEntity
8
PERIMETER
100
AcDbCircle
10
-0.31074822677543368
20
-0.29747667849023784
30
0
40
0.37814960629922317
210
0
220
0
230
1
100
AcDbArc
50
92.109573194118141
51
103.99481853227984
0
ARC
5
111
100
AcDbEntity
8
PERIMETER
100
AcDbCircle
10
-0.3248973569284192
20
0.086638496338068235
30
0
40
0.0062260763570373447
210
-0
220
0
230
1
100
AcDbArc
50
272.10957319411676
51
345.06871434535344
0
ARC
5
112
100
AcDbEntity
8
PERIMETER
100
AcDbCircle
10
1.7483827159451283e-16
20
-1.3956152066188716e-17
30
0
40
0.33002460629921276
210
0
220
0
230
1
100
AcDbArc
50
164.93128565457968
51
165.06871434541739
0
ARC
5
113
100
AcDbEntity
8
PERIMETER
100
AcDbCircle
10
-0.32468861289146339
20
0.087417539689764664
30
0
40
0.006226076357037388
210
-0
220
0
230
1
100
AcDbArc
50
-15.068714345420076
51
57.890426805880125
0
ARC
5
114
100
AcDbEntity
8
PERIMETER
100
AcDbCircle
10
-0.12037751932336976
20
0.41299647399367517
30
0
40
0.37814960629921562
210
0
220
0
230
1
100
AcDbArc
50
226.00518146771878
51
237.89042680588068
0
ARC
5
115
100
AcDbEntity
8
PERIMETER
100
AcDbCircle
10
1.7483827159451283e-16
20
-1.3956152066188716e-17
30
0
40
0.40814960629921265
210
0
220
0
230
1
100
AcDbArc
50
155.20319105579452
51
159.79680894420414
0
ARC
5
116
100
AcDbEntity
8
PERIMETER
100
AcDbCircle
10
-0.37715236758303522
20
-0.20691284715108077
30
0
40
0.37814960629921301
210
0
220
-0
230
1
100
AcDbArc
50
77.109573194117957
51
88.99481853227995
0
ARC
5
117
100
AcDbEntity
8
PERIMETER
100
AcDbCircle
10
-0.29140305505888048
20
0.16777598484033754
30
0
40
0.0062260763570373369
210
0
220
0
230
1
100
AcDbArc
50
257.10957319411659
51
330.068714345346
0
ARC
5
118
100
AcDbEntity
8
PERIMETER
100
AcDbCircle
10
1.7483827159451283e-16
20
-1.3956152066188716e-17
30
0
40
0.33002460629921271
210
0
220
0
230
1
100
AcDbArc
50
149.93128565457963
51
150.06871434541733
0
ARC
5
119
100
AcDbEntity
8
PERIMETER
100
AcDbCircle
10
-0.29099979254612141
20
0.16847445600122413
30
0
40
0.0062260763570373898
210
-0
220
0
230
1
100
AcDbArc
50
-30.068714345421082
51
42.890426805879649
0
ARC
5
11A
100
AcDbEntity
8
PERIMETER
100
AcDbCircle
10
-0.0093844017893030419
20
0.43007995499989715
30
0
40
0.37814960629921512
210
0
220
0
230
1
100
AcDbArc
50
211.00518146771873
51
222.89042680588071
0
ARC
5
11B
100
AcDbEntity
8
PERIMETER
100
AcDbCircle
10
1.7483827159451283e-16
20
-1.3956152066188716e-17
30
0
40
0.40814960629921254
210
0
220
0
230
1
100
AcDbArc
50
140.20319105579449
51
144.79680894420409
0
ARC
5
11C
100
AcDbEntity
8
PERIMETER
100
AcDbCircle
10
-0.41785419781361194
20
-0.1022482472182438
30
0
40
0.37814960629922234
210
0
220
-0
230
1
100
AcDbArc
50
62.10957319411807
51
73.994818532279695
0
ARC
5
11D
100
AcDbEntity
8
PERIMETER
100
AcDbCircle
10
-0.23805011655339667
20
0.23747981723866213
30
0
40
0.0062260763570374262
210
0
220
0
230
1
100
AcDbArc
50
242.10957319411665
51
315.06871434548594
0
ARC
5
11E
100
AcDbEntity
8
PERIMETER
100
AcDbCircle
10
3.528638448801936e-11
20
-3.5298947442475915e-11
30
0
40
0.33002460634912384
210
0
220
0
230
1
100
AcDbArc
50
134.93128565458852
51
135.06871434540764
0
ARC
5
11F
100
AcDbEntity
8
PERIMETER
100
AcDbCircle
10
-0.23747981723865613
20
0.23805011655340272
30
0
40
0.0062260763570374774
210
-0
220
0
230
1
100
AcDbArc
50
-45.06871434542564
51
27.890426805878885
0
ARC
5
120
100
AcDbEntity
8
PERIMETER
100
AcDbCircle
10
0.10224824721825763
20
0.41785419781361105
30
0
40
0.37814960629922584
210
0
220
0
230
1
100
AcDbArc
50
196.00518146771884
51
207.89042680588054
0
ARC
5
121
100
AcDbEntity
8
PERIMETER
100
AcDbCircle
10
1.7483827159451283e-16
20
-1.3956152066188716e-17
30
0
40
0.40814960629921271
210
0
220
0
230
1
100
AcDbArc
50
125.20319105579446
51
129.79680894420397
0
ARC
5
122
100
AcDbEntity
8
PERIMETER
100
AcDbCircle
10
-0.43007995499988833
20
0.0093844017893250972
30
0
40
0.37814960629920119
210
0
220
-0
230
1
100
AcDbArc
50
47.109573194117729
51
58.994818532280078
0
ARC
5
123
100
AcDbEntity
8
PERIMETER
100
AcDbCircle
10
-0.16847445600121685
20
0.29099979254612568
30
0
40
0.0062260763570373924
210
0
220
0
230
1
100
AcDbArc
50
227.10957319411582
51
300.06871434549754
0
ARC
5
124
100
AcDbEntity
8
PERIMETER
100
AcDbCircle
10
4.9776215520334359e-11
20
-8.6218058889439645e-11
30
0
40
0.33002460639876774
210
0
220
0
230
1
100
AcDbArc
50
119.9312856546002
51
120.06871434539811
0
ARC
5
125
100
AcDbEntity
8
PERIMETER
100
AcDbCircle
10
-0.16777598484033027
20
0.29140305505888475
30
0
40
0.0062260763570374071
210
-0
220
0
230
1
100
AcDbArc
50
-60.068714345430045
51
12.890426805880164
0
ARC
5
126
100
AcDbEntity
8
PERIMETER
100
AcDbCircle
10
0.20691284715109715
20
0.377152367583031
30
0
40
0.3781496062992184
210
0
220
0
230
1
100
AcDbArc
50
181.00518146771844
51
192.89042680588048
0
ARC
5
127
100
AcDbEntity
8
PERIMETER
100
AcDbCircle
10
1.7483827159451283e-16
20
-1.3956152066188716e-17
30
0
40
0.40814960629921282
210
0
220
0
230
1
100
AcDbArc
50
110.20319105579443
51
114.79680894420375
0
ARC
5
128
100
AcDbEntity
8
PERIMETER
100
AcDbCircle
10
-0.41299647399366646
20
0.12037751932338452
30
0
40
0.37814960629920824
210
0
220
-0
230
1
100
AcDbArc
50
32.109573194117786
51
43.994818532279879
0
ARC
5
129
100
AcDbEntity
8
PERIMETER
100
AcDbCircle
10
-0.087417539689756601
20
0.32468861289146567
30
0
40
0.0062260763570373299
210
0
220
0
230
1
100
AcDbArc
50
212.10957319411776
51
285.06871434548555
0
ARC
5
12A
100
AcDbEntity
8
PERIMETER
100
AcDbCircle
10
1.7483827159451283e-16
20
-1.3956152066188716e-17
30
0
40
0.33002460629921271
210
0
220
0
230
1
100
AcDbArc
50
104.93128565457954
51
105.06871434541455
0
ARC
5
12B
100
AcDbEntity
8
PERIMETER
100
AcDbCircle
10
-0.086638496338060172
20
0.32489735692842148
30
0
40
0.0062260763570373776
210
-0
220
0
230
1
100
AcDbArc
50
284.93128565457965
51
357.89042680588233
0
ARC
5
12C
100
AcDbEntity
8
PERIMETER
100
AcDbCircle
10
0.29747667849023518
20
0.3107482267754279
30
0
40
0.37814960629921124
210
0
220
0
230
1
100
AcDbArc
50
166.00518146771853
51
177.89042680588068
0
ARC
5
12D
100
AcDbEntity
8
PERIMETER
100
AcDbCircle
10
1.7483827159451283e-16
20
-1.3956152066188716e-17
30
0
40
0.40814960629921287
210
0
220
0
230
1
100
AcDbArc
50
95.203191055795202
51
99.796808944203804
0
ARC
5
12E
100
AcDbEntity
8
PERIMETER
100
AcDbCircle
10
-0.36776796579371829
20
0.22316710784881247
30
0
40
0.37814960629920807
210
0
220
-0
230
1
100
AcDbArc
50
17.109573194118539
51
28.994818532280689
0
ARC
5
12F
100
AcDbEntity
8
PERIMETER
100
AcDbCircle
10
-0.00040326251275890163
20
0.33625044084155487
30
0
40
0.0062260763570374297
210
0
220
0
230
1
100
AcDbArc
50
197.10957319411747
51
270.06871434547929
0
ARC
5
130
100
AcDbEntity
8
PERIMETER
100
AcDbCircle
10
1.7483827159451283e-16
20
-1.3956152066188716e-17
30
0
40
0.33002460629921265
210
0
220
-0
230
1
100
AcDbArc
50
89.931285654580293
51
90.068714345423288
0
ARC
5
131
100
AcDbEntity
8
PERIMETER
100
AcDbCircle
10
0.00040326251275925128
20
0.33625044084155487
30
0
40
0.0062260763570374323
210
0
220
0
230
1
100
AcDbArc
50
269.93128565458028
51
342.89042680588085
0
ARC
5
132
100
AcDbEntity
8
PERIMETER
100
AcDbCircle
10
0.36776796579372356
20
0.22316710784881066
30
0
40
0.37814960629921324
210
0
220
0
230
1
100
AcDbArc
50
151.00518146771941
51
162.89042680588145
0
ARC
5
133
100
AcDbEntity
8
PERIMETER
100
AcDbCircle
10
1.7483827159451283e-16
20
-1.3956152066188716e-17
30
0
40
0.40814960629921254
210
0
220
-0
230
1
100
AcDbArc
50
80.203191055795131
51
84.796808944204756
0
ARC
5
134
100
AcDbEntity
8
PERIMETER
100
AcDbCircle
10
-0.29747667849023696
20
0.31074822677543146
30
0
40
0.37814960629921912
210
0
220
-0
230
1
100
AcDbArc
50
2.1095731941184952
51
13.9948185322804
0
ARC
5
135
100
AcDbEntity
8
PERIMETER
100
AcDbCircle
10
0.086638496338065044
20
0.32489735692842026
30
0
40
0.006226076357037414
210
0
220
0
230
1
100
AcDbArc
50
182.10957319411764
51
255.06871434551357
0
ARC
5
136
100
AcDbEntity
8
PERIMETER
100
AcDbCircle
10
-2.550702431421978e-11
20
-9.5164096151251885e-11
30
0
40
0.33002460639773579
210
0
220
-0
230
1
100
AcDbArc
50
74.931285654599606
51
75.068714345392209
0
ARC
5
137
100
AcDbEntity
8
PERIMETER
100
AcDbCircle
10
0.087417539689761473
20
0.32468861289146445
30
0
40
0.0062260763570374279
210
0
220
0
230
1
100
AcDbArc
50
254.93128565457087
51
327.89042680587926
0
ARC
5
138
100
AcDbEntity
8
PERIMETER
100
AcDbCircle
10
0.4129964739936729
20
0.12037751932337543
30
0
40
0.37814960629921407
210
0
220
0
230
1
100
AcDbArc
50
136.00518146771941
51
147.89042680588136
0
ARC
5
139
100
AcDbEntity
8
PERIMETER
100
AcDbCircle
10
1.7483827159451283e-16
20
-1.3956152066188716e-17
30
0
40
0.40814960629921265
210
0
220
-0
230
1
100
AcDbArc
50
65.203191055795102
51
69.796808944204727
0
ARC
5
13A
100
AcDbEntity
8
PERIMETER
100
AcDbCircle
10
-0.2069128471510899
20
0.37715236758303383
30
0
40
0.37814960629921823
210
-0
220
0
230
1
100
AcDbArc
50
347.10957319411864
51
358.99481853228048
0
ARC
5
13B
100
AcDbEntity
8
PERIMETER
100
AcDbCircle
10
0.16777598484033468
20
0.29140305505888248
30
0
40
0.0062260763570374262
210
0
220
0
230
1
100
AcDbArc
50
167.10957319411884
51
240.06871434542342
0
ARC
5
13C
100
AcDbEntity
8
PERIMETER
100
AcDbCircle
10
-2.3972053563539703e-11
20
-4.1501815932538142e-11
30
0
40
0.33002460634714031
210
0
220
-0
230
1
100
AcDbArc
50
59.931285654588613
51
60.068714345407741
0
ARC
5
13D
100
AcDbEntity
8
PERIMETER
100
AcDbCircle
10
0.16847445600122127
20
0.2909997925461234
30
0
40
0.0062260763570374782
210
0
220
0
230
1
100
AcDbArc
50
239.93128565457602
51
312.89042680588204
0
ARC
5
13E
100
AcDbEntity
8
PERIMETER
100
AcDbCircle
10
0.43007995499989216
20
0.0093844017893140817
30
0
40
0.37814960629920674
210
0
220
0
230
1
100
AcDbArc
50
121.00518146771914
51
132.89042680588128
0
ARC
5
13F
100
AcDbEntity
8
PERIMETER
100
AcDbCircle
10
1.7483827159451283e-16
20
-1.3956152066188716e-17
30
0
40
0.40814960629921254
210
0
220
-0
230
1
100
AcDbArc
50
50.203191055795074
51
54.796808944204493
0
ARC
5
140
100
AcDbEntity
8
PERIMETER
100
AcDbCircle
10
-0.10224824721823622
20
0.4178541978136065
30
0
40
0.37814960629920985
210
-0
220
0
230
1
100
AcDbArc
50
332.10957319411841
51
343.99481853228053
0
ARC
5
141
100
AcDbEntity
8
PERIMETER
100
AcDbCircle
10
0.23747981723865985
20
0.23805011655339939
30
0
40
0.0062260763570374592
210
0
220
0
230
1
100
AcDbArc
50
152.10957319411884
51
225.06871434543231
0
ARC
5
142
100
AcDbEntity
8
PERIMETER
100
AcDbCircle
10
1.7483827159451283e-16
20
-1.3956152066188716e-17
30
0
40
0.33002460629921271
210
0
220
-0
230
1
100
AcDbArc
50
44.931285654580208
51
45.068714345423196
0
ARC
5
143
100
AcDbEntity
8
PERIMETER
100
AcDbCircle
10
0.23805011655340039
20
0.23747981723865885
30
0
40
0.006226076357037414
210
0
220
0
230
1
100
AcDbArc
50
224.9312856545796
51
297.89042680587983
0
ARC
5
144
100
AcDbEntity
8
PERIMETER
100
AcDbCircle
10
0.41785419781361044
20
-0.10224824721824967
30
0
40
0.37814960629922251
210
0
220
0
230
1
100
AcDbArc
50
106.00518146771942
51
117.89042680588105
0
ARC
5
145
100
AcDbEntity
8
PERIMETER
100
AcDbCircle
10
1.7483827159451283e-16
20
-1.3956152066188716e-17
30
0
40
0.40814960629921238
210
0
220
-0
230
1
100
AcDbArc
50
35.203191055795045
51
39.796808944204678
0
ARC
5
146
100
AcDbEntity
8
PERIMETER
100
AcDbCircle
10
0.0093844017893053144
20
0.43007995499989987
30
0
40
0.37814960629922018
210
-0
220
0
230
1
100
AcDbArc
50
317.1095731941187
51
328.99481853228031
0
ARC
5
147
100
AcDbEntity
8
PERIMETER
100
AcDbCircle
10
0.29099979254612413
20
0.16847445600122005
30
0
40
0.0062260763570374253
210
0
220
0
230
1
100
AcDbArc
50
137.10957319411636
51
210.06871434546977
0
ARC
5
148
100
AcDbEntity
8
PERIMETER
100
AcDbCircle
10
1.7483827159451283e-16
20
-1.3956152066188716e-17
30
0
40
0.33002460629921276
210
0
220
-0
230
1
100
AcDbArc
50
29.931285654580165
51
30.06871434541786
0
ARC
5
149
100
AcDbEntity
8
PERIMETER
100
AcDbCircle
10
0.2914030550588832
20
0.16777598484033346
30
0
40
0.0062260763570373898
210
0
220
0
230
1
100
AcDbArc
50
209.93128565458068
51
282.89042680587966
0
ARC
5
14A
100
AcDbEntity
8
PERIMETER
100
AcDbCircle
10
0.37715236758303355
20
-0.20691284715109318
30
0
40
0.37814960629921907
210
0
220
0
230
1
100
AcDbArc
50
91.005181467719282
51
102.89042680588106
0
ARC
5
14B
100
AcDbEntity
8
PERIMETER
100
AcDbCircle
10
1.7483827159451283e-16
20
-1.3956152066188716e-17
30
0
40
0.40814960629921271
210
0
220
-0
230
1
100
AcDbArc
50
20.203191055794996
51
24.796808944204415
0
ARC
5
14C
100
AcDbEntity
8
PERIMETER
100
AcDbCircle
10
0.12037751932338148
20
0.41299647399366662
30
0
40
0.37814960629920652
210
-0
220
0
230
1
100
AcDbArc
50
302.10957319411835
51
313.99481853228059
0
ARC
5
14D
100
AcDbEntity
8
PERIMETER
100
AcDbCircle
10
0.32468861289146494
20
0.08741753968976014
30
0
40
0.0062260763570374184
210
0
220
0
230
1
100
AcDbArc
50
122.10957319411855
51
195.06871434534611
0
ARC
5
14E
100
AcDbEntity
8
PERIMETER
100
AcDbCircle
10
1.7483827159451283e-16
20
-1.3956152066188716e-17
30
0
40
0.33002460629921282
210
0
220
-0
230
1
100
AcDbArc
50
14.93128565458013
51
15.068714345417836
0
ARC
5
14F
100
AcDbEntity
8
PERIMETER
100
AcDbCircle
10
0.32489735692842081
20
0.086638496338063711
30
0
40
0.0062260763570373134
210
0
220
0
230
1
100
AcDbArc
50
194.93128565458036
51
267.89042680588068
0
ARC
5
150
100
AcDbEntity
8
PERIMETER
100
AcDbCircle
10
0.31074822677542979
20
-0.29747667849024195
30
0
40
0.37814960629922295
210
0
220
-0
230
1
100
AcDbArc
50
76.005181467719339
51
87.890426805881049
0
ARC
5
151
100
AcDbEntity
8
PERIMETER
100
AcDbCircle
10
1.7483827159451283e-16
20
-1.3956152066188716e-17
30
0
40
0.40814960629921282
210
0
220
-0
230
1
100
AcDbArc
50
5.2031910557949397
51
9.7968089442045017
0
ARC
5
152
100
AcDbEntity
8
PERIMETER
100
AcDbCircle
10
0.223167107848809
20
0.36776796579372861
30
0
40
0.37814960629922023
210
-0
220
0
230
1
100
AcDbArc
50
287.10957319411858
51
298.99481853228036
0
ARC
5
153
100
AcDbEntity
8
PERIMETER
100
AcDbCircle
10
0.33625044084155509
20
0.00040326251275786589
30
0
40
0.0062260763570373594
210
0
220
0
230
1
100
AcDbArc
50
107.10957319411773
51
180.06871434547767
0
ARC
5
154
100
AcDbEntity
8
PERIMETER
100
AcDbCircle
10
1.7483827159451283e-16
20
-1.3956152066188716e-17
30
0
40
0.33002460629921265
210
-0
220
0
230
1
100
AcDbArc
50
-0.068714345419331871
51
0.068714345419333592
0
ARC
5
155
100
AcDbEntity
8
PERIMETER
100
AcDbCircle
10
0.33625044084155509
20
-0.00040326251276028707
30
0
40
0.0062260763570374323
210
0
220
0
230
1
100
AcDbArc
50
179.93128565458599
51
252.89042680588193
0
ARC
5
156
100
AcDbEntity
8
PERIMETER
100
AcDbCircle
10
0.22316710784881155
20
-0.36776796579371873
30
0
40
0.37814960629920724
210
0
220
-0
230
1
100
AcDbArc
50
61.005181467719041
51
72.890426805881233
0
ARC
5
157
100
AcDbEntity
8
PERIMETER
100
AcDbCircle
10
1.7483827159451283e-16
20
-1.3956152066188716e-17
30
0
40
0.40814960629921282
210
-0
220
0
230
1
100
AcDbArc
50
350.20319105579495
51
354.79680894420454
0
ARC
5
158
100
AcDbEntity
8
PERIMETER
100
AcDbCircle
10
0.31074822677543484
20
0.29747667849021947
30
0
40
0.37814960629920252
210
-0
220
0
230
1
100
AcDbArc
50
272.10957319411818
51
283.99481853228059
0
ARC
5
159
100
AcDbEntity
8
PERIMETER
100
AcDbCircle
10
0.32489735692842026
20
-0.086638496338066057
30
0
40
0.0062260763570373915
210
0
220
0
230
1
100
AcDbArc
50
92.109573194117772
51
165.06871434552227
0
ARC
5
15A
100
AcDbEntity
8
PERIMETER
100
AcDbCircle
10
1.7483827159451283e-16
20
-1.3956152066188716e-17
30
0
40
0.33002460629921282
210
-0
220
0
230
1
100
AcDbArc
50
344.93128565458011
51
345.06871434541506
0
ARC
5
15B
100
AcDbEntity
8
PERIMETER
100
AcDbCircle
10
0.32468861289146439
20
-0.087417539689762486
30
0
40
0.0062260763570374201
210
0
220
0
230
1
100
AcDbArc
50
164.93128565458042
51
237.89042680588025
0
ARC
5
15C
100
AcDbEntity
8
PERIMETER
100
AcDbCircle
10
0.12037751932336881
20
-0.4129964739936805
30
0
40
0.37814960629922195
210
0
220
-0
230
1
100
AcDbArc
50
46.005181467719268
51
57.890426805881013
0
ARC
5
15D
100
AcDbEntity
8
PERIMETER
100
AcDbCircle
10
1.7483827159451283e-16
20
-1.3956152066188716e-17
30
0
40
0.40814960629921271
210
-0
220
0
230
1
100
AcDbArc
50
335.20319105579489
51
339.79680894420443
0
ARC
5
15E
100
AcDbEntity
8
PERIMETER
100
AcDbCircle
10
0.37715236758303344
20
0.20691284715107827
30
0
40
0.37814960629920785
210
0
220
0
230
1
100
AcDbArc
50
257.10957319411835
51
268.99481853228042
0
ARC
5
15F
100
AcDbEntity
8
PERIMETER
100
AcDbCircle
10
0.29140305505888209
20
-0.16777598484033557
30
0
40
0.0062260763570373785
210
0
220
-0
230
1
100
AcDbArc
50
77.109573194117189
51
150.06871434542344
0
ARC
5
160
100
AcDbEntity
8
PERIMETER
100
AcDbCircle
10
1.7483827159451283e-16
20
-1.3956152066188716e-17
30
0
40
0.33002460629921276
210
-0
220
0
230
1
100
AcDbArc
50
329.93128565458005
51
330.06871434541506
0
ARC
5
161
100
AcDbEntity
8
PERIMETER
100
AcDbCircle
10
0.29099979254612296
20
-0.16847445600122216
30
0
40
0.006226076357037362
210
0
220
0
230
1
100
AcDbArc
50
149.93128565458031
51
222.89042680588508
0
ARC
5
162
100
AcDbEntity
8
PERIMETER
100
AcDbCircle
10
0.0093844017893059267
20
-0.4300799549998976
30
0
40
0.37814960629921518
210
0
220
-0
230
1
100
AcDbArc
50
31.005181467719144
51
42.890426805880992
0
ARC
5
163
100
AcDbEntity
8
PERIMETER
100
AcDbCircle
10
1.7483827159451283e-16
20
-1.3956152066188716e-17
30
0
40
0.40814960629921254
210
-0
220
0
230
1
100
AcDbArc
50
320.20319105579483
51
324.79680894420443
0
ARC
5
164
100
AcDbEntity
8
PERIMETER
100
AcDbCircle
10
0.417854197813608
20
0.10224824721823764
30
0
40
0.37814960629921285
210
0
220
0
230
1
100
AcDbArc
50
242.10957319411827
51
253.99481853228031
0
ARC
5
165
100
AcDbEntity
8
PERIMETER
100
AcDbCircle
10
0.23805011655339869
20
-0.23747981723866055
30
0
40
0.0062260763570373846
210
0
220
-0
230
1
100
AcDbArc
50
62.109573194117566
51
135.06871434537706
0
ARC
5
166
100
AcDbEntity
8
PERIMETER
100
AcDbCircle
10
1.7483827159451283e-16
20
-1.3956152066188716e-17
30
0
40
0.33002460629921276
210
-0
220
0
230
1
100
AcDbArc
50
314.93128565457999
51
315.06871434541773
0
ARC
5
167
100
AcDbEntity
8
PERIMETER
100
AcDbCircle
10
0.23747981723865816
20
-0.23805011655340108
30
0
40
0.0062260763570373525
210
0
220
0
230
1
100
AcDbArc
50
134.9312856545796
51
207.89042680588392
0
ARC
5
168
100
AcDbEntity
8
PERIMETER
100
AcDbCircle
10
-0.10224824721824352
20
-0.41785419781360711
30
0
40
0.37814960629921374
210
0
220
-0
230
1
100
AcDbArc
50
16.005181467719019
51
27.890426805880967
0
ARC
5
169
100
AcDbEntity
8
PERIMETER
100
AcDbCircle
10
1.7483827159451283e-16
20
-1.3956152066188716e-17
30
0
40
0.40814960629921254
210
-0
220
0
230
1
100
AcDbArc
50
305.20319105579483
51
309.79680894420437
0
ARC
5
16A
100
AcDbEntity
8
PERIMETER
100
AcDbCircle
10
0.43007995499989549
20
-0.0093844017893128066
30
0
40
0.37814960629921268
210
0
220
0
230
1
100
AcDbArc
50
227.1095731941183
51
238.99481853228028
0
ARC
5
16B
100
AcDbEntity
8
PERIMETER
100
AcDbCircle
10
0.16847445600121921
20
-0.29099979254612462
30
0
40
0.0062260763570373854
210
0
220
-0
230
1
100
AcDbArc
50
47.109573194117992
51
120.06871434546865
0
ARC
5
16C
100
AcDbEntity
8
PERIMETER
100
AcDbCircle
10
-4.4458662473274894e-11
20
7.7021966282307974e-11
30
0
40
0.33002460638814513
210
-0
220
0
230
1
100
AcDbArc
50
299.93128565459716
51
300.06871434539505
0
ARC
5
16D
100
AcDbEntity
8
PERIMETER
100
AcDbCircle
10
0.16777598484033263
20
-0.2914030550588837
30
0
40
0.0062260763570374461
210
0
220
0
230
1
100
AcDbArc
50
119.93128565457106
51
192.89042680588051
0
ARC
5
16E
100
AcDbEntity
8
PERIMETER
100
AcDbCircle
10
-0.20691284715108407
20
-0.37715236758303128
30
0
40
0.37814960629920996
210
0
220
-0
230
1
100
AcDbArc
50
1.005181467718786
51
12.890426805881049
0
ARC
5
16F
100
AcDbEntity
8
PERIMETER
100
AcDbCircle
10
1.7483827159451283e-16
20
-1.3956152066188716e-17
30
0
40
0.40814960629921271
210
-0
220
0
230
1
100
AcDbArc
50
290.20319105579483
51
294.79680894420443
0
ARC
5
170
100
AcDbEntity
8
PERIMETER
100
AcDbCircle
10
0.41299647399366679
20
-0.12037751932338224
30
0
40
0.37814960629920719
210
0
220
0
230
1
100
AcDbArc
50
212.10957319411824
51
223.99481853228028
0
ARC
5
171
100
AcDbEntity
8
PERIMETER
100
AcDbCircle
10
0.087417539689759211
20
-0.32468861289146506
30
0
40
0.0062260763570374227
210
0
220
-0
230
1
100
AcDbArc
50
32.109573194116841
51
105.06871434554354
0
ARC
5
172
100
AcDbEntity
8
PERIMETER
100
AcDbCircle
10
-4.4458662473274894e-11
20
7.7021966282307974e-11
30
0
40
0.33002460638508946
210
-0
220
0
230
1
100
AcDbArc
50
284.93128565863111
51
285.06871434939188
0
ARC
5
173
100
AcDbEntity
8
PERIMETER
100
AcDbCircle
10
0.086638496338062768
20
-0.32489735692842092
30
0
40
0.0062260763570373585
210
0
220
0
230
1
100
AcDbArc
50
104.93128565253076
51
177.89042680588273
0
ARC
5
174
100
AcDbEntity
8
PERIMETER
100
AcDbCircle
10
-0.29747667849024212
20
-0.31074822677542863
30
0
40
0.37814960629922245
210
-0
220
0
230
1
100
AcDbArc
50
346.00518146771918
51
357.89042680588079
0
ARC
5
175
100
AcDbEntity
8
PERIMETER
100
AcDbCircle
10
1.7483827159451283e-16
20
-1.3956152066188716e-17
30
0
40
0.40814960629921254
210
-0
220
0
230
1
100
AcDbArc
50
275.20319105579517
51
279.79680894420443
0
ARC
5
176
100
AcDbEntity
8
PERIMETER
100
AcDbCircle
10
0.36776796579372023
20
-0.22316710784881208
30
0
40
0.3781496062992098
210
0
220
0
230
1
100
AcDbArc
50
197.10957319411852
51
208.99481853228056
0
ARC
5
177
100
AcDbEntity
8
PERIMETER
100
AcDbCircle
10
0.00040326251275925128
20
-0.33625044084155492
30
0
40
0.0062260763570374167
210
0
220
-0
230
1
100
AcDbArc
50
17.109573194117026
51
90.068714345496176
0
ARC
5
178
100
AcDbEntity
8
PERIMETER
100
AcDbCircle
10
1.7483827159451283e-16
20
-1.3956152066188716e-17
30
0
40
0.33002460629921271
210
0
220
0
230
1
100
AcDbArc
50
269.93128565458028
51
270.06871434541802
0
ARC
5
179
100
AcDbEntity
8
PERIMETER
100
AcDbCircle
10
-0.00040326251275890163
20
-0.33625044084155492
30
0
40
0.0062260763570374323
210
0
220
-0
230
1
100
AcDbArc
50
89.931285654580336
51
162.8904268058825
0
ARC
5
17A
100
AcDbEntity
8
PERIMETER
100
AcDbCircle
10
-0.36776796579372945
20
-0.22316710784880814
30
0
40
0.3781496062992199
210
-0
220
0
230
1
100
AcDbArc
50
331.00518146771952
51
342.89042680588125
0
ARC
5
17B
100
AcDbEntity
8
PERIMETER
100
AcDbCircle
10
1.7483827159451283e-16
20
-1.3956152066188716e-17
30
0
40
0.40814960629921265
210
0
220
0
230
1
100
AcDbArc
50
260.20319105579472
51
264.79680894420488
0
ARC
5
17C
100
AcDbEntity
8
PERIMETER
100
AcDbCircle
10
0.29747667849022646
20
-0.31074822677543451
30
0
40
0.37814960629921046
210
0
220
0
230
1
100
AcDbArc
50
182.10957319411816
51
193.99481853228016
0
ARC
5
17D
100
AcDbEntity
8
PERIMETER
100
AcDbCircle
10
-0.086638496338066973
20
-0.3248973569284197
30
0
40
0.0062260763570373655
210
0
220
-0
230
1
100
AcDbArc
50
2.1095731941160762
51
75.068714345482931
0
ARC
5
17E
100
AcDbEntity
8
PERIMETER
100
AcDbCircle
10
5.9375383000471852e-11
20
1.0285777396626124e-10
30
0
40
0.33002460641396991
210
0
220
0
230
1
100
AcDbArc
50
254.93128564921741
51
255.06871434006044
0
ARC
5
17F
100
AcDbEntity
8
PERIMETER
100
AcDbCircle
10
-0.087417539689763402
20
-0.32468861289146383
30
0
40
0.0062260763570374678
210
0
220
-0
230
1
100
AcDbArc
50
74.931285657292463
51
147.89042680587991
0
ARC
5
180
100
AcDbEntity
8
PERIMETER
100
AcDbCircle
10
-0.41299647399367179
20
-0.12037751932337416
30
0
40
0.37814960629921135
210
-0
220
0
230
1
100
AcDbArc
50
316.0051814677189
51
327.89042680588096
0
ARC
5
181
100
AcDbEntity
8
PERIMETER
100
AcDbCircle
10
1.7483827159451283e-16
20
-1.3956152066188716e-17
30
0
40
0.40814960629921282
210
0
220
0
230
1
100
AcDbArc
50
245.20319105579472
51
249.79680894420423
0
ARC
5
182
100
AcDbEntity
8
PERIMETER
100
AcDbCircle
10
0.20691284715108726
20
-0.37715236758303522
30
0
40
0.37814960629921796
210
0
220
0
230
1
100
AcDbArc
50
167.10957319411827
51
178.99481853228014
0
ARC
5
183
100
AcDbEntity
8
PERIMETER
100
AcDbCircle
10
-0.16777598484033637
20
-0.29140305505888131
30
0
40
0.0062260763570374461
210
-0
220
0
230
1
100
AcDbArc
50
-12.890426805882145
51
60.068714345309026
0
ARC
5
184
100
AcDbEntity
8
PERIMETER
100
AcDbCircle
10
5.9375383000471852e-11
20
1.0285777396626124e-10
30
0
40
0.33002460641797771
210
0
220
0
230
1
100
AcDbArc
50
239.93128565460631
51
240.06871434539889
0
ARC
5
185
100
AcDbEntity
8
PERIMETER
100
AcDbCircle
10
-0.16847445600122296
20
-0.29099979254612224
30
0
40
0.0062260763570374253
210
0
220
-0
230
1
100
AcDbArc
50
59.931285654566381
51
132.89042680587914
0
ARC
5
186
100
AcDbEntity
8
PERIMETER
100
AcDbCircle
10
-0.43007995499989943
20
-0.009384401789301092
30
0
40
0.37814960629921984
210
-0
220
0
230
1
100
AcDbArc
50
301.00518146771896
51
312.89042680588074
0
ARC
5
187
100
AcDbEntity
8
PERIMETER
100
AcDbCircle
10
1.7483827159451283e-16
20
-1.3956152066188716e-17
30
0
40
0.40814960629921265
210
0
220
0
230
1
100
AcDbArc
50
230.20319105579469
51
234.7968089442042
0
ARC
5
188
100
AcDbEntity
8
PERIMETER
100
AcDbCircle
10
0.10224824721822634
20
-0.41785419781360389
30
0
40
0.3781496062992018
210
0
220
0
230
1
100
AcDbArc
50
152.10957319411798
51
163.99481853228028
0
ARC
5
189
100
AcDbEntity
8
PERIMETER
100
AcDbCircle
10
-0.23747981723866118
20
-0.23805011655339778
30
0
40
0.0062260763570374236
210
-0
220
0
230
1
100
AcDbArc
50
-27.890426805882178
51
45.068714345431232
0
ARC
5
18A
100
AcDbEntity
8
PERIMETER
100
AcDbCircle
10
1.7483827159451283e-16
20
-1.3956152066188716e-17
30
0
40
0.33002460629921271
210
0
220
0
230
1
100
AcDbArc
50
224.9312856545798
51
225.0687143454148
0
ARC
5
18B
100
AcDbEntity
8
PERIMETER
100
AcDbCircle
10
-0.23805011655340169
20
-0.23747981723865719
30
0
40
0.006226076357037414
210
0
220
-0
230
1
100
AcDbArc
50
44.931285654579789
51
117.89042680588118
0
ARC
5
18C
100
AcDbEntity
8
PERIMETER
100
AcDbCircle
10
-0.41785419781361094
20
0.10224824721825573
30
0
40
0.37814960629922517
210
-0
220
0
230
1
100
AcDbArc
50
286.00518146771896
51
297.89042680588068
0
ARC
5
18D
100
AcDbEntity
8
PERIMETER
100
AcDbCircle
10
1.7483827159451283e-16
20
-1.3956152066188716e-17
30
0
40
0.40814960629921282
210
0
220
0
230
1
100
AcDbArc
50
215.20319105579466
51
219.79680894420414
0
ARC
5
18E
100
AcDbEntity
8
PERIMETER
100
AcDbCircle
10
-0.00938440178931952
20
-0.43007995499989121
30
0
40
0.37814960629920585
210
0
220
0
230
1
100
AcDbArc
50
137.10957319411801
51
148.99481853228028
0
ARC
5
18F
100
AcDbEntity
8
PERIMETER
100
AcDbCircle
10
-0.29099979254612496
20
-0.1684744560012181
30
0
40
0.0062260763570373976
210
-0
220
0
230
1
100
AcDbArc
50
-42.890426805882925
51
30.06871434543293
0
ARC
5
190
100
AcDbEntity
8
PERIMETER
100
AcDbCircle
10
1.7483827159451283e-16
20
-1.3956152066188716e-17
30
0
40
0.33002460629921265
210
0
220
0
230
1
100
AcDbArc
50
209.93128565457974
51
210.06871434541745
0
ENDSEC
0
SECTION
2
OBJECTS
0
DICTIONARY
5
C
100
AcDbDictionary
3
ACAD_GROUP
350
D
3
ACAD_MLINESTYLE
350
17
0
DICTIONARY
5
D
100
AcDbDictionary
0
DICTIONARY
5
1A
330
C
100
AcDbDictionary
0
DICTIONARY
5
17
100
AcDbDictionary
0
ENDSEC
0
EOF
