0
SECTION
2
HEADER
9
$INSUNITS
70
1
9
$ACADVER
1
AC1014
9
$HANDSEED
5
FFFF
0
ENDSEC
0
SECTION
2
TABLES
0
TABLE
2
VPORT
5
8
100
AcDbSymbolTable
0
ENDTAB
0
TABLE
2
LTYPE
5
5
100
AcDbSymbolTable
70
2
0
LTYPE
5
14
100
AcDbSymbolTableRecord
100
AcDbLinetypeTableRecord
2
BYBLOCK
70
0
0
LTYPE
5
15
100
AcDbSymbolTableRecord
100
AcDbLinetypeTableRecord
2
BYLAYER
70
0
0
ENDTAB
0
TABLE
2
LAYER
5
2
100
AcDbSymbolTable
70
3
0
LAYER
5
50
100
AcDbSymbolTableRecord
100
AcDbLayerTableRecord
2
0
70
0
6
CONTINUOUS
0
LAYER
5
51
100
AcDbSymbolTableRecord
100
AcDbLayerTableRecord
2
CUTOUTS
70
0
62
1
6
CONTINUOUS
0
LAYER
5
52
100
AcDbSymbolTableRecord
100
AcDbLayerTableRecord
2
PERIMETER
70
0
62
5
6
CONTINUOUS
0
ENDTAB
0
TABLE
2
STYLE
5
3
100
AcDbSymbolTable
70
1
0
STYLE
5
11
100
AcDbSymbolTableRecord
100
AcDbTextStyleTableRecord
2
STANDARD
70
0
0
ENDTAB
0
TABLE
2
VIEW
5
6
100
AcDbSymbolTable
0
ENDTAB
0
TABLE
2
UCS
5
7
100
AcDbSymbolTable
0
ENDTAB
0
TABLE
2
APPID
5
9
100
AcDbSymbolTable
70
1
0
APPID
5
12
100
AcDbSymbolTableRecord
100
AcDbRegAppTableRecord
2
ACAD
70
0
0
ENDTAB
0
TABLE
2
DIMSTYLE
5
A
100
AcDbSymbolTable
0
ENDTAB
0
TABLE
2
BLOCK_RECORD
5
1
100
AcDbSymbolTable
70
2
0
BLOCK_RECORD
5
1F
100
AcDbSymbolTableRecord
100
AcDbBlockTableRecord
2
*MODEL_SPACE
0
BLOCK_RECORD
5
1B
100
AcDbSymbolTableRecord
100
AcDbBlockTableRecord
2
*PAPER_SPACE
0
ENDTAB
0
ENDSEC
0
SECTION
2
BLOCKS
0
BLOCK
5
20
100
AcDbEntity
100
AcDbBlockBegin
2
*MODEL_SPACE
0
ENDBLK
5
21
100
AcDbEntity
100
AcDbBlockEnd
0
BLOCK
5
1C
100
AcDbEntity
100
AcDbBlockBegin
2
*PAPER_SPACE
0
ENDBLK
5
1D
100
AcDbEntity
100
AcDbBlockEnd
0
ENDSEC
0
SECTION
2
ENTITIES
0
CIRCLE
5
100
100
AcDbEntity
8
CUTOUTS
100
AcDbCircle
10
8.7419135797256413e-17
20
4.3523175810642174e-18
30
2.1854783949314103e-17
40
0.036614173228346453
210
0
220
0
230
1
0
ARC
5
101
100
AcDbEntity
8
PERIMETER
100
AcDbCircle
10
1.7483827159451283e-16
20
-1.3956152066188716e-17
30
0
40
0.33061515748031495
210
0
220
0
230
1
100
AcDbArc
50
104.93128565457954
51
105.06871434541725
0
ARC
5
102
100
AcDbEntity
8
PERIMETER
100
AcDbCircle
10
-0.087417539689756601
20
0.32468861289146567
30
0
40
0.0056355251759350614
210
0
220
0
230
1
100
AcDbArc
50
212.10957319411747
51
285.06871434548549
0
ARC
5
103
100
AcDbEntity
8
PERIMETER
100
AcDbCircle
10
-0.41299647399366646
20
0.12037751932338452
30
0
40
0.37874015748031054
210
0
220
-0
230
1
100
AcDbArc
50
32.1095731941178
51
44.053049985116971
0
ARC
5
104
100
AcDbEntity
8
PERIMETER
100
AcDbCircle
10
1.7483827159451283e-16
20
-1.3956152066188716e-17
30
0
40
0.40874015748031528
210
0
220
0
230
1
100
AcDbArc
50
110.14923666638984
51
114.8507633336083
0
ARC
5
105
100
AcDbEntity
8
PERIMETER
100
AcDbCircle
10
0.20691284715109715
20
0.377152367583031
30
0
40
0.3787401574803208
210
0
220
0
230
1
100
AcDbArc
50
180.94695001488148
51
192.89042680588042
0
ARC
5
106
100
AcDbEntity
8
PERIMETER
100
AcDbCircle
10
-0.16777598484033027
20
0.29140305505888475
30
0
40
0.0056355251759350336
210
-0
220
0
230
1
100
AcDbArc
50
-60.068714345433307
51
12.890426805880219
0
ARC
5
107
100
AcDbEntity
8
PERIMETER
100
AcDbCircle
10
4.9776215520334359e-11
20
-8.6218058889439645e-11
30
0
40
0.33061515757987003
210
0
220
0
230
1
100
AcDbArc
50
119.9312856546002
51
120.06871434539811
0
ARC
5
108
100
AcDbEntity
8
PERIMETER
100
AcDbCircle
10
-0.16847445600121685
20
0.29099979254612568
30
0
40
0.0056355251759351204
210
0
220
0
230
1
100
AcDbArc
50
227.10957319411571
51
300.06871434549754
0
ARC
5
109
100
AcDbEntity
8
PERIMETER
100
AcDbCircle
10
-0.43007995499988833
20
0.0093844017893250972
30
0
40
0.37874015748030349
210
0
220
-0
230
1
100
AcDbArc
50
47.109573194117729
51
59.05304998511707
0
ARC
5
10A
100
AcDbEntity
8
PERIMETER
100
AcDbCircle
10
1.7483827159451283e-16
20
-1.3956152066188716e-17
30
0
40
0.40874015748031495
210
0
220
0
230
1
100
AcDbArc
50
125.14923666638985
51
129.85076333360848
0
ARC
5
10B
100
AcDbEntity
8
PERIMETER
100
AcDbCircle
10
0.10224824721825763
20
0.41785419781361105
30
0
40
0.37874015748032808
210
0
220
0
230
1
100
AcDbArc
50
195.94695001488185
51
207.89042680588045
0
ARC
5
10C
100
AcDbEntity
8
PERIMETER
100
AcDbCircle
10
-0.23747981723865613
20
0.23805011655340272
30
0
40
0.00563552517593511
210
-0
220
0
230
1
100
AcDbArc
50
-45.068714345426862
51
27.89042680587913
0
ARC
5
10D
100
AcDbEntity
8
PERIMETER
100
AcDbCircle
10
3.528638448801936e-11
20
-3.5298947442475915e-11
30
0
40
0.33061515753022624
210
0
220
0
230
1
100
AcDbArc
50
134.93128565458849
51
135.06871434540236
0
ARC
5
10E
100
AcDbEntity
8
PERIMETER
100
AcDbCircle
10
-0.23805011655339667
20
0.23747981723866213
30
0
40
0.0056355251759349981
210
0
220
0
230
1
100
AcDbArc
50
242.10957319411671
51
315.06871434548515
0
ARC
5
10F
100
AcDbEntity
8
PERIMETER
100
AcDbCircle
10
-0.41785419781361194
20
-0.1022482472182438
30
0
40
0.37874015748032475
210
0
220
-0
230
1
100
AcDbArc
50
62.109573194118049
51
74.0530499851168
0
ARC
5
110
100
AcDbEntity
8
PERIMETER
100
AcDbCircle
10
1.7483827159451283e-16
20
-1.3956152066188716e-17
30
0
40
0.40874015748031484
210
0
220
0
230
1
100
AcDbArc
50
140.14923666638987
51
144.85076333360882
0
ARC
5
111
100
AcDbEntity
8
PERIMETER
100
AcDbCircle
10
-0.0093844017893030419
20
0.43007995499989715
30
0
40
0.37874015748031759
210
0
220
0
230
1
100
AcDbArc
50
210.94695001488168
51
222.89042680588062
0
ARC
5
112
100
AcDbEntity
8
PERIMETER
100
AcDbCircle
10
-0.29099979254612141
20
0.16847445600122413
30
0
40
0.00563552517593511
210
-0
220
0
230
1
100
AcDbArc
50
-30.068714345421181
51
42.890426805879478
0
ARC
5
113
100
AcDbEntity
8
PERIMETER
100
AcDbCircle
10
1.7483827159451283e-16
20
-1.3956152066188716e-17
30
0
40
0.330615157480315
210
0
220
0
230
1
100
AcDbArc
50
149.93128565457963
51
150.06871434541733
0
ARC
5
114
100
AcDbEntity
8
PERIMETER
100
AcDbCircle
10
-0.29140305505888048
20
0.16777598484033754
30
0
40
0.0056355251759350831
210
0
220
0
230
1
100
AcDbArc
50
257.10957319411636
51
330.06871434534588
0
ARC
5
115
100
AcDbEntity
8
PERIMETER
100
AcDbCircle
10
-0.37715236758303522
20
-0.20691284715108077
30
0
40
0.37874015748031525
210
0
220
-0
230
1
100
AcDbArc
50
77.109573194117957
51
89.053049985116999
0
ARC
5
116
100
AcDbEntity
8
PERIMETER
100
AcDbCircle
10
1.7483827159451283e-16
20
-1.3956152066188716e-17
30
0
40
0.408740157480315
210
0
220
0
230
1
100
AcDbArc
50
155.14923666638992
51
159.85076333360885
0
ARC
5
117
100
AcDbEntity
8
PERIMETER
100
AcDbCircle
10
-0.12037751932336976
20
0.41299647399367517
30
0
40
0.37874015748031808
210
0
220
0
230
1
100
AcDbArc
50
225.94695001488171
51
237.89042680588068
0
ARC
5
118
100
AcDbEntity
8
PERIMETER
100
AcDbCircle
10
-0.32468861289146339
20
0.087417539689764664
30
0
40
0.0056355251759350926
210
-0
220
0
230
1
100
AcDbArc
50
-15.068714345419874
51
57.890426805880104
0
ARC
5
119
100
AcDbEntity
8
PERIMETER
100
AcDbCircle
10
1.7483827159451283e-16
20
-1.3956152066188716e-17
30
0
40
0.33061515748031511
210
0
220
0
230
1
100
AcDbArc
50
164.93128565457968
51
165.06871434542532
0
ARC
5
11A
100
AcDbEntity
8
PERIMETER
100
AcDbCircle
10
-0.3248973569284192
20
0.086638496338068235
30
0
40
0.0056355251759350501
210
-0
220
0
230
1
100
AcDbArc
50
272.10957319411688
51
345.06871434535338
0
ARC
5
11B
100
AcDbEntity
8
PERIMETER
100
AcDbCircle
10
-0.31074822677543368
20
-0.29747667849023784
30
0
40
0.37874015748032547
210
0
220
0
230
1
100
AcDbArc
50
92.109573194118141
51
104.05304998511686
0
ARC
5
11C
100
AcDbEntity
8
PERIMETER
100
AcDbCircle
10
1.7483827159451283e-16
20
-1.3956152066188716e-17
30
0
40
0.40874015748031517
210
0
220
0
230
1
100
AcDbArc
50
170.14923666638992
51
174.8507633336088
0
ARC
5
11D
100
AcDbEntity
8
PERIMETER
100
AcDbCircle
10
-0.22316710784880753
20
0.36776796579372312
30
0
40
0.37874015748031314
210
0
220
0
230
1
100
AcDbArc
50
240.94695001488165
51
252.89042680588082
0
ARC
5
11E
100
AcDbEntity
8
PERIMETER
100
AcDbCircle
10
-0.3362504408415547
20
0.00040326251276256195
30
0
40
0.0056355251759351048
210
-0
220
0
230
1
100
AcDbArc
50
-0.068714345419331871
51
72.890426805882541
0
ARC
5
11F
100
AcDbEntity
8
PERIMETER
100
AcDbCircle
10
1.7483827159451283e-16
20
-1.3956152066188716e-17
30
0
40
0.33061515748031495
210
0
220
0
230
1
100
AcDbArc
50
179.93128565458068
51
180.06871434541401
0
ARC
5
120
100
AcDbEntity
8
PERIMETER
100
AcDbCircle
10
-0.3362504408415547
20
-0.00040326251275559096
30
0
40
0.0056355251759350423
210
-0
220
0
230
1
100
AcDbArc
50
-72.890426805882939
51
0.068714345477678226
0
ARC
5
121
100
AcDbEntity
8
PERIMETER
100
AcDbCircle
10
-0.22316710784881286
20
-0.36776796579372384
30
0
40
0.37874015748031881
210
0
220
0
230
1
100
AcDbArc
50
107.10957319411807
51
119.05304998511696
0
ARC
5
122
100
AcDbEntity
8
PERIMETER
100
AcDbCircle
10
1.7483827159451283e-16
20
-1.3956152066188716e-17
30
0
40
0.40874015748031517
210
0
220
0
230
1
100
AcDbArc
50
185.14923666638992
51
189.85076333360826
0
ARC
5
123
100
AcDbEntity
8
PERIMETER
100
AcDbCircle
10
-0.31074822677542957
20
0.29747667849022702
30
0
40
0.37874015748030593
210
0
220
0
230
1
100
AcDbArc
50
255.94695001488142
51
267.89042680588091
0
ARC
5
124
100
AcDbEntity
8
PERIMETER
100
AcDbCircle
10
-0.32489735692842109
20
-0.086638496338061505
30
0
40
0.0056355251759351048
210
0
220
-0
230
1
100
AcDbArc
50
14.931285654578943
51
87.890426805881461
0
ARC
5
125
100
AcDbEntity
8
PERIMETER
100
AcDbCircle
10
1.7483827159451283e-16
20
-1.3956152066188716e-17
30
0
40
0.330615157480315
210
0
220
0
230
1
100
AcDbArc
50
194.93128565457974
51
195.06871434542535
0
ARC
5
126
100
AcDbEntity
8
PERIMETER
100
AcDbCircle
10
-0.32468861289146522
20
-0.08741753968975792
30
0
40
0.0056355251759351542
210
-0
220
0
230
1
100
AcDbArc
50
-57.890426805882349
51
15.068714345253509
0
ARC
5
127
100
AcDbEntity
8
PERIMETER
100
AcDbCircle
10
-0.12037751932338087
20
-0.41299647399366934
30
0
40
0.37874015748031348
210
0
220
0
230
1
100
AcDbArc
50
122.10957319411806
51
134.05304998511713
0
ARC
5
128
100
AcDbEntity
8
PERIMETER
100
AcDbCircle
10
1.7483827159451283e-16
20
-1.3956152066188716e-17
30
0
40
0.40874015748031511
210
0
220
0
230
1
100
AcDbArc
50
200.14923666638998
51
204.85076333360897
0
ARC
5
129
100
AcDbEntity
8
PERIMETER
100
AcDbCircle
10
-0.37715236758303172
20
0.20691284715109448
30
0
40
0.37874015748032119
210
-0
220
0
230
1
100
AcDbArc
50
270.94695001488191
51
282.89042680588079
0
ARC
5
12A
100
AcDbEntity
8
PERIMETER
100
AcDbCircle
10
-0.29140305505888398
20
-0.16777598484033152
30
0
40
0.005635525175935136
210
0
220
-0
230
1
100
AcDbArc
50
29.931285654580496
51
102.89042680588169
0
ARC
5
12B
100
AcDbEntity
8
PERIMETER
100
AcDbCircle
10
1.7483827159451283e-16
20
-1.3956152066188716e-17
30
0
40
0.33061515748031495
210
0
220
0
230
1
100
AcDbArc
50
209.93128565457974
51
210.06871434542273
0
ARC
5
12C
100
AcDbEntity
8
PERIMETER
100
AcDbCircle
10
-0.29099979254612496
20
-0.1684744560012181
30
0
40
0.0056355251759350944
210
-0
220
0
230
1
100
AcDbArc
50
-42.89042680588328
51
30.068714345432827
0
ARC
5
12D
100
AcDbEntity
8
PERIMETER
100
AcDbCircle
10
-0.00938440178931952
20
-0.43007995499989121
30
0
40
0.37874015748030815
210
0
220
0
230
1
100
AcDbArc
50
137.10957319411801
51
149.05304998511735
0
ARC
5
12E
100
AcDbEntity
8
PERIMETER
100
AcDbCircle
10
1.7483827159451283e-16
20
-1.3956152066188716e-17
30
0
40
0.40874015748031528
210
0
220
0
230
1
100
AcDbArc
50
215.14923666639004
51
219.85076333360888
0
ARC
5
12F
100
AcDbEntity
8
PERIMETER
100
AcDbCircle
10
-0.41785419781361094
20
0.10224824721825573
30
0
40
0.37874015748032752
210
-0
220
0
230
1
100
AcDbArc
50
285.94695001488191
51
297.89042680588057
0
ARC
5
130
100
AcDbEntity
8
PERIMETER
100
AcDbCircle
10
-0.23805011655340169
20
-0.23747981723865719
30
0
40
0.0056355251759350466
210
0
220
-0
230
1
100
AcDbArc
50
44.931285654579519
51
117.89042680588126
0
ARC
5
131
100
AcDbEntity
8
PERIMETER
100
AcDbCircle
10
1.7483827159451283e-16
20
-1.3956152066188716e-17
30
0
40
0.33061515748031511
210
0
220
0
230
1
100
AcDbArc
50
224.9312856545798
51
225.06871434542279
0
ARC
5
132
100
AcDbEntity
8
PERIMETER
100
AcDbCircle
10
-0.23747981723866118
20
-0.23805011655339778
30
0
40
0.0056355251759351143
210
-0
220
0
230
1
100
AcDbArc
50
-27.890426805882278
51
45.068714345431644
0
ARC
5
133
100
AcDbEntity
8
PERIMETER
100
AcDbCircle
10
0.10224824721822634
20
-0.41785419781360389
30
0
40
0.37874015748030421
210
0
220
0
230
1
100
AcDbArc
50
152.10957319411798
51
164.05304998511744
0
ARC
5
134
100
AcDbEntity
8
PERIMETER
100
AcDbCircle
10
1.7483827159451283e-16
20
-1.3956152066188716e-17
30
0
40
0.408740157480315
210
0
220
0
230
1
100
AcDbArc
50
230.1492366663901
51
234.85076333360902
0
ARC
5
135
100
AcDbEntity
8
PERIMETER
100
AcDbCircle
10
-0.43007995499989943
20
-0.009384401789301092
30
0
40
0.37874015748032219
210
-0
220
0
230
1
100
AcDbArc
50
300.94695001488191
51
312.89042680588074
0
ARC
5
136
100
AcDbEntity
8
PERIMETER
100
AcDbCircle
10
-0.16847445600122296
20
-0.29099979254612224
30
0
40
0.0056355251759351525
210
0
220
-0
230
1
100
AcDbArc
50
59.931285654562416
51
132.89042680587909
0
ARC
5
137
100
AcDbEntity
8
PERIMETER
100
AcDbCircle
10
5.9375383000471852e-11
20
1.0285777396626124e-10
30
0
40
0.33061515759908
210
0
220
0
230
1
100
AcDbArc
50
239.93128565460626
51
240.06871434539624
0
ARC
5
138
100
AcDbEntity
8
PERIMETER
100
AcDbCircle
10
-0.16777598484033637
20
-0.29140305505888131
30
0
40
0.0056355251759351915
210
-0
220
0
230
1
100
AcDbArc
50
-12.890426805882194
51
60.06871434530904
0
ARC
5
139
100
AcDbEntity
8
PERIMETER
100
AcDbCircle
10
0.20691284715108726
20
-0.37715236758303522
30
0
40
0.37874015748032019
210
0
220
0
230
1
100
AcDbArc
50
167.10957319411827
51
179.05304998511741
0
ARC
5
13A
100
AcDbEntity
8
PERIMETER
100
AcDbCircle
10
1.7483827159451283e-16
20
-1.3956152066188716e-17
30
0
40
0.40874015748031517
210
0
220
0
230
1
100
AcDbArc
50
245.14923666639012
51
249.85076333360894
0
ARC
5
13B
100
AcDbEntity
8
PERIMETER
100
AcDbCircle
10
-0.41299647399367179
20
-0.12037751932337416
30
0
40
0.37874015748031353
210
-0
220
0
230
1
100
AcDbArc
50
315.94695001488185
51
327.89042680588096
0
ARC
5
13C
100
AcDbEntity
8
PERIMETER
100
AcDbCircle
10
-0.087417539689763402
20
-0.32468861289146383
30
0
40
0.0056355251759351377
210
0
220
-0
230
1
100
AcDbArc
50
74.931285658138776
51
147.89042680588034
0
ARC
5
13D
100
AcDbEntity
8
PERIMETER
100
AcDbCircle
10
5.9375383000471852e-11
20
1.0285777396626124e-10
30
0
40
0.33061515759507226
210
0
220
0
230
1
100
AcDbArc
50
254.93128564921741
51
255.06871434006837
0
ARC
5
13E
100
AcDbEntity
8
PERIMETER
100
AcDbCircle
10
-0.086638496338066973
20
-0.3248973569284197
30
0
40
0.0056355251759351143
210
0
220
-0
230
1
100
AcDbArc
50
2.109573194116249
51
75.068714345483045
0
ARC
5
13F
100
AcDbEntity
8
PERIMETER
100
AcDbCircle
10
0.29747667849022646
20
-0.31074822677543451
30
0
40
0.37874015748031276
210
0
220
0
230
1
100
AcDbArc
50
182.10957319411796
51
194.05304998511727
0
ARC
5
140
100
AcDbEntity
8
PERIMETER
100
AcDbCircle
10
1.7483827159451283e-16
20
-1.3956152066188716e-17
30
0
40
0.40874015748031478
210
0
220
0
230
1
100
AcDbArc
50
260.1492366663901
51
264.85076333360934
0
ARC
5
141
100
AcDbEntity
8
PERIMETER
100
AcDbCircle
10
-0.36776796579372945
20
-0.22316710784880814
30
0
40
0.37874015748032219
210
-0
220
0
230
1
100
AcDbArc
50
330.94695001488253
51
342.89042680588136
0
ARC
5
142
100
AcDbEntity
8
PERIMETER
100
AcDbCircle
10
-0.00040326251275890163
20
-0.33625044084155492
30
0
40
0.005635525175935149
210
0
220
-0
230
1
100
AcDbArc
50
89.931285654580336
51
162.8904268058827
0
ARC
5
143
100
AcDbEntity
8
PERIMETER
100
AcDbCircle
10
1.7483827159451283e-16
20
-1.3956152066188716e-17
30
0
40
0.33061515748031495
210
0
220
0
230
1
100
AcDbArc
50
269.93128565458028
51
270.06871434541529
0
ARC
5
144
100
AcDbEntity
8
PERIMETER
100
AcDbCircle
10
0.00040326251275925128
20
-0.33625044084155492
30
0
40
0.0056355251759350779
210
0
220
-0
230
1
100
AcDbArc
50
17.109573194117459
51
90.068714345496147
0
ARC
5
145
100
AcDbEntity
8
PERIMETER
100
AcDbCircle
10
0.36776796579372023
20
-0.22316710784881208
30
0
40
0.37874015748031226
210
0
220
0
230
1
100
AcDbArc
50
197.10957319411852
51
209.05304998511767
0
ARC
5
146
100
AcDbEntity
8
PERIMETER
100
AcDbCircle
10
1.7483827159451283e-16
20
-1.3956152066188716e-17
30
0
40
0.40874015748031495
210
-0
220
0
230
1
100
AcDbArc
50
275.14923666639061
51
279.85076333360905
0
ARC
5
147
100
AcDbEntity
8
PERIMETER
100
AcDbCircle
10
-0.29747667849024212
20
-0.31074822677542863
30
0
40
0.37874015748032475
210
-0
220
0
230
1
100
AcDbArc
50
345.94695001488208
51
357.89042680588079
0
ARC
5
148
100
AcDbEntity
8
PERIMETER
100
AcDbCircle
10
0.086638496338062768
20
-0.32489735692842092
30
0
40
0.0056355251759349616
210
0
220
0
230
1
100
AcDbArc
50
104.9312856518917
51
177.89042680588324
0
ARC
5
149
100
AcDbEntity
8
PERIMETER
100
AcDbCircle
10
-4.4458662473274894e-11
20
7.7021966282307974e-11
30
0
40
0.33061515756619192
210
-0
220
0
230
1
100
AcDbArc
50
284.93128565863111
51
285.06871434938392
0
ARC
5
14A
100
AcDbEntity
8
PERIMETER
100
AcDbCircle
10
0.087417539689759211
20
-0.32468861289146506
30
0
40
0.0056355251759351169
210
0
220
-0
230
1
100
AcDbArc
50
32.10957319411667
51
105.06871434554365
0
ARC
5
14B
100
AcDbEntity
8
PERIMETER
100
AcDbCircle
10
0.41299647399366679
20
-0.12037751932338224
30
0
40
0.37874015748030948
210
0
220
0
230
1
100
AcDbArc
50
212.10957319411824
51
224.05304998511733
0
ARC
5
14C
100
AcDbEntity
8
PERIMETER
100
AcDbCircle
10
1.7483827159451283e-16
20
-1.3956152066188716e-17
30
0
40
0.40874015748031511
210
-0
220
0
230
1
100
AcDbArc
50
290.14923666639021
51
294.85076333360917
0
ARC
5
14D
100
AcDbEntity
8
PERIMETER
100
AcDbCircle
10
-0.20691284715108407
20
-0.37715236758303128
30
0
40
0.37874015748031215
210
0
220
-0
230
1
100
AcDbArc
50
0.94695001488184449
51
12.890426805881077
0
ARC
5
14E
100
AcDbEntity
8
PERIMETER
100
AcDbCircle
10
0.16777598484033263
20
-0.2914030550588837
30
0
40
0.0056355251759350562
210
0
220
0
230
1
100
AcDbArc
50
119.9312856545684
51
192.89042680588076
0
ARC
5
14F
100
AcDbEntity
8
PERIMETER
100
AcDbCircle
10
-4.4458662473274894e-11
20
7.7021966282307974e-11
30
0
40
0.33061515756924759
210
-0
220
0
230
1
100
AcDbArc
50
299.93128565459716
51
300.06871434540301
0
ARC
5
150
100
AcDbEntity
8
PERIMETER
100
AcDbCircle
10
0.16847445600121921
20
-0.29099979254612462
30
0
40
0.0056355251759350805
210
0
220
-0
230
1
100
AcDbArc
50
47.109573194117736
51
120.06871434546902
0
ARC
5
151
100
AcDbEntity
8
PERIMETER
100
AcDbCircle
10
0.43007995499989549
20
-0.0093844017893128066
30
0
40
0.37874015748031498
210
0
220
0
230
1
100
AcDbArc
50
227.1095731941183
51
239.05304998511741
0
ARC
5
152
100
AcDbEntity
8
PERIMETER
100
AcDbCircle
10
1.7483827159451283e-16
20
-1.3956152066188716e-17
30
0
40
0.408740157480315
210
-0
220
0
230
1
100
AcDbArc
50
305.14923666639027
51
309.85076333360905
0
ARC
5
153
100
AcDbEntity
8
PERIMETER
100
AcDbCircle
10
-0.10224824721824352
20
-0.41785419781360711
30
0
40
0.37874015748031614
210
0
220
-0
230
1
100
AcDbArc
50
15.946950014881974
51
27.890426805880967
0
ARC
5
154
100
AcDbEntity
8
PERIMETER
100
AcDbCircle
10
0.23747981723865816
20
-0.23805011655340108
30
0
40
0.0056355251759350779
210
0
220
0
230
1
100
AcDbArc
50
134.93128565457994
51
207.89042680588426
0
ARC
5
155
100
AcDbEntity
8
PERIMETER
100
AcDbCircle
10
1.7483827159451283e-16
20
-1.3956152066188716e-17
30
0
40
0.33061515748031506
210
-0
220
0
230
1
100
AcDbArc
50
314.93128565457999
51
315.06871434541773
0
ARC
5
156
100
AcDbEntity
8
PERIMETER
100
AcDbCircle
10
0.23805011655339869
20
-0.23747981723866055
30
0
40
0.0056355251759350961
210
0
220
-0
230
1
100
AcDbArc
50
62.109573194116848
51
135.06871434537658
0
ARC
5
157
100
AcDbEntity
8
PERIMETER
100
AcDbCircle
10
0.417854197813608
20
0.10224824721823764
30
0
40
0.37874015748031509
210
0
220
0
230
1
100
AcDbArc
50
242.10957319411835
51
254.05304998511727
0
ARC
5
158
100
AcDbEntity
8
PERIMETER
100
AcDbCircle
10
1.7483827159451283e-16
20
-1.3956152066188716e-17
30
0
40
0.40874015748031484
210
-0
220
0
230
1
100
AcDbArc
50
320.14923666639021
51
324.85076333360917
0
ARC
5
159
100
AcDbEntity
8
PERIMETER
100
AcDbCircle
10
0.0093844017893059267
20
-0.4300799549998976
30
0
40
0.37874015748031764
210
0
220
-0
230
1
100
AcDbArc
50
30.946950014882084
51
42.890426805880978
0
ARC
5
15A
100
AcDbEntity
8
PERIMETER
100
AcDbCircle
10
0.29099979254612296
20
-0.16847445600122216
30
0
40
0.0056355251759350831
210
0
220
0
230
1
100
AcDbArc
50
149.93128565458034
51
222.89042680588446
0
ARC
5
15B
100
AcDbEntity
8
PERIMETER
100
AcDbCircle
10
1.7483827159451283e-16
20
-1.3956152066188716e-17
30
0
40
0.33061515748031506
210
-0
220
0
230
1
100
AcDbArc
50
329.93128565458005
51
330.06871434542302
0
ARC
5
15C
100
AcDbEntity
8
PERIMETER
100
AcDbCircle
10
0.29140305505888209
20
-0.16777598484033557
30
0
40
0.005635525175934946
210
0
220
-0
230
1
100
AcDbArc
50
77.109573194117218
51
150.06871434542293
0
ARC
5
15D
100
AcDbEntity
8
PERIMETER
100
AcDbCircle
10
0.37715236758303344
20
0.20691284715107827
30
0
40
0.37874015748031031
210
0
220
0
230
1
100
AcDbArc
50
257.10957319411835
51
269.05304998511747
0
ARC
5
15E
100
AcDbEntity
8
PERIMETER
100
AcDbCircle
10
1.7483827159451283e-16
20
-1.3956152066188716e-17
30
0
40
0.40874015748031528
210
-0
220
0
230
1
100
AcDbArc
50
335.14923666639032
51
339.85076333360911
0
ARC
5
15F
100
AcDbEntity
8
PERIMETER
100
AcDbCircle
10
0.12037751932336881
20
-0.4129964739936805
30
0
40
0.3787401574803243
210
0
220
-0
230
1
100
AcDbArc
50
45.946950014882212
51
57.890426805881063
0
ARC
5
160
100
AcDbEntity
8
PERIMETER
100
AcDbCircle
10
0.32468861289146439
20
-0.087417539689762486
30
0
40
0.005635525175935123
210
0
220
0
230
1
100
AcDbArc
50
164.93128565458056
51
237.89042680588025
0
ARC
5
161
100
AcDbEntity
8
PERIMETER
100
AcDbCircle
10
1.7483827159451283e-16
20
-1.3956152066188716e-17
30
0
40
0.33061515748031511
210
-0
220
0
230
1
100
AcDbArc
50
344.93128565458011
51
345.06871434541506
0
ARC
5
162
100
AcDbEntity
8
PERIMETER
100
AcDbCircle
10
0.32489735692842026
20
-0.086638496338066057
30
0
40
0.0056355251759350978
210
0
220
0
230
1
100
AcDbArc
50
92.109573194117985
51
165.06871434552218
0
ARC
5
163
100
AcDbEntity
8
PERIMETER
100
AcDbCircle
10
0.31074822677543484
20
0.29747667849021947
30
0
40
0.37874015748030482
210
-0
220
0
230
1
100
AcDbArc
50
272.10957319411818
51
284.05304998511764
0
ARC
5
164
100
AcDbEntity
8
PERIMETER
100
AcDbCircle
10
1.7483827159451283e-16
20
-1.3956152066188716e-17
30
0
40
0.40874015748031539
210
-0
220
0
230
1
100
AcDbArc
50
350.14923666639038
51
354.85076333360928
0
ARC
5
165
100
AcDbEntity
8
PERIMETER
100
AcDbCircle
10
0.22316710784881155
20
-0.36776796579371873
30
0
40
0.37874015748030965
210
0
220
-0
230
1
100
AcDbArc
50
60.946950014881992
51
72.890426805881233
0
ARC
5
166
100
AcDbEntity
8
PERIMETER
100
AcDbCircle
10
0.33625044084155509
20
-0.00040326251276028707
30
0
40
0.0056355251759351048
210
0
220
0
230
1
100
AcDbArc
50
179.93128565458068
51
252.89042680588204
0
ARC
5
167
100
AcDbEntity
8
PERIMETER
100
AcDbCircle
10
1.7483827159451283e-16
20
-1.3956152066188716e-17
30
0
40
0.33061515748031495
210
-0
220
0
230
1
100
AcDbArc
50
-0.068714345419331871
51
0.068714345414029543
0
ARC
5
168
100
AcDbEntity
8
PERIMETER
100
AcDbCircle
10
0.33625044084155509
20
0.00040326251275786589
30
0
40
0.0056355251759350614
210
0
220
0
230
1
100
AcDbArc
50
107.10957319411813
51
180.06871434547767
0
ARC
5
169
100
AcDbEntity
8
PERIMETER
100
AcDbCircle
10
0.223167107848809
20
0.36776796579372861
30
0
40
0.37874015748032253
210
-0
220
0
230
1
100
AcDbArc
50
287.10957319411858
51
299.05304998511741
0
ARC
5
16A
100
AcDbEntity
8
PERIMETER
100
AcDbCircle
10
1.7483827159451283e-16
20
-1.3956152066188716e-17
30
0
40
0.40874015748031528
210
0
220
-0
230
1
100
AcDbArc
50
5.1492366663903635
51
9.8507633336091978
0
ARC
5
16B
100
AcDbEntity
8
PERIMETER
100
AcDbCircle
10
0.31074822677542979
20
-0.29747667849024195
30
0
40
0.37874015748032525
210
0
220
-0
230
1
100
AcDbArc
50
75.94695001488229
51
87.890426805881006
0
ARC
5
16C
100
AcDbEntity
8
PERIMETER
100
AcDbCircle
10
0.32489735692842081
20
0.086638496338063711
30
0
40
0.0056355251759350874
210
0
220
0
230
1
100
AcDbArc
50
194.93128565458005
51
267.89042680588091
0
ARC
5
16D
100
AcDbEntity
8
PERIMETER
100
AcDbCircle
10
1.7483827159451283e-16
20
-1.3956152066188716e-17
30
0
40
0.33061515748031511
210
0
220
-0
230
1
100
AcDbArc
50
14.93128565458013
51
15.068714345423121
0
ARC
5
16E
100
AcDbEntity
8
PERIMETER
100
AcDbCircle
10
0.32468861289146494
20
0.08741753968976014
30
0
40
0.0056355251759349642
210
0
220
0
230
1
100
AcDbArc
50
122.10957319411949
51
195.06871434534597
0
ARC
5
16F
100
AcDbEntity
8
PERIMETER
100
AcDbCircle
10
0.12037751932338148
20
0.41299647399366662
30
0
40
0.37874015748030904
210
-0
220
0
230
1
100
AcDbArc
50
302.10957319411835
51
314.05304998511753
0
ARC
5
170
100
AcDbEntity
8
PERIMETER
100
AcDbCircle
10
1.7483827159451283e-16
20
-1.3956152066188716e-17
30
0
40
0.40874015748031511
210
0
220
-0
230
1
100
AcDbArc
50
20.149236666390401
51
24.850763333608885
0
ARC
5
171
100
AcDbEntity
8
PERIMETER
100
AcDbCircle
10
0.37715236758303355
20
-0.20691284715109318
30
0
40
0.37874015748032147
210
0
220
0
230
1
100
AcDbArc
50
90.946950014882219
51
102.89042680588116
0
ARC
5
172
100
AcDbEntity
8
PERIMETER
100
AcDbCircle
10
0.2914030550588832
20
0.16777598484033346
30
0
40
0.0056355251759350493
210
0
220
0
230
1
100
AcDbArc
50
209.93128565458105
51
282.8904268058796
0
ARC
5
173
100
AcDbEntity
8
PERIMETER
100
AcDbCircle
10
1.7483827159451283e-16
20
-1.3956152066188716e-17
30
0
40
0.33061515748031511
210
0
220
-0
230
1
100
AcDbArc
50
29.931285654580151
51
30.068714345417845
0
ARC
5
174
100
AcDbEntity
8
PERIMETER
100
AcDbCircle
10
0.29099979254612413
20
0.16847445600122005
30
0
40
0.0056355251759351204
210
0
220
0
230
1
100
AcDbArc
50
137.10957319411574
51
210.06871434546997
0
ARC
5
175
100
AcDbEntity
8
PERIMETER
100
AcDbCircle
10
0.0093844017893053144
20
0.43007995499989987
30
0
40
0.37874015748032247
210
-0
220
0
230
1
100
AcDbArc
50
317.1095731941187
51
329.05304998511735
0
ARC
5
176
100
AcDbEntity
8
PERIMETER
100
AcDbCircle
10
1.7483827159451283e-16
20
-1.3956152066188716e-17
30
0
40
0.40874015748031467
210
0
220
-0
230
1
100
AcDbArc
50
35.149236666390443
51
39.850763333609251
0
ARC
5
177
100
AcDbEntity
8
PERIMETER
100
AcDbCircle
10
0.41785419781361044
20
-0.10224824721824967
30
0
40
0.37874015748032491
210
0
220
0
230
1
100
AcDbArc
50
105.94695001488238
51
117.89042680588111
0
ARC
5
178
100
AcDbEntity
8
PERIMETER
100
AcDbCircle
10
0.23805011655340039
20
0.23747981723865885
30
0
40
0.0056355251759350779
210
0
220
0
230
1
100
AcDbArc
50
224.93128565457934
51
297.89042680587971
0
ARC
5
179
100
AcDbEntity
8
PERIMETER
100
AcDbCircle
10
1.7483827159451283e-16
20
-1.3956152066188716e-17
30
0
40
0.33061515748031506
210
0
220
-0
230
1
100
AcDbArc
50
44.931285654580208
51
45.068714345417902
0
ARC
5
17A
100
AcDbEntity
8
PERIMETER
100
AcDbCircle
10
0.23747981723865985
20
0.23805011655339939
30
0
40
0.0056355251759351117
210
0
220
0
230
1
100
AcDbArc
50
152.1095731941185
51
225.06871434543228
0
ARC
5
17B
100
AcDbEntity
8
PERIMETER
100
AcDbCircle
10
-0.10224824721823622
20
0.4178541978136065
30
0
40
0.37874015748031231
210
-0
220
0
230
1
100
AcDbArc
50
332.10957319411841
51
344.05304998511764
0
ARC
5
17C
100
AcDbEntity
8
PERIMETER
100
AcDbCircle
10
1.7483827159451283e-16
20
-1.3956152066188716e-17
30
0
40
0.408740157480315
210
0
220
-0
230
1
100
AcDbArc
50
50.149236666390451
51
54.850763333609244
0
ARC
5
17D
100
AcDbEntity
8
PERIMETER
100
AcDbCircle
10
0.43007995499989216
20
0.0093844017893140817
30
0
40
0.37874015748030931
210
0
220
0
230
1
100
AcDbArc
50
120.94695001488211
51
132.89042680588128
0
ARC
5
17E
100
AcDbEntity
8
PERIMETER
100
AcDbCircle
10
0.16847445600122127
20
0.2909997925461234
30
0
40
0.005635525175935097
210
0
220
0
230
1
100
AcDbArc
50
239.93128565457479
51
312.89042680588244
0
ARC
5
17F
100
AcDbEntity
8
PERIMETER
100
AcDbCircle
10
-2.3972053563539703e-11
20
-4.1501815932538142e-11
30
0
40
0.33061515752824266
210
0
220
-0
230
1
100
AcDbArc
50
59.931285654588613
51
60.068714345407741
0
ARC
5
180
100
AcDbEntity
8
PERIMETER
100
AcDbCircle
10
0.16777598484033468
20
0.29140305505888248
30
0
40
0.0056355251759351715
210
0
220
0
230
1
100
AcDbArc
50
167.10957319411895
51
240.06871434542307
0
ARC
5
181
100
AcDbEntity
8
PERIMETER
100
AcDbCircle
10
-0.2069128471510899
20
0.37715236758303383
30
0
40
0.37874015748032053
210
-0
220
0
230
1
100
AcDbArc
50
347.10957319411864
51
359.05304998511781
0
ARC
5
182
100
AcDbEntity
8
PERIMETER
100
AcDbCircle
10
1.7483827159451283e-16
20
-1.3956152066188716e-17
30
0
40
0.40874015748031478
210
0
220
-0
230
1
100
AcDbArc
50
65.149236666390536
51
69.850763333609478
0
ARC
5
183
100
AcDbEntity
8
PERIMETER
100
AcDbCircle
10
0.4129964739936729
20
0.12037751932337543
30
0
40
0.37874015748031642
210
0
220
0
230
1
100
AcDbArc
50
135.94695001488236
51
147.89042680588136
0
ARC
5
184
100
AcDbEntity
8
PERIMETER
100
AcDbCircle
10
0.087417539689761473
20
0.32468861289146445
30
0
40
0.0056355251759351429
210
0
220
0
230
1
100
AcDbArc
50
254.93128565456797
51
327.89042680587971
0
ARC
5
185
100
AcDbEntity
8
PERIMETER
100
AcDbCircle
10
-2.550702431421978e-11
20
-9.5164096151251885e-11
30
0
40
0.33061515757883808
210
0
220
-0
230
1
100
AcDbArc
50
74.931285654599606
51
75.068714345397524
0
ARC
5
186
100
AcDbEntity
8
PERIMETER
100
AcDbCircle
10
0.086638496338065044
20
0.32489735692842026
30
0
40
0.0056355251759350753
210
0
220
0
230
1
100
AcDbArc
50
182.10957319411796
51
255.06871434551357
0
ARC
5
187
100
AcDbEntity
8
PERIMETER
100
AcDbCircle
10
-0.29747667849023696
20
0.31074822677543146
30
0
40
0.37874015748032147
210
0
220
-0
230
1
100
AcDbArc
50
2.1095731941184952
51
14.053049985117514
0
ARC
5
188
100
AcDbEntity
8
PERIMETER
100
AcDbCircle
10
1.7483827159451283e-16
20
-1.3956152066188716e-17
30
0
40
0.40874015748031528
210
0
220
-0
230
1
100
AcDbArc
50
80.14923666639055
51
84.850763333609336
0
ARC
5
189
100
AcDbEntity
8
PERIMETER
100
AcDbCircle
10
0.36776796579372356
20
0.22316710784881066
30
0
40
0.37874015748031542
210
0
220
0
230
1
100
AcDbArc
50
150.94695001488239
51
162.89042680588145
0
ARC
5
18A
100
AcDbEntity
8
PERIMETER
100
AcDbCircle
10
0.00040326251275925128
20
0.33625044084155487
30
0
40
0.0056355251759351048
210
0
220
0
230
1
100
AcDbArc
50
269.93128565458039
51
342.89042680588136
0
ARC
5
18B
100
AcDbEntity
8
PERIMETER
100
AcDbCircle
10
1.7483827159451283e-16
20
-1.3956152066188716e-17
30
0
40
0.33061515748031495
210
0
220
-0
230
1
100
AcDbArc
50
89.931285654580293
51
90.068714345418002
0
ARC
5
18C
100
AcDbEntity
8
PERIMETER
100
AcDbCircle
10
-0.00040326251275890163
20
0.33625044084155487
30
0
40
0.00563552517593509
210
0
220
0
230
1
100
AcDbArc
50
197.10957319411747
51
270.06871434547929
0
ARC
5
18D
100
AcDbEntity
8
PERIMETER
100
AcDbCircle
10
-0.36776796579371829
20
0.22316710784881247
30
0
40
0.37874015748031048
210
0
220
-0
230
1
100
AcDbArc
50
17.109573194118518
51
29.053049985117745
0
ARC
5
18E
100
AcDbEntity
8
PERIMETER
100
AcDbCircle
10
1.7483827159451283e-16
20
-1.3956152066188716e-17
30
0
40
0.40874015748031517
210
0
220
0
230
1
100
AcDbArc
50
95.149236666390593
51
99.850763333608228
0
ARC
5
18F
100
AcDbEntity
8
PERIMETER
100
AcDbCircle
10
0.29747667849023518
20
0.3107482267754279
30
0
40
0.37874015748031353
210
0
220
0
230
1
100
AcDbArc
50
165.94695001488145
51
177.89042680588068
0
ARC
5
190
100
AcDbEntity
8
PERIMETER
100
AcDbCircle
10
-0.086638496338060172
20
0.32489735692842148
30
0
40
0.005635525175935116
210
-0
220
0
230
1
100
AcDbArc
50
284.93128565457954
51
357.89042680588199
0
ENDSEC
0
SECTION
2
OBJECTS
0
DICTIONARY
5
C
100
AcDbDictionary
3
ACAD_GROUP
350
D
3
ACAD_MLINESTYLE
350
17
0
DICTIONARY
5
D
100
AcDbDictionary
0
DICTIONARY
5
1A
330
C
100
AcDbDictionary
0
DICTIONARY
5
17
100
AcDbDictionary
0
ENDSEC
0
EOF
