0
SECTION
2
HEADER
9
$INSUNITS
70
1
9
$ACADVER
1
AC1014
9
$HANDSEED
5
FFFF
0
ENDSEC
0
SECTION
2
TABLES
0
TABLE
2
VPORT
5
8
100
AcDbSymbolTable
0
ENDTAB
0
TABLE
2
LTYPE
5
5
100
AcDbSymbolTable
70
2
0
LTYPE
5
14
100
AcDbSymbolTableRecord
100
AcDbLinetypeTableRecord
2
BYBLOCK
70
0
0
LTYPE
5
15
100
AcDbSymbolTableRecord
100
AcDbLinetypeTableRecord
2
BYLAYER
70
0
0
ENDTAB
0
TABLE
2
LAYER
5
2
100
AcDbSymbolTable
70
3
0
LAYER
5
50
100
AcDbSymbolTableRecord
100
AcDbLayerTableRecord
2
0
70
0
6
CONTINUOUS
0
LAYER
5
51
100
AcDbSymbolTableRecord
100
AcDbLayerTableRecord
2
CUTOUTS
70
0
62
1
6
CONTINUOUS
0
LAYER
5
52
100
AcDbSymbolTableRecord
100
AcDbLayerTableRecord
2
PERIMETER
70
0
62
5
6
CONTINUOUS
0
ENDTAB
0
TABLE
2
STYLE
5
3
100
AcDbSymbolTable
70
1
0
STYLE
5
11
100
AcDbSymbolTableRecord
100
AcDbTextStyleTableRecord
2
STANDARD
70
0
0
ENDTAB
0
TABLE
2
VIEW
5
6
100
AcDbSymbolTable
0
ENDTAB
0
TABLE
2
UCS
5
7
100
AcDbSymbolTable
0
ENDTAB
0
TABLE
2
APPID
5
9
100
AcDbSymbolTable
70
1
0
APPID
5
12
100
AcDbSymbolTableRecord
100
AcDbRegAppTableRecord
2
ACAD
70
0
0
ENDTAB
0
TABLE
2
DIMSTYLE
5
A
100
AcDbSymbolTable
0
ENDTAB
0
TABLE
2
BLOCK_RECORD
5
1
100
AcDbSymbolTable
70
2
0
BLOCK_RECORD
5
1F
100
AcDbSymbolTableRecord
100
AcDbBlockTableRecord
2
*MODEL_SPACE
0
BLOCK_RECORD
5
1B
100
AcDbSymbolTableRecord
100
AcDbBlockTableRecord
2
*PAPER_SPACE
0
ENDTAB
0
ENDSEC
0
SECTION
2
BLOCKS
0
BLOCK
5
20
100
AcDbEntity
100
AcDbBlockBegin
2
*MODEL_SPACE
0
ENDBLK
5
21
100
AcDbEntity
100
AcDbBlockEnd
0
BLOCK
5
1C
100
AcDbEntity
100
AcDbBlockBegin
2
*PAPER_SPACE
0
ENDBLK
5
1D
100
AcDbEntity
100
AcDbBlockEnd
0
ENDSEC
0
SECTION
2
ENTITIES
0
CIRCLE
5
100
100
AcDbEntity
8
CUTOUTS
100
AcDbCircle
10
8.7419135797256413e-17
20
4.3523175810642174e-18
30
2.1854783949314103e-17
40
0.037007874015748031
210
0
220
0
230
1
0
ARC
5
101
100
AcDbEntity
8
PERIMETER
100
AcDbCircle
10
-0.086638496338060172
20
0.32489735692842148
30
0
40
0.0060292259633365954
210
-0
220
0
230
1
100
AcDbArc
50
284.93128565457965
51
357.89042680588182
0
ARC
5
102
100
AcDbEntity
8
PERIMETER
100
AcDbCircle
10
0.29747667849023518
20
0.3107482267754279
30
0
40
0.37834645669291189
210
0
220
0
230
1
100
AcDbArc
50
165.98574702779146
51
177.89042680588068
0
ARC
5
103
100
AcDbEntity
8
PERIMETER
100
AcDbCircle
10
1.7483827159451283e-16
20
-1.3956152066188716e-17
30
0
40
0.40834645669291364
210
0
220
0
230
1
100
AcDbArc
50
95.185184750710334
51
99.814815249288685
0
ARC
5
104
100
AcDbEntity
8
PERIMETER
100
AcDbCircle
10
-0.36776796579371829
20
0.22316710784881247
30
0
40
0.37834645669290895
210
0
220
-0
230
1
100
AcDbArc
50
17.109573194118539
51
29.014252972207728
0
ARC
5
105
100
AcDbEntity
8
PERIMETER
100
AcDbCircle
10
-0.00040326251275890163
20
0.33625044084155487
30
0
40
0.0060292259633365937
210
0
220
0
230
1
100
AcDbArc
50
197.1095731941173
51
270.06871434547929
0
ARC
5
106
100
AcDbEntity
8
PERIMETER
100
AcDbCircle
10
1.7483827159451283e-16
20
-1.3956152066188716e-17
30
0
40
0.33022145669291336
210
0
220
-0
230
1
100
AcDbArc
50
89.931285654580293
51
90.068714345415287
0
ARC
5
107
100
AcDbEntity
8
PERIMETER
100
AcDbCircle
10
0.00040326251275925128
20
0.33625044084155487
30
0
40
0.0060292259633366709
210
0
220
0
230
1
100
AcDbArc
50
269.93128565458028
51
342.89042680588068
0
ARC
5
108
100
AcDbEntity
8
PERIMETER
100
AcDbCircle
10
0.36776796579372356
20
0.22316710784881066
30
0
40
0.37834645669291389
210
0
220
0
230
1
100
AcDbArc
50
150.98574702779237
51
162.89042680588142
0
ARC
5
109
100
AcDbEntity
8
PERIMETER
100
AcDbCircle
10
1.7483827159451283e-16
20
-1.3956152066188716e-17
30
0
40
0.40834645669291347
210
0
220
-0
230
1
100
AcDbArc
50
80.185184750710278
51
84.814815249289779
0
ARC
5
10A
100
AcDbEntity
8
PERIMETER
100
AcDbCircle
10
-0.29747667849023696
20
0.31074822677543146
30
0
40
0.37834645669291989
210
0
220
-0
230
1
100
AcDbArc
50
2.1095731941184952
51
14.014252972207352
0
ARC
5
10B
100
AcDbEntity
8
PERIMETER
100
AcDbCircle
10
0.086638496338065044
20
0.32489735692842026
30
0
40
0.0060292259633366206
210
0
220
0
230
1
100
AcDbArc
50
182.10957319411816
51
255.0687143455136
0
ARC
5
10C
100
AcDbEntity
8
PERIMETER
100
AcDbCircle
10
-2.550702431421978e-11
20
-9.5164096151251885e-11
30
0
40
0.33022145679143655
210
0
220
-0
230
1
100
AcDbArc
50
74.931285654599606
51
75.068714345397495
0
ARC
5
10D
100
AcDbEntity
8
PERIMETER
100
AcDbCircle
10
0.087417539689761473
20
0.32468861289146445
30
0
40
0.0060292259633366787
210
0
220
0
230
1
100
AcDbArc
50
254.93128565457002
51
327.89042680587931
0
ARC
5
10E
100
AcDbEntity
8
PERIMETER
100
AcDbCircle
10
0.4129964739936729
20
0.12037751932337543
30
0
40
0.37834645669291489
210
0
220
0
230
1
100
AcDbArc
50
135.9857470277924
51
147.89042680588133
0
ARC
5
10F
100
AcDbEntity
8
PERIMETER
100
AcDbCircle
10
1.7483827159451283e-16
20
-1.3956152066188716e-17
30
0
40
0.40834645669291331
210
0
220
-0
230
1
100
AcDbArc
50
65.185184750710263
51
69.814815249289609
0
ARC
5
110
100
AcDbEntity
8
PERIMETER
100
AcDbCircle
10
-0.2069128471510899
20
0.37715236758303383
30
0
40
0.37834645669291905
210
-0
220
0
230
1
100
AcDbArc
50
347.10957319411864
51
359.01425297220754
0
ARC
5
111
100
AcDbEntity
8
PERIMETER
100
AcDbCircle
10
0.16777598484033468
20
0.29140305505888248
30
0
40
0.006029225963336618
210
0
220
0
230
1
100
AcDbArc
50
167.10957319411861
51
240.06871434542302
0
ARC
5
112
100
AcDbEntity
8
PERIMETER
100
AcDbCircle
10
-2.3972053563539703e-11
20
-4.1501815932538142e-11
30
0
40
0.33022145674084108
210
0
220
-0
230
1
100
AcDbArc
50
59.931285654588613
51
60.068714345405084
0
ARC
5
113
100
AcDbEntity
8
PERIMETER
100
AcDbCircle
10
0.16847445600122127
20
0.2909997925461234
30
0
40
0.006029225963336696
210
0
220
0
230
1
100
AcDbArc
50
239.93128565457553
51
312.8904268058821
0
ARC
5
114
100
AcDbEntity
8
PERIMETER
100
AcDbCircle
10
0.43007995499989216
20
0.0093844017893140817
30
0
40
0.37834645669290756
210
0
220
0
230
1
100
AcDbArc
50
120.98574702779214
51
132.89042680588139
0
ARC
5
115
100
AcDbEntity
8
PERIMETER
100
AcDbCircle
10
1.7483827159451283e-16
20
-1.3956152066188716e-17
30
0
40
0.40834645669291347
210
0
220
-0
230
1
100
AcDbArc
50
50.185184750710221
51
54.814815249289573
0
ARC
5
116
100
AcDbEntity
8
PERIMETER
100
AcDbCircle
10
-0.10224824721823622
20
0.4178541978136065
30
0
40
0.37834645669291073
210
-0
220
0
230
1
100
AcDbArc
50
332.10957319411841
51
344.0142529722076
0
ARC
5
117
100
AcDbEntity
8
PERIMETER
100
AcDbCircle
10
0.23747981723865985
20
0.23805011655339939
30
0
40
0.0060292259633366128
210
0
220
0
230
1
100
AcDbArc
50
152.10957319411841
51
225.06871434543248
0
ARC
5
118
100
AcDbEntity
8
PERIMETER
100
AcDbCircle
10
1.7483827159451283e-16
20
-1.3956152066188716e-17
30
0
40
0.33022145669291358
210
0
220
-0
230
1
100
AcDbArc
50
44.931285654580208
51
45.068714345420567
0
ARC
5
119
100
AcDbEntity
8
PERIMETER
100
AcDbCircle
10
0.23805011655340039
20
0.23747981723865885
30
0
40
0.0060292259633366258
210
0
220
0
230
1
100
AcDbArc
50
224.93128565457945
51
297.89042680587983
0
ARC
5
11A
100
AcDbEntity
8
PERIMETER
100
AcDbCircle
10
0.41785419781361044
20
-0.10224824721824967
30
0
40
0.37834645669292322
210
0
220
0
230
1
100
AcDbArc
50
105.9857470277924
51
117.89042680588109
0
ARC
5
11B
100
AcDbEntity
8
PERIMETER
100
AcDbCircle
10
1.7483827159451283e-16
20
-1.3956152066188716e-17
30
0
40
0.40834645669291325
210
0
220
-0
230
1
100
AcDbArc
50
35.185184750710206
51
39.814815249289339
0
ARC
5
11C
100
AcDbEntity
8
PERIMETER
100
AcDbCircle
10
0.0093844017893053144
20
0.43007995499989987
30
0
40
0.37834645669292094
210
-0
220
0
230
1
100
AcDbArc
50
317.1095731941187
51
329.01425297220737
0
ARC
5
11D
100
AcDbEntity
8
PERIMETER
100
AcDbCircle
10
0.29099979254612413
20
0.16847445600122005
30
0
40
0.0060292259633366258
210
0
220
0
230
1
100
AcDbArc
50
137.10957319411625
51
210.06871434546943
0
ARC
5
11E
100
AcDbEntity
8
PERIMETER
100
AcDbCircle
10
1.7483827159451283e-16
20
-1.3956152066188716e-17
30
0
40
0.33022145669291358
210
0
220
-0
230
1
100
AcDbArc
50
29.931285654580165
51
30.06871434541786
0
ARC
5
11F
100
AcDbEntity
8
PERIMETER
100
AcDbCircle
10
0.2914030550588832
20
0.16777598484033346
30
0
40
0.0060292259633365859
210
0
220
0
230
1
100
AcDbArc
50
209.93128565458051
51
282.89042680587931
0
ARC
5
120
100
AcDbEntity
8
PERIMETER
100
AcDbCircle
10
0.37715236758303355
20
-0.20691284715109318
30
0
40
0.37834645669292005
210
0
220
0
230
1
100
AcDbArc
50
90.985747027792257
51
102.89042680588119
0
ARC
5
121
100
AcDbEntity
8
PERIMETER
100
AcDbCircle
10
1.7483827159451283e-16
20
-1.3956152066188716e-17
30
0
40
0.40834645669291375
210
0
220
-0
230
1
100
AcDbArc
50
20.185184750710143
51
24.814815249289516
0
ARC
5
122
100
AcDbEntity
8
PERIMETER
100
AcDbCircle
10
0.12037751932338148
20
0.41299647399366662
30
0
40
0.37834645669290728
210
-0
220
0
230
1
100
AcDbArc
50
302.10957319411835
51
314.01425297220754
0
ARC
5
123
100
AcDbEntity
8
PERIMETER
100
AcDbCircle
10
0.32468861289146494
20
0.08741753968976014
30
0
40
0.0060292259633366683
210
0
220
0
230
1
100
AcDbArc
50
122.10957319411902
51
195.06871434534625
0
ARC
5
124
100
AcDbEntity
8
PERIMETER
100
AcDbCircle
10
1.7483827159451283e-16
20
-1.3956152066188716e-17
30
0
40
0.33022145669291353
210
0
220
-0
230
1
100
AcDbArc
50
14.93128565458013
51
15.068714345420453
0
ARC
5
125
100
AcDbEntity
8
PERIMETER
100
AcDbCircle
10
0.32489735692842081
20
0.086638496338063711
30
0
40
0.006029225963336618
210
0
220
0
230
1
100
AcDbArc
50
194.93128565458031
51
267.89042680588022
0
ARC
5
126
100
AcDbEntity
8
PERIMETER
100
AcDbCircle
10
0.31074822677542979
20
-0.29747667849024195
30
0
40
0.37834645669292377
210
0
220
-0
230
1
100
AcDbArc
50
75.9857470277923
51
87.890426805881063
0
ARC
5
127
100
AcDbEntity
8
PERIMETER
100
AcDbCircle
10
1.7483827159451283e-16
20
-1.3956152066188716e-17
30
0
40
0.40834645669291358
210
0
220
-0
230
1
100
AcDbArc
50
5.185184750710123
51
9.8148152492895395
0
ARC
5
128
100
AcDbEntity
8
PERIMETER
100
AcDbCircle
10
0.223167107848809
20
0.36776796579372861
30
0
40
0.37834645669292088
210
-0
220
0
230
1
100
AcDbArc
50
287.10957319411858
51
299.01425297220743
0
ARC
5
129
100
AcDbEntity
8
PERIMETER
100
AcDbCircle
10
0.33625044084155509
20
0.00040326251275786589
30
0
40
0.0060292259633366475
210
0
220
0
230
1
100
AcDbArc
50
107.1095731941177
51
180.06871434547767
0
ARC
5
12A
100
AcDbEntity
8
PERIMETER
100
AcDbCircle
10
1.7483827159451283e-16
20
-1.3956152066188716e-17
30
0
40
0.33022145669291336
210
-0
220
0
230
1
100
AcDbArc
50
-0.068714345419331871
51
0.068714345414029543
0
ARC
5
12B
100
AcDbEntity
8
PERIMETER
100
AcDbCircle
10
0.33625044084155509
20
-0.00040326251276028707
30
0
40
0.0060292259633366709
210
0
220
0
230
1
100
AcDbArc
50
179.93128565458068
51
252.89042680588182
0
ARC
5
12C
100
AcDbEntity
8
PERIMETER
100
AcDbCircle
10
0.22316710784881155
20
-0.36776796579371873
30
0
40
0.37834645669290812
210
0
220
-0
230
1
100
AcDbArc
50
60.985747027792016
51
72.890426805881219
0
ARC
5
12D
100
AcDbEntity
8
PERIMETER
100
AcDbCircle
10
1.7483827159451283e-16
20
-1.3956152066188716e-17
30
0
40
0.40834645669291364
210
-0
220
0
230
1
100
AcDbArc
50
350.18518475071016
51
354.81481524928944
0
ARC
5
12E
100
AcDbEntity
8
PERIMETER
100
AcDbCircle
10
0.31074822677543484
20
0.29747667849021947
30
0
40
0.3783464566929034
210
-0
220
0
230
1
100
AcDbArc
50
272.10957319411818
51
284.01425297220754
0
ARC
5
12F
100
AcDbEntity
8
PERIMETER
100
AcDbCircle
10
0.32489735692842026
20
-0.086638496338066057
30
0
40
0.0060292259633366414
210
0
220
0
230
1
100
AcDbArc
50
92.10957319411817
51
165.0687143455223
0
ARC
5
130
100
AcDbEntity
8
PERIMETER
100
AcDbCircle
10
1.7483827159451283e-16
20
-1.3956152066188716e-17
30
0
40
0.33022145669291353
210
-0
220
0
230
1
100
AcDbArc
50
344.93128565458011
51
345.0687143454204
0
ARC
5
131
100
AcDbEntity
8
PERIMETER
100
AcDbCircle
10
0.32468861289146439
20
-0.087417539689762486
30
0
40
0.006029225963336696
210
0
220
0
230
1
100
AcDbArc
50
164.93128565458051
51
237.89042680587997
0
ARC
5
132
100
AcDbEntity
8
PERIMETER
100
AcDbCircle
10
0.12037751932336881
20
-0.4129964739936805
30
0
40
0.37834645669292272
210
0
220
-0
230
1
100
AcDbArc
50
45.985747027792243
51
57.89042680588102
0
ARC
5
133
100
AcDbEntity
8
PERIMETER
100
AcDbCircle
10
1.7483827159451283e-16
20
-1.3956152066188716e-17
30
0
40
0.40834645669291364
210
-0
220
0
230
1
100
AcDbArc
50
335.18518475071005
51
339.8148152492895
0
ARC
5
134
100
AcDbEntity
8
PERIMETER
100
AcDbCircle
10
0.37715236758303344
20
0.20691284715107827
30
0
40
0.37834645669290867
210
0
220
0
230
1
100
AcDbArc
50
257.10957319411835
51
269.01425297220749
0
ARC
5
135
100
AcDbEntity
8
PERIMETER
100
AcDbCircle
10
0.29140305505888209
20
-0.16777598484033557
30
0
40
0.006029225963336572
210
0
220
-0
230
1
100
AcDbArc
50
77.109573194116862
51
150.06871434542353
0
ARC
5
136
100
AcDbEntity
8
PERIMETER
100
AcDbCircle
10
1.7483827159451283e-16
20
-1.3956152066188716e-17
30
0
40
0.33022145669291353
210
-0
220
0
230
1
100
AcDbArc
50
329.93128565458005
51
330.0687143454204
0
ARC
5
137
100
AcDbEntity
8
PERIMETER
100
AcDbCircle
10
0.29099979254612296
20
-0.16847445600122216
30
0
40
0.0060292259633365954
210
0
220
0
230
1
100
AcDbArc
50
149.93128565458039
51
222.89042680588469
0
ARC
5
138
100
AcDbEntity
8
PERIMETER
100
AcDbCircle
10
0.0093844017893059267
20
-0.4300799549998976
30
0
40
0.37834645669291594
210
0
220
-0
230
1
100
AcDbArc
50
30.985747027792122
51
42.890426805880914
0
ARC
5
139
100
AcDbEntity
8
PERIMETER
100
AcDbCircle
10
1.7483827159451283e-16
20
-1.3956152066188716e-17
30
0
40
0.40834645669291325
210
-0
220
0
230
1
100
AcDbArc
50
320.18518475070999
51
324.81481524928904
0
ARC
5
13A
100
AcDbEntity
8
PERIMETER
100
AcDbCircle
10
0.417854197813608
20
0.10224824721823764
30
0
40
0.3783464566929135
210
0
220
0
230
1
100
AcDbArc
50
242.10957319411835
51
254.01425297220726
0
ARC
5
13B
100
AcDbEntity
8
PERIMETER
100
AcDbCircle
10
0.23805011655339869
20
-0.23747981723866055
30
0
40
0.0060292259633366952
210
0
220
-0
230
1
100
AcDbArc
50
62.109573194117011
51
135.06871434537709
0
ARC
5
13C
100
AcDbEntity
8
PERIMETER
100
AcDbCircle
10
1.7483827159451283e-16
20
-1.3956152066188716e-17
30
0
40
0.33022145669291347
210
-0
220
0
230
1
100
AcDbArc
50
314.93128565457999
51
315.06871434542563
0
ARC
5
13D
100
AcDbEntity
8
PERIMETER
100
AcDbCircle
10
0.23747981723865816
20
-0.23805011655340108
30
0
40
0.0060292259633366561
210
0
220
0
230
1
100
AcDbArc
50
134.93128565457985
51
207.89042680588383
0
ARC
5
13E
100
AcDbEntity
8
PERIMETER
100
AcDbCircle
10
-0.10224824721824352
20
-0.41785419781360711
30
0
40
0.37834645669291445
210
0
220
-0
230
1
100
AcDbArc
50
15.985747027791984
51
27.890426805880921
0
ARC
5
13F
100
AcDbEntity
8
PERIMETER
100
AcDbCircle
10
1.7483827159451283e-16
20
-1.3956152066188716e-17
30
0
40
0.40834645669291347
210
-0
220
0
230
1
100
AcDbArc
50
305.18518475071005
51
309.81481524928938
0
ARC
5
140
100
AcDbEntity
8
PERIMETER
100
AcDbCircle
10
0.43007995499989549
20
-0.0093844017893128066
30
0
40
0.37834645669291345
210
0
220
0
230
1
100
AcDbArc
50
227.10957319411833
51
239.01425297220734
0
ARC
5
141
100
AcDbEntity
8
PERIMETER
100
AcDbCircle
10
0.16847445600121921
20
-0.29099979254612462
30
0
40
0.0060292259633366483
210
0
220
-0
230
1
100
AcDbArc
50
47.109573194117722
51
120.06871434546851
0
ARC
5
142
100
AcDbEntity
8
PERIMETER
100
AcDbCircle
10
-4.4458662473274894e-11
20
7.7021966282307974e-11
30
0
40
0.33022145678184589
210
-0
220
0
230
1
100
AcDbArc
50
299.93128565459716
51
300.06871434540034
0
ARC
5
143
100
AcDbEntity
8
PERIMETER
100
AcDbCircle
10
0.16777598484033263
20
-0.2914030550588837
30
0
40
0.0060292259633366692
210
0
220
0
230
1
100
AcDbArc
50
119.9312856545703
51
192.89042680588076
0
ARC
5
144
100
AcDbEntity
8
PERIMETER
100
AcDbCircle
10
-0.20691284715108407
20
-0.37715236758303128
30
0
40
0.37834645669291078
210
0
220
-0
230
1
100
AcDbArc
50
0.98574702779172219
51
12.890426805881077
0
ARC
5
145
100
AcDbEntity
8
PERIMETER
100
AcDbCircle
10
1.7483827159451283e-16
20
-1.3956152066188716e-17
30
0
40
0.40834645669291342
210
-0
220
0
230
1
100
AcDbArc
50
290.18518475070994
51
294.81481524928944
0
ARC
5
146
100
AcDbEntity
8
PERIMETER
100
AcDbCircle
10
0.41299647399366679
20
-0.12037751932338224
30
0
40
0.37834645669290812
210
0
220
0
230
1
100
AcDbArc
50
212.10957319411818
51
224.01425297220737
0
ARC
5
147
100
AcDbEntity
8
PERIMETER
100
AcDbCircle
10
0.087417539689759211
20
-0.32468861289146506
30
0
40
0.0060292259633366128
210
0
220
-0
230
1
100
AcDbArc
50
32.10957319411709
51
105.06871434554324
0
ARC
5
148
100
AcDbEntity
8
PERIMETER
100
AcDbCircle
10
-4.4458662473274894e-11
20
7.7021966282307974e-11
30
0
40
0.33022145677879017
210
-0
220
0
230
1
100
AcDbArc
50
284.93128565863111
51
285.06871434938654
0
ARC
5
149
100
AcDbEntity
8
PERIMETER
100
AcDbCircle
10
0.086638496338062768
20
-0.32489735692842092
30
0
40
0.0060292259633366214
210
0
220
0
230
1
100
AcDbArc
50
104.93128565233158
51
177.8904268058831
0
ARC
5
14A
100
AcDbEntity
8
PERIMETER
100
AcDbCircle
10
-0.29747667849024212
20
-0.31074822677542863
30
0
40
0.37834645669292311
210
-0
220
0
230
1
100
AcDbArc
50
345.98574702779217
51
357.89042680588079
0
ARC
5
14B
100
AcDbEntity
8
PERIMETER
100
AcDbCircle
10
1.7483827159451283e-16
20
-1.3956152066188716e-17
30
0
40
0.40834645669291364
210
-0
220
0
230
1
100
AcDbArc
50
275.18518475071033
51
279.8148152492891
0
ARC
5
14C
100
AcDbEntity
8
PERIMETER
100
AcDbCircle
10
0.36776796579372023
20
-0.22316710784881208
30
0
40
0.37834645669291073
210
0
220
0
230
1
100
AcDbArc
50
197.10957319411852
51
209.01425297220763
0
ARC
5
14D
100
AcDbEntity
8
PERIMETER
100
AcDbCircle
10
0.00040326251275925128
20
-0.33625044084155492
30
0
40
0.0060292259633365824
210
0
220
-0
230
1
100
AcDbArc
50
17.109573194117331
51
90.068714345496147
0
ARC
5
14E
100
AcDbEntity
8
PERIMETER
100
AcDbCircle
10
1.7483827159451283e-16
20
-1.3956152066188716e-17
30
0
40
0.33022145669291347
210
0
220
0
230
1
100
AcDbArc
50
269.93128565458028
51
270.06871434542063
0
ARC
5
14F
100
AcDbEntity
8
PERIMETER
100
AcDbCircle
10
-0.00040326251275890163
20
-0.33625044084155492
30
0
40
0.0060292259633366284
210
0
220
-0
230
1
100
AcDbArc
50
89.931285654580336
51
162.89042680588227
0
ARC
5
150
100
AcDbEntity
8
PERIMETER
100
AcDbCircle
10
-0.36776796579372945
20
-0.22316710784880814
30
0
40
0.37834645669292055
210
-0
220
0
230
1
100
AcDbArc
50
330.98574702779257
51
342.89042680588125
0
ARC
5
151
100
AcDbEntity
8
PERIMETER
100
AcDbCircle
10
1.7483827159451283e-16
20
-1.3956152066188716e-17
30
0
40
0.40834645669291325
210
0
220
0
230
1
100
AcDbArc
50
260.18518475070988
51
264.81481524928955
0
ARC
5
152
100
AcDbEntity
8
PERIMETER
100
AcDbCircle
10
0.29747667849022646
20
-0.31074822677543451
30
0
40
0.37834645669291112
210
0
220
0
230
1
100
AcDbArc
50
182.10957319411816
51
194.01425297220715
0
ARC
5
153
100
AcDbEntity
8
PERIMETER
100
AcDbCircle
10
-0.086638496338066973
20
-0.3248973569284197
30
0
40
0.0060292259633367021
210
0
220
-0
230
1
100
AcDbArc
50
2.1095731941164217
51
75.068714345483016
0
ARC
5
154
100
AcDbEntity
8
PERIMETER
100
AcDbCircle
10
5.9375383000471852e-11
20
1.0285777396626124e-10
30
0
40
0.33022145680767068
210
0
220
0
230
1
100
AcDbArc
50
254.93128564921741
51
255.06871434006044
0
ARC
5
155
100
AcDbEntity
8
PERIMETER
100
AcDbCircle
10
-0.087417539689763402
20
-0.32468861289146383
30
0
40
0.0060292259633367195
210
0
220
-0
230
1
100
AcDbArc
50
74.931285657556202
51
147.89042680588054
0
ARC
5
156
100
AcDbEntity
8
PERIMETER
100
AcDbCircle
10
-0.41299647399367179
20
-0.12037751932337416
30
0
40
0.37834645669291184
210
-0
220
0
230
1
100
AcDbArc
50
315.98574702779189
51
327.89042680588091
0
ARC
5
157
100
AcDbEntity
8
PERIMETER
100
AcDbCircle
10
1.7483827159451283e-16
20
-1.3956152066188716e-17
30
0
40
0.40834645669291375
210
0
220
0
230
1
100
AcDbArc
50
245.18518475070988
51
249.81481524928935
0
ARC
5
158
100
AcDbEntity
8
PERIMETER
100
AcDbCircle
10
0.20691284715108726
20
-0.37715236758303522
30
0
40
0.37834645669291872
210
0
220
0
230
1
100
AcDbArc
50
167.10957319411827
51
179.0142529722072
0
ARC
5
159
100
AcDbEntity
8
PERIMETER
100
AcDbCircle
10
-0.16777598484033637
20
-0.29140305505888131
30
0
40
0.0060292259633366371
210
-0
220
0
230
1
100
AcDbArc
50
-12.890426805882448
51
60.068714345308912
0
ARC
5
15A
100
AcDbEntity
8
PERIMETER
100
AcDbCircle
10
5.9375383000471852e-11
20
1.0285777396626124e-10
30
0
40
0.33022145681167847
210
0
220
0
230
1
100
AcDbArc
50
239.93128565460626
51
240.06871434539352
0
ARC
5
15B
100
AcDbEntity
8
PERIMETER
100
AcDbCircle
10
-0.16847445600122296
20
-0.29099979254612224
30
0
40
0.0060292259633367125
210
0
220
-0
230
1
100
AcDbArc
50
59.931285654565073
51
132.89042680587914
0
ARC
5
15C
100
AcDbEntity
8
PERIMETER
100
AcDbCircle
10
-0.43007995499989943
20
-0.009384401789301092
30
0
40
0.37834645669292061
210
-0
220
0
230
1
100
AcDbArc
50
300.98574702779189
51
312.89042680588079
0
ARC
5
15D
100
AcDbEntity
8
PERIMETER
100
AcDbCircle
10
1.7483827159451283e-16
20
-1.3956152066188716e-17
30
0
40
0.40834645669291364
210
0
220
0
230
1
100
AcDbArc
50
230.18518475070985
51
234.81481524928935
0
ARC
5
15E
100
AcDbEntity
8
PERIMETER
100
AcDbCircle
10
0.10224824721822634
20
-0.41785419781360389
30
0
40
0.37834645669290257
210
0
220
0
230
1
100
AcDbArc
50
152.10957319411798
51
164.0142529722074
0
ARC
5
15F
100
AcDbEntity
8
PERIMETER
100
AcDbCircle
10
-0.23747981723866118
20
-0.23805011655339778
30
0
40
0.0060292259633367125
210
-0
220
0
230
1
100
AcDbArc
50
-27.890426805882534
51
45.068714345430983
0
ARC
5
160
100
AcDbEntity
8
PERIMETER
100
AcDbCircle
10
1.7483827159451283e-16
20
-1.3956152066188716e-17
30
0
40
0.33022145669291347
210
0
220
0
230
1
100
AcDbArc
50
224.9312856545798
51
225.06871434541748
0
ARC
5
161
100
AcDbEntity
8
PERIMETER
100
AcDbCircle
10
-0.23805011655340169
20
-0.23747981723865719
30
0
40
0.0060292259633366561
210
0
220
-0
230
1
100
AcDbArc
50
44.931285654579646
51
117.89042680588159
0
ARC
5
162
100
AcDbEntity
8
PERIMETER
100
AcDbCircle
10
-0.41785419781361094
20
0.10224824721825573
30
0
40
0.37834645669292599
210
-0
220
0
230
1
100
AcDbArc
50
285.98574702779194
51
297.89042680588068
0
ARC
5
163
100
AcDbEntity
8
PERIMETER
100
AcDbCircle
10
1.7483827159451283e-16
20
-1.3956152066188716e-17
30
0
40
0.40834645669291375
210
0
220
0
230
1
100
AcDbArc
50
215.18518475070982
51
219.81481524928898
0
ARC
5
164
100
AcDbEntity
8
PERIMETER
100
AcDbCircle
10
-0.00938440178931952
20
-0.43007995499989121
30
0
40
0.37834645669290651
210
0
220
0
230
1
100
AcDbArc
50
137.10957319411801
51
149.01425297220726
0
ARC
5
165
100
AcDbEntity
8
PERIMETER
100
AcDbCircle
10
-0.29099979254612496
20
-0.1684744560012181
30
0
40
0.00602922596333669
210
-0
220
0
230
1
100
AcDbArc
50
-42.890426805883585
51
30.068714345432561
0
ARC
5
166
100
AcDbEntity
8
PERIMETER
100
AcDbCircle
10
1.7483827159451283e-16
20
-1.3956152066188716e-17
30
0
40
0.33022145669291347
210
0
220
0
230
1
100
AcDbArc
50
209.93128565457974
51
210.06871434542009
0
ARC
5
167
100
AcDbEntity
8
PERIMETER
100
AcDbCircle
10
-0.29140305505888398
20
-0.16777598484033152
30
0
40
0.0060292259633366449
210
0
220
-0
230
1
100
AcDbArc
50
29.931285654580964
51
102.89042680588189
0
ARC
5
168
100
AcDbEntity
8
PERIMETER
100
AcDbCircle
10
-0.37715236758303172
20
0.20691284715109448
30
0
40
0.37834645669291977
210
-0
220
0
230
1
100
AcDbArc
50
270.98574702779194
51
282.89042680588074
0
ARC
5
169
100
AcDbEntity
8
PERIMETER
100
AcDbCircle
10
1.7483827159451283e-16
20
-1.3956152066188716e-17
30
0
40
0.40834645669291342
210
0
220
0
230
1
100
AcDbArc
50
200.18518475070977
51
204.81481524928893
0
ARC
5
16A
100
AcDbEntity
8
PERIMETER
100
AcDbCircle
10
-0.12037751932338087
20
-0.41299647399366934
30
0
40
0.37834645669291195
210
0
220
0
230
1
100
AcDbArc
50
122.10957319411808
51
134.01425297220709
0
ARC
5
16B
100
AcDbEntity
8
PERIMETER
100
AcDbCircle
10
-0.32468861289146522
20
-0.08741753968975792
30
0
40
0.0060292259633367238
210
-0
220
0
230
1
100
AcDbArc
50
-57.890426805882043
51
15.068714345253509
0
ARC
5
16C
100
AcDbEntity
8
PERIMETER
100
AcDbCircle
10
1.7483827159451283e-16
20
-1.3956152066188716e-17
30
0
40
0.33022145669291347
210
0
220
0
230
1
100
AcDbArc
50
194.93128565457977
51
195.06871434542006
0
ARC
5
16D
100
AcDbEntity
8
PERIMETER
100
AcDbCircle
10
-0.32489735692842109
20
-0.086638496338061505
30
0
40
0.0060292259633365868
210
0
220
-0
230
1
100
AcDbArc
50
14.931285654579289
51
87.890426805881276
0
ARC
5
16E
100
AcDbEntity
8
PERIMETER
100
AcDbCircle
10
-0.31074822677542957
20
0.29747667849022702
30
0
40
0.37834645669290434
210
0
220
0
230
1
100
AcDbArc
50
255.98574702779146
51
267.89042680588085
0
ARC
5
16F
100
AcDbEntity
8
PERIMETER
100
AcDbCircle
10
1.7483827159451283e-16
20
-1.3956152066188716e-17
30
0
40
0.40834645669291342
210
0
220
0
230
1
100
AcDbArc
50
185.18518475070971
51
189.81481524928859
0
ARC
5
170
100
AcDbEntity
8
PERIMETER
100
AcDbCircle
10
-0.22316710784881286
20
-0.36776796579372384
30
0
40
0.37834645669291722
210
0
220
0
230
1
100
AcDbArc
50
107.10957319411807
51
119.01425297220696
0
ARC
5
171
100
AcDbEntity
8
PERIMETER
100
AcDbCircle
10
-0.3362504408415547
20
-0.00040326251275559096
30
0
40
0.0060292259633366015
210
-0
220
0
230
1
100
AcDbArc
50
-72.890426805882186
51
0.068714345477678226
0
ARC
5
172
100
AcDbEntity
8
PERIMETER
100
AcDbCircle
10
1.7483827159451283e-16
20
-1.3956152066188716e-17
30
0
40
0.33022145669291336
210
0
220
0
230
1
100
AcDbArc
50
179.93128565458068
51
180.06871434541401
0
ARC
5
173
100
AcDbEntity
8
PERIMETER
100
AcDbCircle
10
-0.3362504408415547
20
0.00040326251276256195
30
0
40
0.0060292259633366709
210
-0
220
0
230
1
100
AcDbArc
50
-0.068714345419331871
51
72.890426805882356
0
ARC
5
174
100
AcDbEntity
8
PERIMETER
100
AcDbCircle
10
-0.22316710784880753
20
0.36776796579372312
30
0
40
0.37834645669291145
210
0
220
0
230
1
100
AcDbArc
50
240.98574702779172
51
252.89042680588082
0
ARC
5
175
100
AcDbEntity
8
PERIMETER
100
AcDbCircle
10
1.7483827159451283e-16
20
-1.3956152066188716e-17
30
0
40
0.40834645669291364
210
0
220
0
230
1
100
AcDbArc
50
170.18518475070974
51
174.81481524928907
0
ARC
5
176
100
AcDbEntity
8
PERIMETER
100
AcDbCircle
10
-0.31074822677543368
20
-0.29747667849023784
30
0
40
0.37834645669292383
210
0
220
0
230
1
100
AcDbArc
50
92.109573194118141
51
104.01425297220683
0
ARC
5
177
100
AcDbEntity
8
PERIMETER
100
AcDbCircle
10
-0.3248973569284192
20
0.086638496338068235
30
0
40
0.0060292259633366379
210
-0
220
0
230
1
100
AcDbArc
50
272.10957319411659
51
345.06871434535338
0
ARC
5
178
100
AcDbEntity
8
PERIMETER
100
AcDbCircle
10
1.7483827159451283e-16
20
-1.3956152066188716e-17
30
0
40
0.33022145669291342
210
0
220
0
230
1
100
AcDbArc
50
164.93128565457968
51
165.06871434542003
0
ARC
5
179
100
AcDbEntity
8
PERIMETER
100
AcDbCircle
10
-0.32468861289146339
20
0.087417539689764664
30
0
40
0.0060292259633367064
210
-0
220
0
230
1
100
AcDbArc
50
-15.068714345419721
51
57.89042680587994
0
ARC
5
17A
100
AcDbEntity
8
PERIMETER
100
AcDbCircle
10
-0.12037751932336976
20
0.41299647399367517
30
0
40
0.3783464566929165
210
0
220
0
230
1
100
AcDbArc
50
225.98574702779172
51
237.89042680588068
0
ARC
5
17B
100
AcDbEntity
8
PERIMETER
100
AcDbCircle
10
1.7483827159451283e-16
20
-1.3956152066188716e-17
30
0
40
0.40834645669291364
210
0
220
0
230
1
100
AcDbArc
50
155.18518475070968
51
159.81481524928921
0
ARC
5
17C
100
AcDbEntity
8
PERIMETER
100
AcDbCircle
10
-0.37715236758303522
20
-0.20691284715108077
30
0
40
0.37834645669291367
210
0
220
-0
230
1
100
AcDbArc
50
77.109573194117971
51
89.014252972206961
0
ARC
5
17D
100
AcDbEntity
8
PERIMETER
100
AcDbCircle
10
-0.29140305505888048
20
0.16777598484033754
30
0
40
0.0060292259633366665
210
0
220
0
230
1
100
AcDbArc
50
257.10957319411654
51
330.068714345346
0
ARC
5
17E
100
AcDbEntity
8
PERIMETER
100
AcDbCircle
10
1.7483827159451283e-16
20
-1.3956152066188716e-17
30
0
40
0.33022145669291358
210
0
220
0
230
1
100
AcDbArc
50
149.93128565457963
51
150.06871434542001
0
ARC
5
17F
100
AcDbEntity
8
PERIMETER
100
AcDbCircle
10
-0.29099979254612141
20
0.16847445600122413
30
0
40
0.006029225963336585
210
-0
220
0
230
1
100
AcDbArc
50
-30.068714345421284
51
42.890426805880018
0
ARC
5
180
100
AcDbEntity
8
PERIMETER
100
AcDbCircle
10
-0.0093844017893030419
20
0.43007995499989715
30
0
40
0.37834645669291594
210
0
220
0
230
1
100
AcDbArc
50
210.98574702779169
51
222.89042680588062
0
ARC
5
181
100
AcDbEntity
8
PERIMETER
100
AcDbCircle
10
1.7483827159451283e-16
20
-1.3956152066188716e-17
30
0
40
0.40834645669291331
210
0
220
0
230
1
100
AcDbArc
50
140.18518475070965
51
144.81481524928881
0
ARC
5
182
100
AcDbEntity
8
PERIMETER
100
AcDbCircle
10
-0.41785419781361194
20
-0.1022482472182438
30
0
40
0.37834645669292311
210
0
220
-0
230
1
100
AcDbArc
50
62.109573194118077
51
74.014252972206762
0
ARC
5
183
100
AcDbEntity
8
PERIMETER
100
AcDbCircle
10
-0.23805011655339667
20
0.23747981723866213
30
0
40
0.0060292259633366561
210
0
220
0
230
1
100
AcDbArc
50
242.10957319411659
51
315.06871434548543
0
ARC
5
184
100
AcDbEntity
8
PERIMETER
100
AcDbCircle
10
3.528638448801936e-11
20
-3.5298947442475915e-11
30
0
40
0.33022145674282466
210
0
220
0
230
1
100
AcDbArc
50
134.93128565458849
51
135.068714345405
0
ARC
5
185
100
AcDbEntity
8
PERIMETER
100
AcDbCircle
10
-0.23747981723865613
20
0.23805011655340272
30
0
40
0.006029225963336657
210
-0
220
0
230
1
100
AcDbArc
50
-45.068714345425747
51
27.890426805879006
0
ARC
5
186
100
AcDbEntity
8
PERIMETER
100
AcDbCircle
10
0.10224824721825763
20
0.41785419781361105
30
0
40
0.37834645669292644
210
0
220
0
230
1
100
AcDbArc
50
195.98574702779183
51
207.89042680588045
0
ARC
5
187
100
AcDbEntity
8
PERIMETER
100
AcDbCircle
10
1.7483827159451283e-16
20
-1.3956152066188716e-17
30
0
40
0.40834645669291364
210
0
220
0
230
1
100
AcDbArc
50
125.18518475070961
51
129.81481524928898
0
ARC
5
188
100
AcDbEntity
8
PERIMETER
100
AcDbCircle
10
-0.43007995499988833
20
0.0093844017893250972
30
0
40
0.37834645669290184
210
0
220
-0
230
1
100
AcDbArc
50
47.109573194117722
51
59.01425297220711
0
ARC
5
189
100
AcDbEntity
8
PERIMETER
100
AcDbCircle
10
-0.16847445600121685
20
0.29099979254612568
30
0
40
0.0060292259633366874
210
0
220
0
230
1
100
AcDbArc
50
227.10957319411582
51
300.06871434549777
0
ARC
5
18A
100
AcDbEntity
8
PERIMETER
100
AcDbCircle
10
4.9776215520334359e-11
20
-8.6218058889439645e-11
30
0
40
0.33022145679246839
210
0
220
0
230
1
100
AcDbArc
50
119.9312856546002
51
120.06871434539548
0
ARC
5
18B
100
AcDbEntity
8
PERIMETER
100
AcDbCircle
10
-0.16777598484033027
20
0.29140305505888475
30
0
40
0.0060292259633366093
210
-0
220
0
230
1
100
AcDbArc
50
-60.068714345431282
51
12.890426805880306
0
ARC
5
18C
100
AcDbEntity
8
PERIMETER
100
AcDbCircle
10
0.20691284715109715
20
0.377152367583031
30
0
40
0.37834645669291922
210
0
220
0
230
1
100
AcDbArc
50
180.98574702779132
51
192.89042680588042
0
ARC
5
18D
100
AcDbEntity
8
PERIMETER
100
AcDbCircle
10
1.7483827159451283e-16
20
-1.3956152066188716e-17
30
0
40
0.40834645669291375
210
0
220
0
230
1
100
AcDbArc
50
110.1851847507096
51
114.81481524928874
0
ARC
5
18E
100
AcDbEntity
8
PERIMETER
100
AcDbCircle
10
-0.41299647399366646
20
0.12037751932338452
30
0
40
0.37834645669290906
210
0
220
-0
230
1
100
AcDbArc
50
32.1095731941178
51
44.014252972207025
0
ARC
5
18F
100
AcDbEntity
8
PERIMETER
100
AcDbCircle
10
-0.087417539689756601
20
0.32468861289146567
30
0
40
0.0060292259633365711
210
0
220
0
230
1
100
AcDbArc
50
212.10957319411713
51
285.06871434548538
0
ARC
5
190
100
AcDbEntity
8
PERIMETER
100
AcDbCircle
10
1.7483827159451283e-16
20
-1.3956152066188716e-17
30
0
40
0.33022145669291353
210
0
220
0
230
1
100
AcDbArc
50
104.93128565457954
51
105.06871434541988
0
ENDSEC
0
SECTION
2
OBJECTS
0
DICTIONARY
5
C
100
AcDbDictionary
3
ACAD_GROUP
350
D
3
ACAD_MLINESTYLE
350
17
0
DICTIONARY
5
D
100
AcDbDictionary
0
DICTIONARY
5
1A
330
C
100
AcDbDictionary
0
DICTIONARY
5
17
100
AcDbDictionary
0
ENDSEC
0
EOF
