0
SECTION
2
HEADER
9
$INSUNITS
70
1
9
$ACADVER
1
AC1014
9
$HANDSEED
5
FFFF
0
ENDSEC
0
SECTION
2
TABLES
0
TABLE
2
VPORT
5
8
100
AcDbSymbolTable
0
ENDTAB
0
TABLE
2
LTYPE
5
5
100
AcDbSymbolTable
70
2
0
LTYPE
5
14
100
AcDbSymbolTableRecord
100
AcDbLinetypeTableRecord
2
BYBLOCK
70
0
0
LTYPE
5
15
100
AcDbSymbolTableRecord
100
AcDbLinetypeTableRecord
2
BYLAYER
70
0
0
ENDTAB
0
TABLE
2
LAYER
5
2
100
AcDbSymbolTable
70
3
0
LAYER
5
50
100
AcDbSymbolTableRecord
100
AcDbLayerTableRecord
2
0
70
0
6
CONTINUOUS
0
LAYER
5
51
100
AcDbSymbolTableRecord
100
AcDbLayerTableRecord
2
CUTOUTS
70
0
62
1
6
CONTINUOUS
0
LAYER
5
52
100
AcDbSymbolTableRecord
100
AcDbLayerTableRecord
2
PERIMETER
70
0
62
5
6
CONTINUOUS
0
ENDTAB
0
TABLE
2
STYLE
5
3
100
AcDbSymbolTable
70
1
0
STYLE
5
11
100
AcDbSymbolTableRecord
100
AcDbTextStyleTableRecord
2
STANDARD
70
0
0
ENDTAB
0
TABLE
2
VIEW
5
6
100
AcDbSymbolTable
0
ENDTAB
0
TABLE
2
UCS
5
7
100
AcDbSymbolTable
0
ENDTAB
0
TABLE
2
APPID
5
9
100
AcDbSymbolTable
70
1
0
APPID
5
12
100
AcDbSymbolTableRecord
100
AcDbRegAppTableRecord
2
ACAD
70
0
0
ENDTAB
0
TABLE
2
DIMSTYLE
5
A
100
AcDbSymbolTable
0
ENDTAB
0
TABLE
2
BLOCK_RECORD
5
1
100
AcDbSymbolTable
70
2
0
BLOCK_RECORD
5
1F
100
AcDbSymbolTableRecord
100
AcDbBlockTableRecord
2
*MODEL_SPACE
0
BLOCK_RECORD
5
1B
100
AcDbSymbolTableRecord
100
AcDbBlockTableRecord
2
*PAPER_SPACE
0
ENDTAB
0
ENDSEC
0
SECTION
2
BLOCKS
0
BLOCK
5
20
100
AcDbEntity
100
AcDbBlockBegin
2
*MODEL_SPACE
0
ENDBLK
5
21
100
AcDbEntity
100
AcDbBlockEnd
0
BLOCK
5
1C
100
AcDbEntity
100
AcDbBlockBegin
2
*PAPER_SPACE
0
ENDBLK
5
1D
100
AcDbEntity
100
AcDbBlockEnd
0
ENDSEC
0
SECTION
2
ENTITIES
0
CIRCLE
5
100
100
AcDbEntity
8
CUTOUTS
100
AcDbCircle
10
1.3112870369588462e-16
20
2.0747440414615335e-17
30
0
40
0.036220472440944888
210
0
220
0
230
1
0
ARC
5
101
100
AcDbEntity
8
PERIMETER
100
AcDbCircle
10
2.6225740739176924e-16
20
4.1494880829230671e-17
30
0
40
0.14814960629921273
210
-0
220
0
230
1
100
AcDbArc
50
-0.65504491979530099
51
0.65504491979474988
0
ARC
5
102
100
AcDbEntity
8
PERIMETER
100
AcDbCircle
10
0.15436559382017084
20
0.0017648909681199155
30
0
40
0.0062260763570374262
210
0
220
0
230
1
100
AcDbArc
50
106.23666189566843
51
180.65504491979806
0
ARC
5
103
100
AcDbEntity
8
PERIMETER
100
AcDbCircle
10
0.099318067620754028
20
0.19078818128095168
30
0
40
0.19064960629921282
210
-0
220
0
230
1
100
AcDbArc
50
286.23666189566814
51
308.9141180173778
0
ARC
5
104
100
AcDbEntity
8
PERIMETER
100
AcDbCircle
10
2.6225740739176924e-16
20
4.1494880829230671e-17
30
0
40
0.22314960629921271
210
0
220
-0
230
1
100
AcDbArc
50
10.965209606318727
51
19.034790393680883
0
ARC
5
105
100
AcDbEntity
8
PERIMETER
100
AcDbCircle
10
0.18140606025482903
20
-0.11556837792076055
30
0
40
0.1906496062992144
210
0
220
-0
230
1
100
AcDbArc
50
81.085881982621899
51
103.76333810433144
0
ARC
5
106
100
AcDbEntity
8
PERIMETER
100
AcDbCircle
10
0.1345669712025985
20
0.075654356496783023
30
0
40
0.0062260763570374557
210
0
220
0
230
1
100
AcDbArc
50
209.34495508020427
51
283.76333810433113
0
ARC
5
107
100
AcDbEntity
8
PERIMETER
100
AcDbCircle
10
2.6225740739176924e-16
20
4.1494880829230671e-17
30
0
40
0.14814960629921264
210
0
220
-0
230
1
100
AcDbArc
50
29.344955080204414
51
30.6550449197956
0
ARC
5
108
100
AcDbEntity
8
PERIMETER
100
AcDbCircle
10
0.13280208023447812
20
0.078711237323387001
30
0
40
0.0062260763570374114
210
0
220
0
230
1
100
AcDbArc
50
136.23666189566825
51
210.65504491979246
0
ARC
5
109
100
AcDbEntity
8
PERIMETER
100
AcDbCircle
10
-0.0093821210261219035
20
0.21488644554151151
30
0
40
0.1906496062992124
210
-0
220
0
230
1
100
AcDbArc
50
316.23666189566819
51
338.9141180173778
0
ARC
5
10A
100
AcDbEntity
8
PERIMETER
100
AcDbCircle
10
2.6225740739176924e-16
20
4.1494880829230671e-17
30
0
40
0.2231496062992126
210
0
220
-0
230
1
100
AcDbArc
50
40.965209606318766
51
49.034790393680922
0
ARC
5
10B
100
AcDbEntity
8
PERIMETER
100
AcDbCircle
10
0.21488644554151154
20
-0.0093821210261226477
30
0
40
0.19064960629921185
210
0
220
0
230
1
100
AcDbArc
50
111.08588198262184
51
133.76333810433167
0
ARC
5
10C
100
AcDbEntity
8
PERIMETER
100
AcDbCircle
10
0.078711237323387709
20
0.13280208023447759
30
0
40
0.0062260763570374158
210
0
220
0
230
1
100
AcDbArc
50
239.34495508020422
51
313.76333810433158
0
ARC
5
10D
100
AcDbEntity
8
PERIMETER
100
AcDbCircle
10
2.6225740739176924e-16
20
4.1494880829230671e-17
30
0
40
0.1481496062992127
210
0
220
-0
230
1
100
AcDbArc
50
59.344955080204493
51
60.655044919795905
0
ARC
5
10E
100
AcDbEntity
8
PERIMETER
100
AcDbCircle
10
0.075654356496783717
20
0.13456697120259803
30
0
40
0.0062260763570374227
210
0
220
0
230
1
100
AcDbArc
50
166.23666189566831
51
240.65504491979641
0
ARC
5
10F
100
AcDbEntity
8
PERIMETER
100
AcDbCircle
10
-0.11556837792075782
20
0.18140606025482908
30
0
40
0.1906496062992126
210
-0
220
0
230
1
100
AcDbArc
50
-13.763338104331737
51
8.9141180173779233
0
ARC
5
110
100
AcDbEntity
8
PERIMETER
100
AcDbCircle
10
2.6225740739176924e-16
20
4.1494880829230671e-17
30
0
40
0.2231496062992126
210
0
220
-0
230
1
100
AcDbArc
50
70.965209606318837
51
79.034790393681149
0
ARC
5
111
100
AcDbEntity
8
PERIMETER
100
AcDbCircle
10
0.1907881812809506
20
0.099318067620754055
30
0
40
0.19064960629921107
210
0
220
0
230
1
100
AcDbArc
50
141.08588198262194
51
163.76333810433175
0
ARC
5
112
100
AcDbEntity
8
PERIMETER
100
AcDbCircle
10
0.0017648909681206751
20
0.15436559382017062
30
0
40
0.0062260763570374323
210
0
220
0
230
1
100
AcDbArc
50
269.3449550802045
51
343.76333810433113
0
ARC
5
113
100
AcDbEntity
8
PERIMETER
100
AcDbCircle
10
2.6225740739176924e-16
20
4.1494880829230671e-17
30
0
40
0.14814960629921267
210
0
220
-0
230
1
100
AcDbArc
50
89.344955080204556
51
90.655044919794605
0
ARC
5
114
100
AcDbEntity
8
PERIMETER
100
AcDbCircle
10
-0.0017648909681201505
20
0.15436559382017062
30
0
40
0.0062260763570374323
210
0
220
0
230
1
100
AcDbArc
50
196.23666189566865
51
270.65504491980522
0
ARC
5
115
100
AcDbEntity
8
PERIMETER
100
AcDbCircle
10
-0.19078818128095157
20
0.099318067620753264
30
0
40
0.19064960629921271
210
0
220
-0
230
1
100
AcDbArc
50
16.236661895668295
51
38.914118017378037
0
ARC
5
116
100
AcDbEntity
8
PERIMETER
100
AcDbCircle
10
2.6225740739176924e-16
20
4.1494880829230671e-17
30
0
40
0.22314960629921266
210
0
220
0
230
1
100
AcDbArc
50
100.96520960631889
51
109.03479039368045
0
ARC
5
117
100
AcDbEntity
8
PERIMETER
100
AcDbCircle
10
0.11556837792076295
20
0.18140606025482767
30
0
40
0.19064960629921476
210
0
220
0
230
1
100
AcDbArc
50
171.08588198262146
51
193.76333810433087
0
ARC
5
118
100
AcDbEntity
8
PERIMETER
100
AcDbCircle
10
-0.075654356496781316
20
0.13456697120259908
30
0
40
0.006226076357037447
210
-0
220
0
230
1
100
AcDbArc
50
-60.655044919796097
51
13.763338104330861
0
ARC
5
119
100
AcDbEntity
8
PERIMETER
100
AcDbCircle
10
2.6225740739176924e-16
20
4.1494880829230671e-17
30
0
40
0.14814960629921267
210
0
220
0
230
1
100
AcDbArc
50
119.34495508020382
51
120.65504491979499
0
ARC
5
11A
100
AcDbEntity
8
PERIMETER
100
AcDbCircle
10
-0.078711237323385336
20
0.13280208023447873
30
0
40
0.0062260763570374184
210
0
220
0
230
1
100
AcDbArc
50
226.23666189566785
51
300.65504491979351
0
ARC
5
11B
100
AcDbEntity
8
PERIMETER
100
AcDbCircle
10
-0.21488644554151207
20
-0.0093821210261210517
30
0
40
0.19064960629921374
210
0
220
-0
230
1
100
AcDbArc
50
46.236661895667652
51
68.91411801737712
0
ARC
5
11C
100
AcDbEntity
8
PERIMETER
100
AcDbCircle
10
2.6225740739176924e-16
20
4.1494880829230671e-17
30
0
40
0.22314960629921249
210
0
220
0
230
1
100
AcDbArc
50
130.96520960631815
51
139.0347903936804
0
ARC
5
11D
100
AcDbEntity
8
PERIMETER
100
AcDbCircle
10
0.009382121026126667
20
0.21488644554151221
30
0
40
0.19064960629921382
210
0
220
0
230
1
100
AcDbArc
50
201.08588198262143
51
223.7633381043309
0
ARC
5
11E
100
AcDbEntity
8
PERIMETER
100
AcDbCircle
10
-0.13280208023447646
20
0.078711237323388847
30
0
40
0.006226076357037414
210
-0
220
0
230
1
100
AcDbArc
50
-30.655044919796133
51
43.763338104331332
0
ARC
5
11F
100
AcDbEntity
8
PERIMETER
100
AcDbCircle
10
2.6225740739176924e-16
20
4.1494880829230671e-17
30
0
40
0.14814960629921267
210
0
220
0
230
1
100
AcDbArc
50
149.3449550802039
51
150.65504491979533
0
ARC
5
120
100
AcDbEntity
8
PERIMETER
100
AcDbCircle
10
-0.13456697120259692
20
0.075654356496784911
30
0
40
0.0062260763570374167
210
0
220
0
230
1
100
AcDbArc
50
256.23666189566751
51
330.65504491979118
0
ARC
5
121
100
AcDbEntity
8
PERIMETER
100
AcDbCircle
10
-0.18140606025483003
20
-0.11556837792075557
30
0
40
0.19064960629921204
210
0
220
-0
230
1
100
AcDbArc
50
76.236661895667609
51
98.914118017377362
0
ARC
5
122
100
AcDbEntity
8
PERIMETER
100
AcDbCircle
10
2.6225740739176924e-16
20
4.1494880829230671e-17
30
0
40
0.22314960629921252
210
0
220
0
230
1
100
AcDbArc
50
160.96520960631821
51
169.03479039368034
0
ARC
5
123
100
AcDbEntity
8
PERIMETER
100
AcDbCircle
10
-0.099318067620750752
20
0.19078818128095346
30
0
40
0.19064960629921279
210
0
220
0
230
1
100
AcDbArc
50
231.0858819826214
51
253.76333810433101
0
ARC
5
124
100
AcDbEntity
8
PERIMETER
100
AcDbCircle
10
-0.15436559382017029
20
0.0017648909681220713
30
0
40
0.0062260763570374323
210
-0
220
0
230
1
100
AcDbArc
50
-0.65504491979586077
51
73.763338104330018
0
ARC
5
125
100
AcDbEntity
8
PERIMETER
100
AcDbCircle
10
2.6225740739176924e-16
20
4.1494880829230671e-17
30
0
40
0.14814960629921267
210
0
220
0
230
1
100
AcDbArc
50
179.34495508020413
51
180.65504491979473
0
ARC
5
126
100
AcDbEntity
8
PERIMETER
100
AcDbCircle
10
-0.15436559382017034
20
-0.0017648909681187543
30
0
40
0.0062260763570374114
210
-0
220
0
230
1
100
AcDbArc
50
-73.763338104332078
51
0.65504491980365231
0
ARC
5
127
100
AcDbEntity
8
PERIMETER
100
AcDbCircle
10
-0.099318067620753944
20
-0.19078818128095254
30
0
40
0.19064960629921468
210
0
220
0
230
1
100
AcDbArc
50
106.23666189566786
51
128.91411801737729
0
ARC
5
128
100
AcDbEntity
8
PERIMETER
100
AcDbCircle
10
2.6225740739176924e-16
20
4.1494880829230671e-17
30
0
40
0.22314960629921252
210
0
220
0
230
1
100
AcDbArc
50
190.96520960631827
51
199.03479039368062
0
ARC
5
129
100
AcDbEntity
8
PERIMETER
100
AcDbCircle
10
-0.18140606025482758
20
0.11556837792075988
30
0
40
0.19064960629921238
210
0
220
0
230
1
100
AcDbArc
50
261.08588198262146
51
283.76333810433118
0
ARC
5
12A
100
AcDbEntity
8
PERIMETER
100
AcDbCircle
10
-0.1345669712025985
20
-0.075654356496781996
30
0
40
0.0062260763570374297
210
0
220
-0
230
1
100
AcDbArc
50
29.344955080203817
51
103.76333810433093
0
ARC
5
12B
100
AcDbEntity
8
PERIMETER
100
AcDbCircle
10
2.6225740739176924e-16
20
4.1494880829230671e-17
30
0
40
0.14814960629921267
210
0
220
0
230
1
100
AcDbArc
50
209.34495508020402
51
210.65504491979408
0
ARC
5
12C
100
AcDbEntity
8
PERIMETER
100
AcDbCircle
10
-0.13280208023447812
20
-0.078711237323385988
30
0
40
0.0062260763570374045
210
-0
220
0
230
1
100
AcDbArc
50
-43.763338104331702
51
30.655044919802073
0
ARC
5
12D
100
AcDbEntity
8
PERIMETER
100
AcDbCircle
10
0.009382121026122122
20
-0.21488644554151229
30
0
40
0.19064960629921379
210
0
220
0
230
1
100
AcDbArc
50
136.23666189566785
51
158.91411801737738
0
ARC
5
12E
100
AcDbEntity
8
PERIMETER
100
AcDbCircle
10
2.6225740739176924e-16
20
4.1494880829230671e-17
30
0
40
0.2231496062992126
210
0
220
0
230
1
100
AcDbArc
50
220.96520960631835
51
229.03479039368068
0
ARC
5
12F
100
AcDbEntity
8
PERIMETER
100
AcDbCircle
10
-0.21488644554151107
20
0.0093821210261243928
30
0
40
0.19064960629921265
210
-0
220
0
230
1
100
AcDbArc
50
291.08588198262152
51
313.76333810433118
0
ARC
5
130
100
AcDbEntity
8
PERIMETER
100
AcDbCircle
10
-0.078711237323388097
20
-0.13280208023447698
30
0
40
0.0062260763570374019
210
0
220
-0
230
1
100
AcDbArc
50
59.344955080203995
51
133.7633381043315
0
ARC
5
131
100
AcDbEntity
8
PERIMETER
100
AcDbCircle
10
2.6225740739176924e-16
20
4.1494880829230671e-17
30
0
40
0.14814960629921273
210
0
220
0
230
1
100
AcDbArc
50
239.34495508020407
51
240.65504491979524
0
ARC
5
132
100
AcDbEntity
8
PERIMETER
100
AcDbCircle
10
-0.075654356496784134
20
-0.13456697120259742
30
0
40
0.0062260763570374167
210
-0
220
0
230
1
100
AcDbArc
50
-13.763338104332197
51
60.655044919796296
0
ARC
5
133
100
AcDbEntity
8
PERIMETER
100
AcDbCircle
10
0.11556837792075782
20
-0.1814060602548298
30
0
40
0.19064960629921332
210
0
220
0
230
1
100
AcDbArc
50
166.23666189566791
51
188.91411801737752
0
ARC
5
134
100
AcDbEntity
8
PERIMETER
100
AcDbCircle
10
2.6225740739176924e-16
20
4.1494880829230671e-17
30
0
40
0.22314960629921257
210
0
220
0
230
1
100
AcDbArc
50
250.96520960631844
51
259.03479039368108
0
ARC
5
135
100
AcDbEntity
8
PERIMETER
100
AcDbCircle
10
-0.19078818128095157
20
-0.099318067620753264
30
0
40
0.19064960629921238
210
-0
220
0
230
1
100
AcDbArc
50
321.08588198262197
51
343.76333810433164
0
ARC
5
136
100
AcDbEntity
8
PERIMETER
100
AcDbCircle
10
-0.0017648909681201505
20
-0.15436559382017054
30
0
40
0.0062260763570374323
210
0
220
-0
230
1
100
AcDbArc
50
89.3449550802045
51
163.76333810433186
0
ARC
5
137
100
AcDbEntity
8
PERIMETER
100
AcDbCircle
10
2.6225740739176924e-16
20
4.1494880829230671e-17
30
0
40
0.14814960629921267
210
0
220
0
230
1
100
AcDbArc
50
269.34495508020456
51
270.65504491979516
0
ARC
5
138
100
AcDbEntity
8
PERIMETER
100
AcDbCircle
10
0.0017648909681206751
20
-0.15436559382017054
30
0
40
0.0062260763570373776
210
0
220
-0
230
1
100
AcDbArc
50
16.236661895668522
51
90.655044919805292
0
ARC
5
139
100
AcDbEntity
8
PERIMETER
100
AcDbCircle
10
0.19078818128095265
20
-0.099318067620752959
30
0
40
0.19064960629921335
210
0
220
0
230
1
100
AcDbArc
50
196.23666189566833
51
218.91411801737794
0
ARC
5
13A
100
AcDbEntity
8
PERIMETER
100
AcDbCircle
10
2.6225740739176924e-16
20
4.1494880829230671e-17
30
0
40
0.22314960629921257
210
-0
220
0
230
1
100
AcDbArc
50
280.96520960631892
51
289.03479039368068
0
ARC
5
13B
100
AcDbEntity
8
PERIMETER
100
AcDbCircle
10
-0.11556837792076044
20
-0.18140606025482822
30
0
40
0.1906496062992136
210
-0
220
0
230
1
100
AcDbArc
50
-8.9141180173783514
51
13.763338104331238
0
ARC
5
13C
100
AcDbEntity
8
PERIMETER
100
AcDbCircle
10
0.07565435649678276
20
-0.13456697120259847
30
0
40
0.0062260763570374444
210
0
220
0
230
1
100
AcDbArc
50
119.34495508020406
51
193.76333810433115
0
ARC
5
13D
100
AcDbEntity
8
PERIMETER
100
AcDbCircle
10
2.6225740739176924e-16
20
4.1494880829230671e-17
30
0
40
0.14814960629921267
210
-0
220
0
230
1
100
AcDbArc
50
299.34495508020422
51
300.65504491979425
0
ARC
5
13E
100
AcDbEntity
8
PERIMETER
100
AcDbCircle
10
0.078711237323386751
20
-0.13280208023447809
30
0
40
0.0062260763570374184
210
0
220
-0
230
1
100
AcDbArc
50
46.236661895667858
51
120.65504491980425
0
ARC
5
13F
100
AcDbEntity
8
PERIMETER
100
AcDbCircle
10
0.21488644554151132
20
0.0093821210261208956
30
0
40
0.19064960629921168
210
0
220
0
230
1
100
AcDbArc
50
226.23666189566794
51
248.91411801737775
0
ARC
5
140
100
AcDbEntity
8
PERIMETER
100
AcDbCircle
10
2.6225740739176924e-16
20
4.1494880829230671e-17
30
0
40
0.22314960629921266
210
-0
220
0
230
1
100
AcDbArc
50
310.96520960631858
51
319.03479039368079
0
ARC
5
141
100
AcDbEntity
8
PERIMETER
100
AcDbCircle
10
-0.0093821210261238047
20
-0.21488644554151168
30
0
40
0.1906496062992126
210
0
220
-0
230
1
100
AcDbArc
50
21.085881982621714
51
43.763338104331346
0
ARC
5
142
100
AcDbEntity
8
PERIMETER
100
AcDbCircle
10
0.13280208023447757
20
-0.078711237323387861
30
0
40
0.0062260763570373967
210
0
220
0
230
1
100
AcDbArc
50
149.34495508020413
51
223.76333810433087
0
ARC
5
143
100
AcDbEntity
8
PERIMETER
100
AcDbCircle
10
2.6225740739176924e-16
20
4.1494880829230671e-17
30
0
40
0.14814960629921273
210
-0
220
0
230
1
100
AcDbArc
50
329.34495508020427
51
330.6550449197955
0
ARC
5
144
100
AcDbEntity
8
PERIMETER
100
AcDbCircle
10
0.134566971202598
20
-0.075654356496783898
30
0
40
0.0062260763570374227
210
0
220
-0
230
1
100
AcDbArc
50
76.236661895668021
51
150.65504491979314
0
ARC
5
145
100
AcDbEntity
8
PERIMETER
100
AcDbCircle
10
0.18140606025482983
20
0.11556837792075871
30
0
40
0.19064960629921382
210
0
220
0
230
1
100
AcDbArc
50
256.23666189566814
51
278.91411801737763
0
ARC
5
146
100
AcDbEntity
8
PERIMETER
100
AcDbCircle
10
2.6225740739176924e-16
20
4.1494880829230671e-17
30
0
40
0.2231496062992126
210
-0
220
0
230
1
100
AcDbArc
50
340.96520960631864
51
349.03479039368096
0
ARC
5
147
100
AcDbEntity
8
PERIMETER
100
AcDbCircle
10
0.099318067620752765
20
-0.19078818128095237
30
0
40
0.19064960629921318
210
0
220
-0
230
1
100
AcDbArc
50
51.085881982621849
51
73.763338104331496
0
ARC
5
148
100
AcDbEntity
8
PERIMETER
100
AcDbCircle
10
0.15436559382017084
20
-0.0017648909681209099
30
0
40
0.006226076357037388
210
0
220
0
230
1
100
AcDbArc
50
179.3449550802047
51
253.76333810433144
0
ENDSEC
0
SECTION
2
OBJECTS
0
DICTIONARY
5
C
100
AcDbDictionary
3
ACAD_GROUP
350
D
3
ACAD_MLINESTYLE
350
17
0
DICTIONARY
5
D
100
AcDbDictionary
0
DICTIONARY
5
1A
330
C
100
AcDbDictionary
0
DICTIONARY
5
17
100
AcDbDictionary
0
ENDSEC
0
EOF
