0
SECTION
2
HEADER
9
$INSUNITS
70
1
9
$ACADVER
1
AC1014
9
$HANDSEED
5
FFFF
0
ENDSEC
0
SECTION
2
TABLES
0
TABLE
2
VPORT
5
8
100
AcDbSymbolTable
0
ENDTAB
0
TABLE
2
LTYPE
5
5
100
AcDbSymbolTable
70
2
0
LTYPE
5
14
100
AcDbSymbolTableRecord
100
AcDbLinetypeTableRecord
2
BYBLOCK
70
0
0
LTYPE
5
15
100
AcDbSymbolTableRecord
100
AcDbLinetypeTableRecord
2
BYLAYER
70
0
0
ENDTAB
0
TABLE
2
LAYER
5
2
100
AcDbSymbolTable
70
3
0
LAYER
5
50
100
AcDbSymbolTableRecord
100
AcDbLayerTableRecord
2
0
70
0
6
CONTINUOUS
0
LAYER
5
51
100
AcDbSymbolTableRecord
100
AcDbLayerTableRecord
2
CUTOUTS
70
0
62
1
6
CONTINUOUS
0
LAYER
5
52
100
AcDbSymbolTableRecord
100
AcDbLayerTableRecord
2
PERIMETER
70
0
62
5
6
CONTINUOUS
0
ENDTAB
0
TABLE
2
STYLE
5
3
100
AcDbSymbolTable
70
1
0
STYLE
5
11
100
AcDbSymbolTableRecord
100
AcDbTextStyleTableRecord
2
STANDARD
70
0
0
ENDTAB
0
TABLE
2
VIEW
5
6
100
AcDbSymbolTable
0
ENDTAB
0
TABLE
2
UCS
5
7
100
AcDbSymbolTable
0
ENDTAB
0
TABLE
2
APPID
5
9
100
AcDbSymbolTable
70
1
0
APPID
5
12
100
AcDbSymbolTableRecord
100
AcDbRegAppTableRecord
2
ACAD
70
0
0
ENDTAB
0
TABLE
2
DIMSTYLE
5
A
100
AcDbSymbolTable
0
ENDTAB
0
TABLE
2
BLOCK_RECORD
5
1
100
AcDbSymbolTable
70
2
0
BLOCK_RECORD
5
1F
100
AcDbSymbolTableRecord
100
AcDbBlockTableRecord
2
*MODEL_SPACE
0
BLOCK_RECORD
5
1B
100
AcDbSymbolTableRecord
100
AcDbBlockTableRecord
2
*PAPER_SPACE
0
ENDTAB
0
ENDSEC
0
SECTION
2
BLOCKS
0
BLOCK
5
20
100
AcDbEntity
100
AcDbBlockBegin
2
*MODEL_SPACE
0
ENDBLK
5
21
100
AcDbEntity
100
AcDbBlockEnd
0
BLOCK
5
1C
100
AcDbEntity
100
AcDbBlockBegin
2
*PAPER_SPACE
0
ENDBLK
5
1D
100
AcDbEntity
100
AcDbBlockEnd
0
ENDSEC
0
SECTION
2
ENTITIES
0
CIRCLE
5
100
100
AcDbEntity
8
CUTOUTS
100
AcDbCircle
10
1.3112870369588462e-16
20
2.0747440414615335e-17
30
0
40
0.035433070866141739
210
0
220
0
230
1
0
ARC
5
101
100
AcDbEntity
8
PERIMETER
100
AcDbCircle
10
-0.1345669712025985
20
-0.075654356496781996
30
0
40
0.0054386747822342636
210
0
220
-0
230
1
100
AcDbArc
50
29.34495508020397
51
103.76333810433094
0
ARC
5
102
100
AcDbEntity
8
PERIMETER
100
AcDbCircle
10
-0.18140606025482758
20
0.11556837792075988
30
0
40
0.19143700787401566
210
0
220
0
230
1
100
AcDbArc
50
260.94421411709993
51
283.76333810433118
0
ARC
5
103
100
AcDbEntity
8
PERIMETER
100
AcDbCircle
10
2.6225740739176924e-16
20
4.1494880829230671e-17
30
0
40
0.2239370078740158
210
0
220
0
230
1
100
AcDbArc
50
190.84413830011391
51
199.15586169988495
0
ARC
5
104
100
AcDbEntity
8
PERIMETER
100
AcDbCircle
10
-0.099318067620753944
20
-0.19078818128095254
30
0
40
0.19143700787401785
210
0
220
0
230
1
100
AcDbArc
50
106.23666189566786
51
129.05578588289885
0
ARC
5
105
100
AcDbEntity
8
PERIMETER
100
AcDbCircle
10
-0.15436559382017034
20
-0.0017648909681187543
30
0
40
0.0054386747822342454
210
-0
220
0
230
1
100
AcDbArc
50
-73.763338104332078
51
0.65504491980365231
0
ARC
5
106
100
AcDbEntity
8
PERIMETER
100
AcDbCircle
10
2.6225740739176924e-16
20
4.1494880829230671e-17
30
0
40
0.1489370078740159
210
0
220
0
230
1
100
AcDbArc
50
179.3449550802047
51
180.65504491979419
0
ARC
5
107
100
AcDbEntity
8
PERIMETER
100
AcDbCircle
10
-0.15436559382017029
20
0.0017648909681220713
30
0
40
0.0054386747822342419
210
-0
220
0
230
1
100
AcDbArc
50
-0.65504491979586077
51
73.763338104329989
0
ARC
5
108
100
AcDbEntity
8
PERIMETER
100
AcDbCircle
10
-0.099318067620750752
20
0.19078818128095346
30
0
40
0.19143700787401602
210
0
220
0
230
1
100
AcDbArc
50
230.94421411709985
51
253.76333810433104
0
ARC
5
109
100
AcDbEntity
8
PERIMETER
100
AcDbCircle
10
2.6225740739176924e-16
20
4.1494880829230671e-17
30
0
40
0.22393700787401569
210
0
220
0
230
1
100
AcDbArc
50
160.84413830011383
51
169.15586169988478
0
ARC
5
10A
100
AcDbEntity
8
PERIMETER
100
AcDbCircle
10
-0.18140606025483003
20
-0.11556837792075557
30
0
40
0.19143700787401516
210
0
220
-0
230
1
100
AcDbArc
50
76.236661895667609
51
99.055785882898817
0
ARC
5
10B
100
AcDbEntity
8
PERIMETER
100
AcDbCircle
10
-0.13456697120259692
20
0.075654356496784911
30
0
40
0.005438674782234235
210
0
220
0
230
1
100
AcDbArc
50
256.23666189566774
51
330.65504491979135
0
ARC
5
10C
100
AcDbEntity
8
PERIMETER
100
AcDbCircle
10
2.6225740739176924e-16
20
4.1494880829230671e-17
30
0
40
0.14893700787401584
210
0
220
0
230
1
100
AcDbArc
50
149.3449550802039
51
150.65504491979476
0
ARC
5
10D
100
AcDbEntity
8
PERIMETER
100
AcDbCircle
10
-0.13280208023447646
20
0.078711237323388847
30
0
40
0.0054386747822342445
210
-0
220
0
230
1
100
AcDbArc
50
-30.655044919796133
51
43.76333810433114
0
ARC
5
10E
100
AcDbEntity
8
PERIMETER
100
AcDbCircle
10
0.009382121026126667
20
0.21488644554151221
30
0
40
0.19143700787401702
210
0
220
0
230
1
100
AcDbArc
50
200.94421411709988
51
223.76333810433093
0
ARC
5
10F
100
AcDbEntity
8
PERIMETER
100
AcDbCircle
10
2.6225740739176924e-16
20
4.1494880829230671e-17
30
0
40
0.22393700787401569
210
0
220
0
230
1
100
AcDbArc
50
130.84413830011374
51
139.15586169988472
0
ARC
5
110
100
AcDbEntity
8
PERIMETER
100
AcDbCircle
10
-0.21488644554151207
20
-0.0093821210261210517
30
0
40
0.19143700787401702
210
0
220
-0
230
1
100
AcDbArc
50
46.236661895667638
51
69.055785882898718
0
ARC
5
111
100
AcDbEntity
8
PERIMETER
100
AcDbCircle
10
-0.078711237323385336
20
0.13280208023447873
30
0
40
0.0054386747822342029
210
0
220
0
230
1
100
AcDbArc
50
226.23666189566805
51
300.65504491979351
0
ARC
5
112
100
AcDbEntity
8
PERIMETER
100
AcDbCircle
10
2.6225740739176924e-16
20
4.1494880829230671e-17
30
0
40
0.14893700787401584
210
0
220
0
230
1
100
AcDbArc
50
119.34495508020382
51
120.65504491979442
0
ARC
5
113
100
AcDbEntity
8
PERIMETER
100
AcDbCircle
10
-0.075654356496781316
20
0.13456697120259908
30
0
40
0.0054386747822342766
210
-0
220
0
230
1
100
AcDbArc
50
-60.655044919796303
51
13.763338104330861
0
ARC
5
114
100
AcDbEntity
8
PERIMETER
100
AcDbCircle
10
0.11556837792076295
20
0.18140606025482767
30
0
40
0.19143700787401788
210
0
220
0
230
1
100
AcDbArc
50
170.9442141170999
51
193.76333810433081
0
ARC
5
115
100
AcDbEntity
8
PERIMETER
100
AcDbCircle
10
2.6225740739176924e-16
20
4.1494880829230671e-17
30
0
40
0.2239370078740158
210
0
220
0
230
1
100
AcDbArc
50
100.84413830011452
51
109.15586169988477
0
ARC
5
116
100
AcDbEntity
8
PERIMETER
100
AcDbCircle
10
-0.19078818128095157
20
0.099318067620753264
30
0
40
0.19143700787401577
210
0
220
-0
230
1
100
AcDbArc
50
16.236661895668316
51
39.055785882899592
0
ARC
5
117
100
AcDbEntity
8
PERIMETER
100
AcDbCircle
10
-0.0017648909681201505
20
0.15436559382017062
30
0
40
0.0054386747822342853
210
0
220
0
230
1
100
AcDbArc
50
196.23666189566865
51
270.65504491980522
0
ARC
5
118
100
AcDbEntity
8
PERIMETER
100
AcDbCircle
10
2.6225740739176924e-16
20
4.1494880829230671e-17
30
0
40
0.14893700787401581
210
0
220
-0
230
1
100
AcDbArc
50
89.344955080204556
51
90.655044919795159
0
ARC
5
119
100
AcDbEntity
8
PERIMETER
100
AcDbCircle
10
0.0017648909681206751
20
0.15436559382017062
30
0
40
0.0054386747822342627
210
0
220
0
230
1
100
AcDbArc
50
269.3449550802045
51
343.76333810433096
0
ARC
5
11A
100
AcDbEntity
8
PERIMETER
100
AcDbCircle
10
0.1907881812809506
20
0.099318067620754055
30
0
40
0.19143700787401424
210
0
220
0
230
1
100
AcDbArc
50
140.94421411710036
51
163.76333810433175
0
ARC
5
11B
100
AcDbEntity
8
PERIMETER
100
AcDbCircle
10
2.6225740739176924e-16
20
4.1494880829230671e-17
30
0
40
0.22393700787401585
210
0
220
-0
230
1
100
AcDbArc
50
70.844138300114466
51
79.155861699885506
0
ARC
5
11C
100
AcDbEntity
8
PERIMETER
100
AcDbCircle
10
-0.11556837792075782
20
0.18140606025482908
30
0
40
0.19143700787401577
210
-0
220
0
230
1
100
AcDbArc
50
-13.763338104331737
51
9.055785882899503
0
ARC
5
11D
100
AcDbEntity
8
PERIMETER
100
AcDbCircle
10
0.075654356496783717
20
0.13456697120259803
30
0
40
0.0054386747822342514
210
0
220
0
230
1
100
AcDbArc
50
166.23666189566842
51
240.65504491979615
0
ARC
5
11E
100
AcDbEntity
8
PERIMETER
100
AcDbCircle
10
2.6225740739176924e-16
20
4.1494880829230671e-17
30
0
40
0.14893700787401581
210
0
220
-0
230
1
100
AcDbArc
50
59.344955080204493
51
60.655044919795358
0
ARC
5
11F
100
AcDbEntity
8
PERIMETER
100
AcDbCircle
10
0.078711237323387709
20
0.13280208023447759
30
0
40
0.0054386747822342766
210
0
220
0
230
1
100
AcDbArc
50
239.34495508020419
51
313.76333810433135
0
ARC
5
120
100
AcDbEntity
8
PERIMETER
100
AcDbCircle
10
0.21488644554151154
20
-0.0093821210261226477
30
0
40
0.19143700787401505
210
0
220
0
230
1
100
AcDbArc
50
110.94421411710029
51
133.76333810433167
0
ARC
5
121
100
AcDbEntity
8
PERIMETER
100
AcDbCircle
10
2.6225740739176924e-16
20
4.1494880829230671e-17
30
0
40
0.22393700787401577
210
0
220
-0
230
1
100
AcDbArc
50
40.844138300114366
51
49.155861699885335
0
ARC
5
122
100
AcDbEntity
8
PERIMETER
100
AcDbCircle
10
-0.0093821210261219035
20
0.21488644554151151
30
0
40
0.19143700787401557
210
-0
220
0
230
1
100
AcDbArc
50
316.23666189566814
51
339.05578588289939
0
ARC
5
123
100
AcDbEntity
8
PERIMETER
100
AcDbCircle
10
0.13280208023447812
20
0.078711237323387001
30
0
40
0.0054386747822342575
210
0
220
0
230
1
100
AcDbArc
50
136.23666189566836
51
210.6550449197922
0
ARC
5
124
100
AcDbEntity
8
PERIMETER
100
AcDbCircle
10
2.6225740739176924e-16
20
4.1494880829230671e-17
30
0
40
0.14893700787401584
210
0
220
-0
230
1
100
AcDbArc
50
29.344955080204429
51
30.655044919795024
0
ARC
5
125
100
AcDbEntity
8
PERIMETER
100
AcDbCircle
10
0.1345669712025985
20
0.075654356496783023
30
0
40
0.005438674782234261
210
0
220
0
230
1
100
AcDbArc
50
209.34495508020436
51
283.7633381043309
0
ARC
5
126
100
AcDbEntity
8
PERIMETER
100
AcDbCircle
10
0.18140606025482903
20
-0.11556837792076055
30
0
40
0.19143700787401763
210
0
220
-0
230
1
100
AcDbArc
50
80.944214117100387
51
103.76333810433145
0
ARC
5
127
100
AcDbEntity
8
PERIMETER
100
AcDbCircle
10
2.6225740739176924e-16
20
4.1494880829230671e-17
30
0
40
0.22393700787401588
210
0
220
-0
230
1
100
AcDbArc
50
10.844138300114325
51
19.155861699885392
0
ARC
5
128
100
AcDbEntity
8
PERIMETER
100
AcDbCircle
10
0.099318067620754028
20
0.19078818128095168
30
0
40
0.19143700787401602
210
-0
220
0
230
1
100
AcDbArc
50
286.23666189566814
51
309.05578588289939
0
ARC
5
129
100
AcDbEntity
8
PERIMETER
100
AcDbCircle
10
0.15436559382017084
20
0.0017648909681199155
30
0
40
0.0054386747822342384
210
0
220
0
230
1
100
AcDbArc
50
106.23666189566855
51
180.65504491979806
0
ARC
5
12A
100
AcDbEntity
8
PERIMETER
100
AcDbCircle
10
2.6225740739176924e-16
20
4.1494880829230671e-17
30
0
40
0.14893700787401587
210
-0
220
0
230
1
100
AcDbArc
50
-0.65504491979530099
51
0.65504491979474988
0
ARC
5
12B
100
AcDbEntity
8
PERIMETER
100
AcDbCircle
10
0.15436559382017084
20
-0.0017648909681209099
30
0
40
0.005438674782234241
210
0
220
0
230
1
100
AcDbArc
50
179.3449550802047
51
253.76333810433115
0
ARC
5
12C
100
AcDbEntity
8
PERIMETER
100
AcDbCircle
10
0.099318067620752765
20
-0.19078818128095237
30
0
40
0.1914370078740163
210
0
220
-0
230
1
100
AcDbArc
50
50.944214117100337
51
73.763338104331453
0
ARC
5
12D
100
AcDbEntity
8
PERIMETER
100
AcDbCircle
10
2.6225740739176924e-16
20
4.1494880829230671e-17
30
0
40
0.22393700787401571
210
-0
220
0
230
1
100
AcDbArc
50
340.84413830011425
51
349.15586169988529
0
ARC
5
12E
100
AcDbEntity
8
PERIMETER
100
AcDbCircle
10
0.18140606025482983
20
0.11556837792075871
30
0
40
0.19143700787401702
210
0
220
0
230
1
100
AcDbArc
50
256.23666189566814
51
279.05578588289922
0
ARC
5
12F
100
AcDbEntity
8
PERIMETER
100
AcDbCircle
10
0.134566971202598
20
-0.075654356496783898
30
0
40
0.0054386747822342506
210
0
220
-0
230
1
100
AcDbArc
50
76.236661895668107
51
150.65504491979314
0
ARC
5
130
100
AcDbEntity
8
PERIMETER
100
AcDbCircle
10
2.6225740739176924e-16
20
4.1494880829230671e-17
30
0
40
0.14893700787401584
210
-0
220
0
230
1
100
AcDbArc
50
329.34495508020427
51
330.65504491979516
0
ARC
5
131
100
AcDbEntity
8
PERIMETER
100
AcDbCircle
10
0.13280208023447757
20
-0.078711237323387861
30
0
40
0.0054386747822342523
210
0
220
0
230
1
100
AcDbArc
50
149.34495508020404
51
223.76333810433104
0
ARC
5
132
100
AcDbEntity
8
PERIMETER
100
AcDbCircle
10
-0.0093821210261238047
20
-0.21488644554151168
30
0
40
0.19143700787401582
210
0
220
-0
230
1
100
AcDbArc
50
20.944214117100177
51
43.763338104331332
0
ARC
5
133
100
AcDbEntity
8
PERIMETER
100
AcDbCircle
10
2.6225740739176924e-16
20
4.1494880829230671e-17
30
0
40
0.2239370078740158
210
-0
220
0
230
1
100
AcDbArc
50
310.84413830011414
51
319.15586169988524
0
ARC
5
134
100
AcDbEntity
8
PERIMETER
100
AcDbCircle
10
0.21488644554151132
20
0.0093821210261208956
30
0
40
0.19143700787401491
210
0
220
0
230
1
100
AcDbArc
50
226.23666189566794
51
249.05578588289933
0
ARC
5
135
100
AcDbEntity
8
PERIMETER
100
AcDbCircle
10
0.078711237323386751
20
-0.13280208023447809
30
0
40
0.0054386747822342185
210
0
220
-0
230
1
100
AcDbArc
50
46.236661895668227
51
120.65504491980427
0
ARC
5
136
100
AcDbEntity
8
PERIMETER
100
AcDbCircle
10
2.6225740739176924e-16
20
4.1494880829230671e-17
30
0
40
0.14893700787401584
210
-0
220
0
230
1
100
AcDbArc
50
299.34495508020422
51
300.65504491979482
0
ARC
5
137
100
AcDbEntity
8
PERIMETER
100
AcDbCircle
10
0.07565435649678276
20
-0.13456697120259847
30
0
40
0.005438674782234274
210
0
220
0
230
1
100
AcDbArc
50
119.34495508020412
51
193.76333810433155
0
ARC
5
138
100
AcDbEntity
8
PERIMETER
100
AcDbCircle
10
-0.11556837792076044
20
-0.18140606025482822
30
0
40
0.19143700787401682
210
-0
220
0
230
1
100
AcDbArc
50
-9.0557858828998903
51
13.763338104331263
0
ARC
5
139
100
AcDbEntity
8
PERIMETER
100
AcDbCircle
10
2.6225740739176924e-16
20
4.1494880829230671e-17
30
0
40
0.2239370078740158
210
-0
220
0
230
1
100
AcDbArc
50
280.84413830011454
51
289.15586169988512
0
ARC
5
13A
100
AcDbEntity
8
PERIMETER
100
AcDbCircle
10
0.19078818128095265
20
-0.099318067620752959
30
0
40
0.19143700787401643
210
0
220
0
230
1
100
AcDbArc
50
196.23666189566833
51
219.0557858828995
0
ARC
5
13B
100
AcDbEntity
8
PERIMETER
100
AcDbCircle
10
0.0017648909681206751
20
-0.15436559382017054
30
0
40
0.0054386747822342731
210
0
220
-0
230
1
100
AcDbArc
50
16.236661895668384
51
90.655044919805249
0
ARC
5
13C
100
AcDbEntity
8
PERIMETER
100
AcDbCircle
10
2.6225740739176924e-16
20
4.1494880829230671e-17
30
0
40
0.14893700787401581
210
0
220
0
230
1
100
AcDbArc
50
269.34495508020456
51
270.65504491979516
0
ARC
5
13D
100
AcDbEntity
8
PERIMETER
100
AcDbCircle
10
-0.0017648909681201505
20
-0.15436559382017054
30
0
40
0.0054386747822342627
210
0
220
-0
230
1
100
AcDbArc
50
89.3449550802045
51
163.76333810433158
0
ARC
5
13E
100
AcDbEntity
8
PERIMETER
100
AcDbCircle
10
-0.19078818128095157
20
-0.099318067620753264
30
0
40
0.19143700787401557
210
-0
220
0
230
1
100
AcDbArc
50
320.94421411710039
51
343.76333810433175
0
ARC
5
13F
100
AcDbEntity
8
PERIMETER
100
AcDbCircle
10
2.6225740739176924e-16
20
4.1494880829230671e-17
30
0
40
0.22393700787401577
210
0
220
0
230
1
100
AcDbArc
50
250.84413830011403
51
259.15586169988529
0
ARC
5
140
100
AcDbEntity
8
PERIMETER
100
AcDbCircle
10
0.11556837792075782
20
-0.1814060602548298
30
0
40
0.19143700787401643
210
0
220
0
230
1
100
AcDbArc
50
166.23666189566791
51
189.05578588289899
0
ARC
5
141
100
AcDbEntity
8
PERIMETER
100
AcDbCircle
10
-0.075654356496784134
20
-0.13456697120259742
30
0
40
0.005438674782234287
210
-0
220
0
230
1
100
AcDbArc
50
-13.763338104332043
51
60.655044919796147
0
ARC
5
142
100
AcDbEntity
8
PERIMETER
100
AcDbCircle
10
2.6225740739176924e-16
20
4.1494880829230671e-17
30
0
40
0.1489370078740159
210
0
220
0
230
1
100
AcDbArc
50
239.34495508020407
51
240.65504491979493
0
ARC
5
143
100
AcDbEntity
8
PERIMETER
100
AcDbCircle
10
-0.078711237323388097
20
-0.13280208023447698
30
0
40
0.005438674782234228
210
0
220
-0
230
1
100
AcDbArc
50
59.344955080204123
51
133.76333810433144
0
ARC
5
144
100
AcDbEntity
8
PERIMETER
100
AcDbCircle
10
-0.21488644554151107
20
0.0093821210261243928
30
0
40
0.19143700787401582
210
-0
220
0
230
1
100
AcDbArc
50
290.94421411709999
51
313.76333810433118
0
ARC
5
145
100
AcDbEntity
8
PERIMETER
100
AcDbCircle
10
2.6225740739176924e-16
20
4.1494880829230671e-17
30
0
40
0.2239370078740158
210
0
220
0
230
1
100
AcDbArc
50
220.844138300114
51
229.15586169988495
0
ARC
5
146
100
AcDbEntity
8
PERIMETER
100
AcDbCircle
10
0.009382121026122122
20
-0.21488644554151229
30
0
40
0.19143700787401693
210
0
220
0
230
1
100
AcDbArc
50
136.23666189566785
51
159.05578588289902
0
ARC
5
147
100
AcDbEntity
8
PERIMETER
100
AcDbCircle
10
-0.13280208023447812
20
-0.078711237323385988
30
0
40
0.0054386747822342488
210
-0
220
0
230
1
100
AcDbArc
50
-43.763338104331659
51
30.655044919802144
0
ARC
5
148
100
AcDbEntity
8
PERIMETER
100
AcDbCircle
10
2.6225740739176924e-16
20
4.1494880829230671e-17
30
0
40
0.14893700787401581
210
0
220
0
230
1
100
AcDbArc
50
209.34495508020402
51
210.65504491979459
0
ENDSEC
0
SECTION
2
OBJECTS
0
DICTIONARY
5
C
100
AcDbDictionary
3
ACAD_GROUP
350
D
3
ACAD_MLINESTYLE
350
17
0
DICTIONARY
5
D
100
AcDbDictionary
0
DICTIONARY
5
1A
330
C
100
AcDbDictionary
0
DICTIONARY
5
17
100
AcDbDictionary
0
ENDSEC
0
EOF
