0
SECTION
2
HEADER
9
$INSUNITS
70
1
9
$ACADVER
1
AC1014
9
$HANDSEED
5
FFFF
0
ENDSEC
0
SECTION
2
TABLES
0
TABLE
2
VPORT
5
8
100
AcDbSymbolTable
0
ENDTAB
0
TABLE
2
LTYPE
5
5
100
AcDbSymbolTable
70
2
0
LTYPE
5
14
100
AcDbSymbolTableRecord
100
AcDbLinetypeTableRecord
2
BYBLOCK
70
0
0
LTYPE
5
15
100
AcDbSymbolTableRecord
100
AcDbLinetypeTableRecord
2
BYLAYER
70
0
0
ENDTAB
0
TABLE
2
LAYER
5
2
100
AcDbSymbolTable
70
3
0
LAYER
5
50
100
AcDbSymbolTableRecord
100
AcDbLayerTableRecord
2
0
70
0
6
CONTINUOUS
0
LAYER
5
51
100
AcDbSymbolTableRecord
100
AcDbLayerTableRecord
2
CUTOUTS
70
0
62
1
6
CONTINUOUS
0
LAYER
5
52
100
AcDbSymbolTableRecord
100
AcDbLayerTableRecord
2
PERIMETER
70
0
62
5
6
CONTINUOUS
0
ENDTAB
0
TABLE
2
STYLE
5
3
100
AcDbSymbolTable
70
1
0
STYLE
5
11
100
AcDbSymbolTableRecord
100
AcDbTextStyleTableRecord
2
STANDARD
70
0
0
ENDTAB
0
TABLE
2
VIEW
5
6
100
AcDbSymbolTable
0
ENDTAB
0
TABLE
2
UCS
5
7
100
AcDbSymbolTable
0
ENDTAB
0
TABLE
2
APPID
5
9
100
AcDbSymbolTable
70
1
0
APPID
5
12
100
AcDbSymbolTableRecord
100
AcDbRegAppTableRecord
2
ACAD
70
0
0
ENDTAB
0
TABLE
2
DIMSTYLE
5
A
100
AcDbSymbolTable
0
ENDTAB
0
TABLE
2
BLOCK_RECORD
5
1
100
AcDbSymbolTable
70
2
0
BLOCK_RECORD
5
1F
100
AcDbSymbolTableRecord
100
AcDbBlockTableRecord
2
*MODEL_SPACE
0
BLOCK_RECORD
5
1B
100
AcDbSymbolTableRecord
100
AcDbBlockTableRecord
2
*PAPER_SPACE
0
ENDTAB
0
ENDSEC
0
SECTION
2
BLOCKS
0
BLOCK
5
20
100
AcDbEntity
100
AcDbBlockBegin
2
*MODEL_SPACE
0
ENDBLK
5
21
100
AcDbEntity
100
AcDbBlockEnd
0
BLOCK
5
1C
100
AcDbEntity
100
AcDbBlockBegin
2
*PAPER_SPACE
0
ENDBLK
5
1D
100
AcDbEntity
100
AcDbBlockEnd
0
ENDSEC
0
SECTION
2
ENTITIES
0
CIRCLE
5
100
100
AcDbEntity
8
CUTOUTS
100
AcDbCircle
10
1.3112870369588462e-16
20
2.0747440414615335e-17
30
0
40
0.036614173228346453
210
0
220
0
230
1
0
ARC
5
101
100
AcDbEntity
8
PERIMETER
100
AcDbCircle
10
2.6225740739176924e-16
20
4.1494880829230671e-17
30
0
40
0.22374015748031492
210
0
220
0
230
1
100
AcDbArc
50
190.87430726882405
51
199.12569273117475
0
ARC
5
102
100
AcDbEntity
8
PERIMETER
100
AcDbCircle
10
-0.099318067620753944
20
-0.19078818128095254
30
0
40
0.19124015748031706
210
0
220
0
230
1
100
AcDbArc
50
106.23666189566786
51
129.02049253342483
0
ARC
5
103
100
AcDbEntity
8
PERIMETER
100
AcDbCircle
10
-0.15436559382017034
20
-0.0017648909681187543
30
0
40
0.0056355251759350527
210
-0
220
0
230
1
100
AcDbArc
50
-73.763338104332234
51
0.65504491980365231
0
ARC
5
104
100
AcDbEntity
8
PERIMETER
100
AcDbCircle
10
2.6225740739176924e-16
20
4.1494880829230671e-17
30
0
40
0.14874015748031505
210
0
220
0
230
1
100
AcDbArc
50
179.34495508020413
51
180.65504491979419
0
ARC
5
105
100
AcDbEntity
8
PERIMETER
100
AcDbCircle
10
-0.15436559382017029
20
0.0017648909681220713
30
0
40
0.0056355251759350553
210
-0
220
0
230
1
100
AcDbArc
50
-0.65504491979586077
51
73.763338104330174
0
ARC
5
106
100
AcDbEntity
8
PERIMETER
100
AcDbCircle
10
-0.099318067620750752
20
0.19078818128095346
30
0
40
0.19124015748031523
210
0
220
0
230
1
100
AcDbArc
50
230.97950746657384
51
253.76333810433104
0
ARC
5
107
100
AcDbEntity
8
PERIMETER
100
AcDbCircle
10
2.6225740739176924e-16
20
4.1494880829230671e-17
30
0
40
0.22374015748031487
210
0
220
0
230
1
100
AcDbArc
50
160.87430726882403
51
169.12569273117458
0
ARC
5
108
100
AcDbEntity
8
PERIMETER
100
AcDbCircle
10
-0.18140606025483003
20
-0.11556837792075557
30
0
40
0.19124015748031439
210
0
220
-0
230
1
100
AcDbArc
50
76.236661895667609
51
99.020492533424886
0
ARC
5
109
100
AcDbEntity
8
PERIMETER
100
AcDbCircle
10
-0.13456697120259692
20
0.075654356496784911
30
0
40
0.0056355251759350458
210
0
220
0
230
1
100
AcDbArc
50
256.23666189566751
51
330.65504491979118
0
ARC
5
10A
100
AcDbEntity
8
PERIMETER
100
AcDbCircle
10
2.6225740739176924e-16
20
4.1494880829230671e-17
30
0
40
0.14874015748031502
210
0
220
0
230
1
100
AcDbArc
50
149.34495508020387
51
150.65504491979505
0
ARC
5
10B
100
AcDbEntity
8
PERIMETER
100
AcDbCircle
10
-0.13280208023447646
20
0.078711237323388847
30
0
40
0.0056355251759350605
210
-0
220
0
230
1
100
AcDbArc
50
-30.655044919796033
51
43.763338104331403
0
ARC
5
10C
100
AcDbEntity
8
PERIMETER
100
AcDbCircle
10
0.009382121026126667
20
0.21488644554151221
30
0
40
0.19124015748031614
210
0
220
0
230
1
100
AcDbArc
50
200.97950746657386
51
223.7633381043309
0
ARC
5
10D
100
AcDbEntity
8
PERIMETER
100
AcDbCircle
10
2.6225740739176924e-16
20
4.1494880829230671e-17
30
0
40
0.22374015748031487
210
0
220
0
230
1
100
AcDbArc
50
130.87430726882394
51
139.12569273117464
0
ARC
5
10E
100
AcDbEntity
8
PERIMETER
100
AcDbCircle
10
-0.21488644554151207
20
-0.0093821210261210517
30
0
40
0.19124015748031614
210
0
220
-0
230
1
100
AcDbArc
50
46.236661895667631
51
69.020492533424715
0
ARC
5
10F
100
AcDbEntity
8
PERIMETER
100
AcDbCircle
10
-0.078711237323385336
20
0.13280208023447873
30
0
40
0.0056355251759350571
210
0
220
0
230
1
100
AcDbArc
50
226.23666189566819
51
300.6550449197934
0
ARC
5
110
100
AcDbEntity
8
PERIMETER
100
AcDbCircle
10
2.6225740739176924e-16
20
4.1494880829230671e-17
30
0
40
0.14874015748031505
210
0
220
0
230
1
100
AcDbArc
50
119.34495508020382
51
120.65504491979472
0
ARC
5
111
100
AcDbEntity
8
PERIMETER
100
AcDbCircle
10
-0.075654356496781316
20
0.13456697120259908
30
0
40
0.0056355251759350553
210
-0
220
0
230
1
100
AcDbArc
50
-60.655044919796246
51
13.763338104330701
0
ARC
5
112
100
AcDbEntity
8
PERIMETER
100
AcDbCircle
10
0.11556837792076295
20
0.18140606025482767
30
0
40
0.19124015748031706
210
0
220
0
230
1
100
AcDbArc
50
170.97950746657389
51
193.76333810433078
0
ARC
5
113
100
AcDbEntity
8
PERIMETER
100
AcDbCircle
10
2.6225740739176924e-16
20
4.1494880829230671e-17
30
0
40
0.22374015748031495
210
0
220
0
230
1
100
AcDbArc
50
100.87430726882469
51
109.12569273117455
0
ARC
5
114
100
AcDbEntity
8
PERIMETER
100
AcDbCircle
10
-0.19078818128095157
20
0.099318067620753264
30
0
40
0.19124015748031498
210
0
220
-0
230
1
100
AcDbArc
50
16.236661895668316
51
39.020492533425539
0
ARC
5
115
100
AcDbEntity
8
PERIMETER
100
AcDbCircle
10
-0.0017648909681201505
20
0.15436559382017062
30
0
40
0.005635525175935077
210
0
220
0
230
1
100
AcDbArc
50
196.23666189566859
51
270.65504491980522
0
ARC
5
116
100
AcDbEntity
8
PERIMETER
100
AcDbCircle
10
2.6225740739176924e-16
20
4.1494880829230671e-17
30
0
40
0.14874015748031499
210
0
220
-0
230
1
100
AcDbArc
50
89.344955080204556
51
90.655044919794847
0
ARC
5
117
100
AcDbEntity
8
PERIMETER
100
AcDbCircle
10
0.0017648909681206751
20
0.15436559382017062
30
0
40
0.005635525175935077
210
0
220
0
230
1
100
AcDbArc
50
269.3449550802045
51
343.76333810433113
0
ARC
5
118
100
AcDbEntity
8
PERIMETER
100
AcDbCircle
10
0.1907881812809506
20
0.099318067620754055
30
0
40
0.19124015748031342
210
0
220
0
230
1
100
AcDbArc
50
140.97950746657435
51
163.76333810433175
0
ARC
5
119
100
AcDbEntity
8
PERIMETER
100
AcDbCircle
10
2.6225740739176924e-16
20
4.1494880829230671e-17
30
0
40
0.22374015748031501
210
0
220
-0
230
1
100
AcDbArc
50
70.874307268824609
51
79.125692731175334
0
ARC
5
11A
100
AcDbEntity
8
PERIMETER
100
AcDbCircle
10
-0.11556837792075782
20
0.18140606025482908
30
0
40
0.19124015748031503
210
-0
220
0
230
1
100
AcDbArc
50
-13.763338104331737
51
9.0204925334255339
0
ARC
5
11B
100
AcDbEntity
8
PERIMETER
100
AcDbCircle
10
0.075654356496783717
20
0.13456697120259803
30
0
40
0.0056355251759350302
210
0
220
0
230
1
100
AcDbArc
50
166.23666189566836
51
240.65504491979581
0
ARC
5
11C
100
AcDbEntity
8
PERIMETER
100
AcDbCircle
10
2.6225740739176924e-16
20
4.1494880829230671e-17
30
0
40
0.14874015748031502
210
0
220
-0
230
1
100
AcDbArc
50
59.344955080204493
51
60.655044919795358
0
ARC
5
11D
100
AcDbEntity
8
PERIMETER
100
AcDbCircle
10
0.078711237323387709
20
0.13280208023447759
30
0
40
0.0056355251759350683
210
0
220
0
230
1
100
AcDbArc
50
239.34495508020422
51
313.76333810433152
0
ARC
5
11E
100
AcDbEntity
8
PERIMETER
100
AcDbCircle
10
0.21488644554151154
20
-0.0093821210261226477
30
0
40
0.19124015748031428
210
0
220
0
230
1
100
AcDbArc
50
110.97950746657423
51
133.76333810433167
0
ARC
5
11F
100
AcDbEntity
8
PERIMETER
100
AcDbCircle
10
2.6225740739176924e-16
20
4.1494880829230671e-17
30
0
40
0.22374015748031503
210
0
220
-0
230
1
100
AcDbArc
50
40.874307268824538
51
49.125692731175214
0
ARC
5
120
100
AcDbEntity
8
PERIMETER
100
AcDbCircle
10
-0.0093821210261219035
20
0.21488644554151151
30
0
40
0.19124015748031481
210
-0
220
0
230
1
100
AcDbArc
50
316.23666189566819
51
339.02049253342551
0
ARC
5
121
100
AcDbEntity
8
PERIMETER
100
AcDbCircle
10
0.13280208023447812
20
0.078711237323387001
30
0
40
0.0056355251759350493
210
0
220
0
230
1
100
AcDbArc
50
136.23666189566819
51
210.65504491979249
0
ARC
5
122
100
AcDbEntity
8
PERIMETER
100
AcDbCircle
10
2.6225740739176924e-16
20
4.1494880829230671e-17
30
0
40
0.14874015748031505
210
0
220
-0
230
1
100
AcDbArc
50
29.344955080204407
51
30.655044919795273
0
ARC
5
123
100
AcDbEntity
8
PERIMETER
100
AcDbCircle
10
0.1345669712025985
20
0.075654356496783023
30
0
40
0.0056355251759350727
210
0
220
0
230
1
100
AcDbArc
50
209.3449550802045
51
283.76333810433101
0
ARC
5
124
100
AcDbEntity
8
PERIMETER
100
AcDbCircle
10
0.18140606025482903
20
-0.11556837792076055
30
0
40
0.19124015748031681
210
0
220
-0
230
1
100
AcDbArc
50
80.979507466574361
51
103.76333810433145
0
ARC
5
125
100
AcDbEntity
8
PERIMETER
100
AcDbCircle
10
2.6225740739176924e-16
20
4.1494880829230671e-17
30
0
40
0.22374015748031512
210
0
220
-0
230
1
100
AcDbArc
50
10.874307268824477
51
19.12569273117515
0
ARC
5
126
100
AcDbEntity
8
PERIMETER
100
AcDbCircle
10
0.099318067620754028
20
0.19078818128095168
30
0
40
0.19124015748031531
210
-0
220
0
230
1
100
AcDbArc
50
286.23666189566814
51
309.02049253342534
0
ARC
5
127
100
AcDbEntity
8
PERIMETER
100
AcDbCircle
10
0.15436559382017084
20
0.0017648909681199155
30
0
40
0.0056355251759350041
210
0
220
0
230
1
100
AcDbArc
50
106.23666189566852
51
180.65504491979806
0
ARC
5
128
100
AcDbEntity
8
PERIMETER
100
AcDbCircle
10
2.6225740739176924e-16
20
4.1494880829230671e-17
30
0
40
0.1487401574803151
210
-0
220
0
230
1
100
AcDbArc
50
-0.65504491979530099
51
0.65504491979474988
0
ARC
5
129
100
AcDbEntity
8
PERIMETER
100
AcDbCircle
10
0.15436559382017084
20
-0.0017648909681209099
30
0
40
0.0056355251759350328
210
0
220
0
230
1
100
AcDbArc
50
179.3449550802047
51
253.76333810433127
0
ARC
5
12A
100
AcDbEntity
8
PERIMETER
100
AcDbCircle
10
0.099318067620752765
20
-0.19078818128095237
30
0
40
0.19124015748031542
210
0
220
-0
230
1
100
AcDbArc
50
50.979507466574297
51
73.763338104331439
0
ARC
5
12B
100
AcDbEntity
8
PERIMETER
100
AcDbCircle
10
2.6225740739176924e-16
20
4.1494880829230671e-17
30
0
40
0.22374015748031492
210
-0
220
0
230
1
100
AcDbArc
50
340.87430726882445
51
349.12569273117509
0
ARC
5
12C
100
AcDbEntity
8
PERIMETER
100
AcDbCircle
10
0.18140606025482983
20
0.11556837792075871
30
0
40
0.19124015748031617
210
0
220
0
230
1
100
AcDbArc
50
256.23666189566814
51
279.02049253342523
0
ARC
5
12D
100
AcDbEntity
8
PERIMETER
100
AcDbCircle
10
0.134566971202598
20
-0.075654356496783898
30
0
40
0.0056355251759350562
210
0
220
-0
230
1
100
AcDbArc
50
76.236661895668107
51
150.655044919793
0
ARC
5
12E
100
AcDbEntity
8
PERIMETER
100
AcDbCircle
10
2.6225740739176924e-16
20
4.1494880829230671e-17
30
0
40
0.14874015748031505
210
-0
220
0
230
1
100
AcDbArc
50
329.34495508020427
51
330.65504491979516
0
ARC
5
12F
100
AcDbEntity
8
PERIMETER
100
AcDbCircle
10
0.13280208023447757
20
-0.078711237323387861
30
0
40
0.0056355251759350493
210
0
220
0
230
1
100
AcDbArc
50
149.3449550802041
51
223.76333810433078
0
ARC
5
130
100
AcDbEntity
8
PERIMETER
100
AcDbCircle
10
-0.0093821210261238047
20
-0.21488644554151168
30
0
40
0.191240157480315
210
0
220
-0
230
1
100
AcDbArc
50
20.979507466574148
51
43.763338104331375
0
ARC
5
131
100
AcDbEntity
8
PERIMETER
100
AcDbCircle
10
2.6225740739176924e-16
20
4.1494880829230671e-17
30
0
40
0.22374015748031495
210
-0
220
0
230
1
100
AcDbArc
50
310.8743072688244
51
319.12569273117492
0
ARC
5
132
100
AcDbEntity
8
PERIMETER
100
AcDbCircle
10
0.21488644554151132
20
0.0093821210261208956
30
0
40
0.19124015748031409
210
0
220
0
230
1
100
AcDbArc
50
226.23666189566794
51
249.02049253342526
0
ARC
5
133
100
AcDbEntity
8
PERIMETER
100
AcDbCircle
10
0.078711237323386751
20
-0.13280208023447809
30
0
40
0.0056355251759350562
210
0
220
-0
230
1
100
AcDbArc
50
46.236661895667801
51
120.65504491980414
0
ARC
5
134
100
AcDbEntity
8
PERIMETER
100
AcDbCircle
10
2.6225740739176924e-16
20
4.1494880829230671e-17
30
0
40
0.14874015748031505
210
-0
220
0
230
1
100
AcDbArc
50
299.34495508020422
51
300.6550449197951
0
ARC
5
135
100
AcDbEntity
8
PERIMETER
100
AcDbCircle
10
0.07565435649678276
20
-0.13456697120259847
30
0
40
0.0056355251759350709
210
0
220
0
230
1
100
AcDbArc
50
119.344955080204
51
193.76333810433121
0
ARC
5
136
100
AcDbEntity
8
PERIMETER
100
AcDbCircle
10
-0.11556837792076044
20
-0.18140606025482822
30
0
40
0.19124015748031595
210
-0
220
0
230
1
100
AcDbArc
50
-9.0204925334258999
51
13.76333810433121
0
ARC
5
137
100
AcDbEntity
8
PERIMETER
100
AcDbCircle
10
2.6225740739176924e-16
20
4.1494880829230671e-17
30
0
40
0.22374015748031495
210
-0
220
0
230
1
100
AcDbArc
50
280.87430726882468
51
289.12569273117475
0
ARC
5
138
100
AcDbEntity
8
PERIMETER
100
AcDbCircle
10
0.19078818128095265
20
-0.099318067620752959
30
0
40
0.19124015748031561
210
0
220
0
230
1
100
AcDbArc
50
196.23666189566833
51
219.02049253342548
0
ARC
5
139
100
AcDbEntity
8
PERIMETER
100
AcDbCircle
10
0.0017648909681206751
20
-0.15436559382017054
30
0
40
0.0056355251759350709
210
0
220
-0
230
1
100
AcDbArc
50
16.23666189566859
51
90.655044919805221
0
ARC
5
13A
100
AcDbEntity
8
PERIMETER
100
AcDbCircle
10
2.6225740739176924e-16
20
4.1494880829230671e-17
30
0
40
0.14874015748031499
210
0
220
0
230
1
100
AcDbArc
50
269.34495508020456
51
270.65504491979488
0
ARC
5
13B
100
AcDbEntity
8
PERIMETER
100
AcDbCircle
10
-0.0017648909681201505
20
-0.15436559382017054
30
0
40
0.005635525175935077
210
0
220
-0
230
1
100
AcDbArc
50
89.3449550802045
51
163.76333810433172
0
ARC
5
13C
100
AcDbEntity
8
PERIMETER
100
AcDbCircle
10
-0.19078818128095157
20
-0.099318067620753264
30
0
40
0.19124015748031481
210
-0
220
0
230
1
100
AcDbArc
50
320.97950746657438
51
343.76333810433164
0
ARC
5
13D
100
AcDbEntity
8
PERIMETER
100
AcDbCircle
10
2.6225740739176924e-16
20
4.1494880829230671e-17
30
0
40
0.22374015748031487
210
0
220
0
230
1
100
AcDbArc
50
250.87430726882423
51
259.12569273117526
0
ARC
5
13E
100
AcDbEntity
8
PERIMETER
100
AcDbCircle
10
0.11556837792075782
20
-0.1814060602548298
30
0
40
0.19124015748031567
210
0
220
0
230
1
100
AcDbArc
50
166.23666189566791
51
189.02049253342503
0
ARC
5
13F
100
AcDbEntity
8
PERIMETER
100
AcDbCircle
10
-0.075654356496784134
20
-0.13456697120259742
30
0
40
0.0056355251759350675
210
-0
220
0
230
1
100
AcDbArc
50
-13.763338104332144
51
60.655044919796019
0
ARC
5
140
100
AcDbEntity
8
PERIMETER
100
AcDbCircle
10
2.6225740739176924e-16
20
4.1494880829230671e-17
30
0
40
0.14874015748031505
210
0
220
0
230
1
100
AcDbArc
50
239.34495508020407
51
240.65504491979493
0
ARC
5
141
100
AcDbEntity
8
PERIMETER
100
AcDbCircle
10
-0.078711237323388097
20
-0.13280208023447698
30
0
40
0.0056355251759350493
210
0
220
-0
230
1
100
AcDbArc
50
59.344955080204215
51
133.76333810433141
0
ARC
5
142
100
AcDbEntity
8
PERIMETER
100
AcDbCircle
10
-0.21488644554151107
20
0.0093821210261243928
30
0
40
0.19124015748031503
210
-0
220
0
230
1
100
AcDbArc
50
290.97950746657398
51
313.76333810433118
0
ARC
5
143
100
AcDbEntity
8
PERIMETER
100
AcDbCircle
10
2.6225740739176924e-16
20
4.1494880829230671e-17
30
0
40
0.22374015748031501
210
0
220
0
230
1
100
AcDbArc
50
220.87430726882417
51
229.12569273117489
0
ARC
5
144
100
AcDbEntity
8
PERIMETER
100
AcDbCircle
10
0.009382121026122122
20
-0.21488644554151229
30
0
40
0.19124015748031611
210
0
220
0
230
1
100
AcDbArc
50
136.23666189566785
51
159.020492533425
0
ARC
5
145
100
AcDbEntity
8
PERIMETER
100
AcDbCircle
10
-0.13280208023447812
20
-0.078711237323385988
30
0
40
0.005635525175935103
210
-0
220
0
230
1
100
AcDbArc
50
-43.763338104331908
51
30.655044919802062
0
ARC
5
146
100
AcDbEntity
8
PERIMETER
100
AcDbCircle
10
2.6225740739176924e-16
20
4.1494880829230671e-17
30
0
40
0.14874015748031502
210
0
220
0
230
1
100
AcDbArc
50
209.34495508020402
51
210.65504491979488
0
ARC
5
147
100
AcDbEntity
8
PERIMETER
100
AcDbCircle
10
-0.1345669712025985
20
-0.075654356496781996
30
0
40
0.0056355251759350597
210
0
220
-0
230
1
100
AcDbArc
50
29.344955080203743
51
103.76333810433101
0
ARC
5
148
100
AcDbEntity
8
PERIMETER
100
AcDbCircle
10
-0.18140606025482758
20
0.11556837792075988
30
0
40
0.19124015748031487
210
0
220
0
230
1
100
AcDbArc
50
260.97950746657392
51
283.76333810433113
0
ENDSEC
0
SECTION
2
OBJECTS
0
DICTIONARY
5
C
100
AcDbDictionary
3
ACAD_GROUP
350
D
3
ACAD_MLINESTYLE
350
17
0
DICTIONARY
5
D
100
AcDbDictionary
0
DICTIONARY
5
1A
330
C
100
AcDbDictionary
0
DICTIONARY
5
17
100
AcDbDictionary
0
ENDSEC
0
EOF
