0
SECTION
2
HEADER
9
$INSUNITS
70
1
9
$ACADVER
1
AC1014
9
$HANDSEED
5
FFFF
0
ENDSEC
0
SECTION
2
TABLES
0
TABLE
2
VPORT
5
8
100
AcDbSymbolTable
0
ENDTAB
0
TABLE
2
LTYPE
5
5
100
AcDbSymbolTable
70
2
0
LTYPE
5
14
100
AcDbSymbolTableRecord
100
AcDbLinetypeTableRecord
2
BYBLOCK
70
0
0
LTYPE
5
15
100
AcDbSymbolTableRecord
100
AcDbLinetypeTableRecord
2
BYLAYER
70
0
0
ENDTAB
0
TABLE
2
LAYER
5
2
100
AcDbSymbolTable
70
3
0
LAYER
5
50
100
AcDbSymbolTableRecord
100
AcDbLayerTableRecord
2
0
70
0
6
CONTINUOUS
0
LAYER
5
51
100
AcDbSymbolTableRecord
100
AcDbLayerTableRecord
2
CUTOUTS
70
0
62
1
6
CONTINUOUS
0
LAYER
5
52
100
AcDbSymbolTableRecord
100
AcDbLayerTableRecord
2
PERIMETER
70
0
62
5
6
CONTINUOUS
0
ENDTAB
0
TABLE
2
STYLE
5
3
100
AcDbSymbolTable
70
1
0
STYLE
5
11
100
AcDbSymbolTableRecord
100
AcDbTextStyleTableRecord
2
STANDARD
70
0
0
ENDTAB
0
TABLE
2
VIEW
5
6
100
AcDbSymbolTable
0
ENDTAB
0
TABLE
2
UCS
5
7
100
AcDbSymbolTable
0
ENDTAB
0
TABLE
2
APPID
5
9
100
AcDbSymbolTable
70
1
0
APPID
5
12
100
AcDbSymbolTableRecord
100
AcDbRegAppTableRecord
2
ACAD
70
0
0
ENDTAB
0
TABLE
2
DIMSTYLE
5
A
100
AcDbSymbolTable
0
ENDTAB
0
TABLE
2
BLOCK_RECORD
5
1
100
AcDbSymbolTable
70
2
0
BLOCK_RECORD
5
1F
100
AcDbSymbolTableRecord
100
AcDbBlockTableRecord
2
*MODEL_SPACE
0
BLOCK_RECORD
5
1B
100
AcDbSymbolTableRecord
100
AcDbBlockTableRecord
2
*PAPER_SPACE
0
ENDTAB
0
ENDSEC
0
SECTION
2
BLOCKS
0
BLOCK
5
20
100
AcDbEntity
100
AcDbBlockBegin
2
*MODEL_SPACE
0
ENDBLK
5
21
100
AcDbEntity
100
AcDbBlockEnd
0
BLOCK
5
1C
100
AcDbEntity
100
AcDbBlockBegin
2
*PAPER_SPACE
0
ENDBLK
5
1D
100
AcDbEntity
100
AcDbBlockEnd
0
ENDSEC
0
SECTION
2
ENTITIES
0
CIRCLE
5
100
100
AcDbEntity
8
CUTOUTS
100
AcDbCircle
10
1.3112870369588462e-16
20
2.0747440414615335e-17
30
0
40
0.036417322834645674
210
0
220
0
230
1
0
ARC
5
101
100
AcDbEntity
8
PERIMETER
100
AcDbCircle
10
-0.099318067620753944
20
-0.19078818128095254
30
0
40
0.19045275590551386
210
0
220
0
230
1
100
AcDbArc
50
106.23666189566786
51
128.87849400104284
0
ARC
5
102
100
AcDbEntity
8
PERIMETER
100
AcDbCircle
10
2.6225740739176924e-16
20
4.1494880829230671e-17
30
0
40
0.22295275590551181
210
0
220
0
230
1
100
AcDbArc
50
190.99564297179245
51
199.00435702820633
0
ARC
5
103
100
AcDbEntity
8
PERIMETER
100
AcDbCircle
10
-0.18140606025482758
20
0.11556837792075988
30
0
40
0.19045275590551161
210
0
220
0
230
1
100
AcDbArc
50
261.12150599895591
51
283.76333810433113
0
ARC
5
104
100
AcDbEntity
8
PERIMETER
100
AcDbCircle
10
-0.1345669712025985
20
-0.075654356496781996
30
0
40
0.0064229267507382119
210
0
220
-0
230
1
100
AcDbArc
50
29.344955080203945
51
103.763338104331
0
ARC
5
105
100
AcDbEntity
8
PERIMETER
100
AcDbCircle
10
2.6225740739176924e-16
20
4.1494880829230671e-17
30
0
40
0.14795275590551188
210
0
220
0
230
1
100
AcDbArc
50
209.34495508020402
51
210.65504491979488
0
ARC
5
106
100
AcDbEntity
8
PERIMETER
100
AcDbCircle
10
-0.13280208023447812
20
-0.078711237323385988
30
0
40
0.0064229267507382119
210
-0
220
0
230
1
100
AcDbArc
50
-43.763338104331702
51
30.655044919801931
0
ARC
5
107
100
AcDbEntity
8
PERIMETER
100
AcDbCircle
10
0.009382121026122122
20
-0.21488644554151229
30
0
40
0.19045275590551297
210
0
220
0
230
1
100
AcDbArc
50
136.23666189566779
51
158.87849400104295
0
ARC
5
108
100
AcDbEntity
8
PERIMETER
100
AcDbCircle
10
2.6225740739176924e-16
20
4.1494880829230671e-17
30
0
40
0.22295275590551181
210
0
220
0
230
1
100
AcDbArc
50
220.99564297179253
51
229.00435702820656
0
ARC
5
109
100
AcDbEntity
8
PERIMETER
100
AcDbCircle
10
-0.21488644554151107
20
0.0093821210261243928
30
0
40
0.19045275590551183
210
-0
220
0
230
1
100
AcDbArc
50
291.12150599895597
51
313.76333810433118
0
ARC
5
10A
100
AcDbEntity
8
PERIMETER
100
AcDbCircle
10
-0.078711237323388097
20
-0.13280208023447698
30
0
40
0.0064229267507382292
210
0
220
-0
230
1
100
AcDbArc
50
59.344955080204066
51
133.76333810433141
0
ARC
5
10B
100
AcDbEntity
8
PERIMETER
100
AcDbCircle
10
2.6225740739176924e-16
20
4.1494880829230671e-17
30
0
40
0.14795275590551188
210
0
220
0
230
1
100
AcDbArc
50
239.34495508020407
51
240.65504491979439
0
ARC
5
10C
100
AcDbEntity
8
PERIMETER
100
AcDbCircle
10
-0.075654356496784134
20
-0.13456697120259742
30
0
40
0.0064229267507382179
210
-0
220
0
230
1
100
AcDbArc
50
-13.763338104331993
51
60.655044919796147
0
ARC
5
10D
100
AcDbEntity
8
PERIMETER
100
AcDbCircle
10
0.11556837792075782
20
-0.1814060602548298
30
0
40
0.1904527559055125
210
0
220
0
230
1
100
AcDbArc
50
166.23666189566791
51
188.87849400104298
0
ARC
5
10E
100
AcDbEntity
8
PERIMETER
100
AcDbCircle
10
2.6225740739176924e-16
20
4.1494880829230671e-17
30
0
40
0.22295275590551181
210
0
220
0
230
1
100
AcDbArc
50
250.99564297179256
51
259.00435702820687
0
ARC
5
10F
100
AcDbEntity
8
PERIMETER
100
AcDbCircle
10
-0.19078818128095157
20
-0.099318067620753264
30
0
40
0.19045275590551161
210
-0
220
0
230
1
100
AcDbArc
50
321.12150599895648
51
343.76333810433164
0
ARC
5
110
100
AcDbEntity
8
PERIMETER
100
AcDbCircle
10
-0.0017648909681201505
20
-0.15436559382017054
30
0
40
0.0064229267507382674
210
0
220
-0
230
1
100
AcDbArc
50
89.3449550802045
51
163.76333810433155
0
ARC
5
111
100
AcDbEntity
8
PERIMETER
100
AcDbCircle
10
2.6225740739176924e-16
20
4.1494880829230671e-17
30
0
40
0.14795275590551182
210
0
220
0
230
1
100
AcDbArc
50
269.34495508020456
51
270.65504491979539
0
ARC
5
112
100
AcDbEntity
8
PERIMETER
100
AcDbCircle
10
0.0017648909681206751
20
-0.15436559382017054
30
0
40
0.0064229267507382361
210
0
220
-0
230
1
100
AcDbArc
50
16.236661895668544
51
90.655044919805249
0
ARC
5
113
100
AcDbEntity
8
PERIMETER
100
AcDbCircle
10
0.19078818128095265
20
-0.099318067620752959
30
0
40
0.19045275590551244
210
0
220
0
230
1
100
AcDbArc
50
196.23666189566833
51
218.87849400104349
0
ARC
5
114
100
AcDbEntity
8
PERIMETER
100
AcDbCircle
10
2.6225740739176924e-16
20
4.1494880829230671e-17
30
0
40
0.22295275590551181
210
-0
220
0
230
1
100
AcDbArc
50
280.99564297179302
51
289.00435702820641
0
ARC
5
115
100
AcDbEntity
8
PERIMETER
100
AcDbCircle
10
-0.11556837792076044
20
-0.18140606025482822
30
0
40
0.19045275590551283
210
-0
220
0
230
1
100
AcDbArc
50
-8.8784940010438902
51
13.76333810433121
0
ARC
5
116
100
AcDbEntity
8
PERIMETER
100
AcDbCircle
10
0.07565435649678276
20
-0.13456697120259847
30
0
40
0.0064229267507382223
210
0
220
0
230
1
100
AcDbArc
50
119.34495508020406
51
193.76333810433147
0
ARC
5
117
100
AcDbEntity
8
PERIMETER
100
AcDbCircle
10
2.6225740739176924e-16
20
4.1494880829230671e-17
30
0
40
0.14795275590551193
210
-0
220
0
230
1
100
AcDbArc
50
299.34495508020422
51
300.65504491979448
0
ARC
5
118
100
AcDbEntity
8
PERIMETER
100
AcDbCircle
10
0.078711237323386751
20
-0.13280208023447809
30
0
40
0.0064229267507381485
210
0
220
-0
230
1
100
AcDbArc
50
46.236661895668036
51
120.65504491980433
0
ARC
5
119
100
AcDbEntity
8
PERIMETER
100
AcDbCircle
10
0.21488644554151132
20
0.0093821210261208956
30
0
40
0.19045275590551097
210
0
220
0
230
1
100
AcDbArc
50
226.23666189566794
51
248.87849400104326
0
ARC
5
11A
100
AcDbEntity
8
PERIMETER
100
AcDbCircle
10
2.6225740739176924e-16
20
4.1494880829230671e-17
30
0
40
0.22295275590551181
210
-0
220
0
230
1
100
AcDbArc
50
310.99564297179268
51
319.00435702820658
0
ARC
5
11B
100
AcDbEntity
8
PERIMETER
100
AcDbCircle
10
-0.0093821210261238047
20
-0.21488644554151168
30
0
40
0.19045275590551183
210
0
220
-0
230
1
100
AcDbArc
50
21.121505998956156
51
43.763338104331396
0
ARC
5
11C
100
AcDbEntity
8
PERIMETER
100
AcDbCircle
10
0.13280208023447757
20
-0.078711237323387861
30
0
40
0.0064229267507382006
210
0
220
0
230
1
100
AcDbArc
50
149.34495508020407
51
223.76333810433084
0
ARC
5
11D
100
AcDbEntity
8
PERIMETER
100
AcDbCircle
10
2.6225740739176924e-16
20
4.1494880829230671e-17
30
0
40
0.14795275590551193
210
-0
220
0
230
1
100
AcDbArc
50
329.34495508020427
51
330.65504491979516
0
ARC
5
11E
100
AcDbEntity
8
PERIMETER
100
AcDbCircle
10
0.134566971202598
20
-0.075654356496783898
30
0
40
0.0064229267507382292
210
0
220
-0
230
1
100
AcDbArc
50
76.236661895668007
51
150.65504491979308
0
ARC
5
11F
100
AcDbEntity
8
PERIMETER
100
AcDbCircle
10
0.18140606025482983
20
0.11556837792075871
30
0
40
0.190452755905513
210
0
220
0
230
1
100
AcDbArc
50
256.23666189566814
51
278.87849400104318
0
ARC
5
120
100
AcDbEntity
8
PERIMETER
100
AcDbCircle
10
2.6225740739176924e-16
20
4.1494880829230671e-17
30
0
40
0.22295275590551181
210
-0
220
0
230
1
100
AcDbArc
50
340.99564297179273
51
349.00435702820675
0
ARC
5
121
100
AcDbEntity
8
PERIMETER
100
AcDbCircle
10
0.099318067620752765
20
-0.19078818128095237
30
0
40
0.19045275590551233
210
0
220
-0
230
1
100
AcDbArc
50
51.121505998956316
51
73.763338104331424
0
ARC
5
122
100
AcDbEntity
8
PERIMETER
100
AcDbCircle
10
0.15436559382017084
20
-0.0017648909681209099
30
0
40
0.006422926750738224
210
0
220
0
230
1
100
AcDbArc
50
179.3449550802047
51
253.76333810433115
0
ARC
5
123
100
AcDbEntity
8
PERIMETER
100
AcDbCircle
10
2.6225740739176924e-16
20
4.1494880829230671e-17
30
0
40
0.14795275590551191
210
-0
220
0
230
1
100
AcDbArc
50
-0.65504491979474122
51
0.65504491979419344
0
ARC
5
124
100
AcDbEntity
8
PERIMETER
100
AcDbCircle
10
0.15436559382017084
20
0.0017648909681199155
30
0
40
0.0064229267507382335
210
0
220
0
230
1
100
AcDbArc
50
106.23666189566832
51
180.65504491979806
0
ARC
5
125
100
AcDbEntity
8
PERIMETER
100
AcDbCircle
10
0.099318067620754028
20
0.19078818128095168
30
0
40
0.19045275590551203
210
-0
220
0
230
1
100
AcDbArc
50
286.23666189566814
51
308.87849400104341
0
ARC
5
126
100
AcDbEntity
8
PERIMETER
100
AcDbCircle
10
2.6225740739176924e-16
20
4.1494880829230671e-17
30
0
40
0.22295275590551195
210
0
220
-0
230
1
100
AcDbArc
50
10.995642971792853
51
19.00435702820678
0
ARC
5
127
100
AcDbEntity
8
PERIMETER
100
AcDbCircle
10
0.18140606025482903
20
-0.11556837792076055
30
0
40
0.19045275590551369
210
0
220
-0
230
1
100
AcDbArc
50
81.12150599895638
51
103.76333810433144
0
ARC
5
128
100
AcDbEntity
8
PERIMETER
100
AcDbCircle
10
0.1345669712025985
20
0.075654356496783023
30
0
40
0.0064229267507382387
210
0
220
0
230
1
100
AcDbArc
50
209.34495508020439
51
283.76333810433118
0
ARC
5
129
100
AcDbEntity
8
PERIMETER
100
AcDbCircle
10
2.6225740739176924e-16
20
4.1494880829230671e-17
30
0
40
0.14795275590551191
210
0
220
-0
230
1
100
AcDbArc
50
29.344955080204414
51
30.655044919795287
0
ARC
5
12A
100
AcDbEntity
8
PERIMETER
100
AcDbCircle
10
0.13280208023447812
20
0.078711237323387001
30
0
40
0.0064229267507382197
210
0
220
0
230
1
100
AcDbArc
50
136.23666189566819
51
210.65504491979226
0
ARC
5
12B
100
AcDbEntity
8
PERIMETER
100
AcDbCircle
10
-0.0093821210261219035
20
0.21488644554151151
30
0
40
0.19045275590551167
210
-0
220
0
230
1
100
AcDbArc
50
316.23666189566819
51
338.87849400104346
0
ARC
5
12C
100
AcDbEntity
8
PERIMETER
100
AcDbCircle
10
2.6225740739176924e-16
20
4.1494880829230671e-17
30
0
40
0.22295275590551181
210
0
220
-0
230
1
100
AcDbArc
50
40.995642971792925
51
49.004357028206712
0
ARC
5
12D
100
AcDbEntity
8
PERIMETER
100
AcDbCircle
10
0.21488644554151154
20
-0.0093821210261226477
30
0
40
0.19045275590551103
210
0
220
0
230
1
100
AcDbArc
50
111.12150599895628
51
133.76333810433161
0
ARC
5
12E
100
AcDbEntity
8
PERIMETER
100
AcDbCircle
10
0.078711237323387709
20
0.13280208023447759
30
0
40
0.0064229267507382179
210
0
220
0
230
1
100
AcDbArc
50
239.34495508020419
51
313.76333810433147
0
ARC
5
12F
100
AcDbEntity
8
PERIMETER
100
AcDbCircle
10
2.6225740739176924e-16
20
4.1494880829230671e-17
30
0
40
0.14795275590551188
210
0
220
-0
230
1
100
AcDbArc
50
59.344955080204493
51
60.65504491979479
0
ARC
5
130
100
AcDbEntity
8
PERIMETER
100
AcDbCircle
10
0.075654356496783717
20
0.13456697120259803
30
0
40
0.0064229267507382032
210
0
220
0
230
1
100
AcDbArc
50
166.2366618956685
51
240.65504491979604
0
ARC
5
131
100
AcDbEntity
8
PERIMETER
100
AcDbCircle
10
-0.11556837792075782
20
0.18140606025482908
30
0
40
0.19045275590551183
210
-0
220
0
230
1
100
AcDbArc
50
-13.763338104331737
51
8.8784940010434479
0
ARC
5
132
100
AcDbEntity
8
PERIMETER
100
AcDbCircle
10
2.6225740739176924e-16
20
4.1494880829230671e-17
30
0
40
0.22295275590551183
210
0
220
-0
230
1
100
AcDbArc
50
70.995642971792989
51
79.004357028206897
0
ARC
5
133
100
AcDbEntity
8
PERIMETER
100
AcDbCircle
10
0.1907881812809506
20
0.099318067620754055
30
0
40
0.19045275590551028
210
0
220
0
230
1
100
AcDbArc
50
141.12150599895634
51
163.76333810433175
0
ARC
5
134
100
AcDbEntity
8
PERIMETER
100
AcDbCircle
10
0.0017648909681206751
20
0.15436559382017062
30
0
40
0.0064229267507382674
210
0
220
0
230
1
100
AcDbArc
50
269.3449550802045
51
343.76333810433078
0
ARC
5
135
100
AcDbEntity
8
PERIMETER
100
AcDbCircle
10
2.6225740739176924e-16
20
4.1494880829230671e-17
30
0
40
0.14795275590551182
210
0
220
-0
230
1
100
AcDbArc
50
89.344955080204556
51
90.655044919794847
0
ARC
5
136
100
AcDbEntity
8
PERIMETER
100
AcDbCircle
10
-0.0017648909681201505
20
0.15436559382017062
30
0
40
0.0064229267507382361
210
0
220
0
230
1
100
AcDbArc
50
196.23666189566828
51
270.65504491980522
0
ARC
5
137
100
AcDbEntity
8
PERIMETER
100
AcDbCircle
10
-0.19078818128095157
20
0.099318067620753264
30
0
40
0.19045275590551183
210
0
220
-0
230
1
100
AcDbArc
50
16.236661895668316
51
38.878494001043556
0
ARC
5
138
100
AcDbEntity
8
PERIMETER
100
AcDbCircle
10
2.6225740739176924e-16
20
4.1494880829230671e-17
30
0
40
0.22295275590551181
210
0
220
0
230
1
100
AcDbArc
50
100.99564297179306
51
109.0043570282062
0
ARC
5
139
100
AcDbEntity
8
PERIMETER
100
AcDbCircle
10
0.11556837792076295
20
0.18140606025482767
30
0
40
0.19045275590551392
210
0
220
0
230
1
100
AcDbArc
50
171.12150599895585
51
193.76333810433087
0
ARC
5
13A
100
AcDbEntity
8
PERIMETER
100
AcDbCircle
10
-0.075654356496781316
20
0.13456697120259908
30
0
40
0.0064229267507382249
210
-0
220
0
230
1
100
AcDbArc
50
-60.655044919796204
51
13.763338104330941
0
ARC
5
13B
100
AcDbEntity
8
PERIMETER
100
AcDbCircle
10
2.6225740739176924e-16
20
4.1494880829230671e-17
30
0
40
0.14795275590551188
210
0
220
0
230
1
100
AcDbArc
50
119.34495508020382
51
120.65504491979472
0
ARC
5
13C
100
AcDbEntity
8
PERIMETER
100
AcDbCircle
10
-0.078711237323385336
20
0.13280208023447873
30
0
40
0.0064229267507381798
210
0
220
0
230
1
100
AcDbArc
50
226.23666189566811
51
300.6550449197934
0
ARC
5
13D
100
AcDbEntity
8
PERIMETER
100
AcDbCircle
10
-0.21488644554151207
20
-0.0093821210261210517
30
0
40
0.190452755905513
210
0
220
-0
230
1
100
AcDbArc
50
46.236661895667652
51
68.878494001042696
0
ARC
5
13E
100
AcDbEntity
8
PERIMETER
100
AcDbCircle
10
2.6225740739176924e-16
20
4.1494880829230671e-17
30
0
40
0.22295275590551167
210
0
220
0
230
1
100
AcDbArc
50
130.99564297179231
51
139.00435702820619
0
ARC
5
13F
100
AcDbEntity
8
PERIMETER
100
AcDbCircle
10
0.009382121026126667
20
0.21488644554151221
30
0
40
0.190452755905513
210
0
220
0
230
1
100
AcDbArc
50
201.12150599895588
51
223.76333810433093
0
ARC
5
140
100
AcDbEntity
8
PERIMETER
100
AcDbCircle
10
-0.13280208023447646
20
0.078711237323388847
30
0
40
0.0064229267507382171
210
-0
220
0
230
1
100
AcDbArc
50
-30.655044919796133
51
43.763338104331098
0
ARC
5
141
100
AcDbEntity
8
PERIMETER
100
AcDbCircle
10
2.6225740739176924e-16
20
4.1494880829230671e-17
30
0
40
0.14795275590551188
210
0
220
0
230
1
100
AcDbArc
50
149.3449550802039
51
150.65504491979476
0
ARC
5
142
100
AcDbEntity
8
PERIMETER
100
AcDbCircle
10
-0.13456697120259692
20
0.075654356496784911
30
0
40
0.0064229267507382179
210
0
220
0
230
1
100
AcDbArc
50
256.23666189566751
51
330.65504491979118
0
ARC
5
143
100
AcDbEntity
8
PERIMETER
100
AcDbCircle
10
-0.18140606025483003
20
-0.11556837792075557
30
0
40
0.19045275590551122
210
0
220
-0
230
1
100
AcDbArc
50
76.236661895667609
51
98.878494001042881
0
ARC
5
144
100
AcDbEntity
8
PERIMETER
100
AcDbCircle
10
2.6225740739176924e-16
20
4.1494880829230671e-17
30
0
40
0.22295275590551175
210
0
220
0
230
1
100
AcDbArc
50
160.99564297179239
51
169.00435702820627
0
ARC
5
145
100
AcDbEntity
8
PERIMETER
100
AcDbCircle
10
-0.099318067620750752
20
0.19078818128095346
30
0
40
0.19045275590551203
210
0
220
0
230
1
100
AcDbArc
50
231.12150599895585
51
253.76333810433104
0
ARC
5
146
100
AcDbEntity
8
PERIMETER
100
AcDbCircle
10
-0.15436559382017029
20
0.0017648909681220713
30
0
40
0.006422926750738224
210
-0
220
0
230
1
100
AcDbArc
50
-0.65504491979586077
51
73.763338104330145
0
ARC
5
147
100
AcDbEntity
8
PERIMETER
100
AcDbCircle
10
2.6225740739176924e-16
20
4.1494880829230671e-17
30
0
40
0.14795275590551191
210
0
220
0
230
1
100
AcDbArc
50
179.34495508020413
51
180.65504491979419
0
ARC
5
148
100
AcDbEntity
8
PERIMETER
100
AcDbCircle
10
-0.15436559382017034
20
-0.0017648909681187543
30
0
40
0.0064229267507382361
210
-0
220
0
230
1
100
AcDbArc
50
-73.763338104332234
51
0.65504491980365231
0
ENDSEC
0
SECTION
2
OBJECTS
0
DICTIONARY
5
C
100
AcDbDictionary
3
ACAD_GROUP
350
D
3
ACAD_MLINESTYLE
350
17
0
DICTIONARY
5
D
100
AcDbDictionary
0
DICTIONARY
5
1A
330
C
100
AcDbDictionary
0
DICTIONARY
5
17
100
AcDbDictionary
0
ENDSEC
0
EOF
