0
SECTION
2
HEADER
9
$INSUNITS
70
1
9
$ACADVER
1
AC1014
9
$HANDSEED
5
FFFF
0
ENDSEC
0
SECTION
2
TABLES
0
TABLE
2
VPORT
5
8
100
AcDbSymbolTable
0
ENDTAB
0
TABLE
2
LTYPE
5
5
100
AcDbSymbolTable
70
2
0
LTYPE
5
14
100
AcDbSymbolTableRecord
100
AcDbLinetypeTableRecord
2
BYBLOCK
70
0
0
LTYPE
5
15
100
AcDbSymbolTableRecord
100
AcDbLinetypeTableRecord
2
BYLAYER
70
0
0
ENDTAB
0
TABLE
2
LAYER
5
2
100
AcDbSymbolTable
70
3
0
LAYER
5
50
100
AcDbSymbolTableRecord
100
AcDbLayerTableRecord
2
0
70
0
6
CONTINUOUS
0
LAYER
5
51
100
AcDbSymbolTableRecord
100
AcDbLayerTableRecord
2
CUTOUTS
70
0
62
1
6
CONTINUOUS
0
LAYER
5
52
100
AcDbSymbolTableRecord
100
AcDbLayerTableRecord
2
PERIMETER
70
0
62
5
6
CONTINUOUS
0
ENDTAB
0
TABLE
2
STYLE
5
3
100
AcDbSymbolTable
70
1
0
STYLE
5
11
100
AcDbSymbolTableRecord
100
AcDbTextStyleTableRecord
2
STANDARD
70
0
0
ENDTAB
0
TABLE
2
VIEW
5
6
100
AcDbSymbolTable
0
ENDTAB
0
TABLE
2
UCS
5
7
100
AcDbSymbolTable
0
ENDTAB
0
TABLE
2
APPID
5
9
100
AcDbSymbolTable
70
1
0
APPID
5
12
100
AcDbSymbolTableRecord
100
AcDbRegAppTableRecord
2
ACAD
70
0
0
ENDTAB
0
TABLE
2
DIMSTYLE
5
A
100
AcDbSymbolTable
0
ENDTAB
0
TABLE
2
BLOCK_RECORD
5
1
100
AcDbSymbolTable
70
2
0
BLOCK_RECORD
5
1F
100
AcDbSymbolTableRecord
100
AcDbBlockTableRecord
2
*MODEL_SPACE
0
BLOCK_RECORD
5
1B
100
AcDbSymbolTableRecord
100
AcDbBlockTableRecord
2
*PAPER_SPACE
0
ENDTAB
0
ENDSEC
0
SECTION
2
BLOCKS
0
BLOCK
5
20
100
AcDbEntity
100
AcDbBlockBegin
2
*MODEL_SPACE
0
ENDBLK
5
21
100
AcDbEntity
100
AcDbBlockEnd
0
BLOCK
5
1C
100
AcDbEntity
100
AcDbBlockBegin
2
*PAPER_SPACE
0
ENDBLK
5
1D
100
AcDbEntity
100
AcDbBlockEnd
0
ENDSEC
0
SECTION
2
ENTITIES
0
CIRCLE
5
100
100
AcDbEntity
8
CUTOUTS
100
AcDbCircle
10
1.3112870369588462e-16
20
2.0747440414615335e-17
30
0
40
0.036811023622047238
210
0
220
0
230
1
0
ARC
5
101
100
AcDbEntity
8
PERIMETER
100
AcDbCircle
10
-0.11556837792075782
20
0.18140606025482908
30
0
40
0.19104330708661413
210
-0
220
0
230
1
100
AcDbArc
50
-13.763338104331737
51
8.9851169762339325
0
ARC
5
102
100
AcDbEntity
8
PERIMETER
100
AcDbCircle
10
2.6225740739176924e-16
20
4.1494880829230671e-17
30
0
40
0.22354330708661424
210
0
220
-0
230
1
100
AcDbArc
50
70.904541988178991
51
79.095458011821009
0
ARC
5
103
100
AcDbEntity
8
PERIMETER
100
AcDbCircle
10
0.1907881812809506
20
0.099318067620754055
30
0
40
0.19104330708661271
210
0
220
0
230
1
100
AcDbArc
50
141.01488302376586
51
163.76333810433184
0
ARC
5
104
100
AcDbEntity
8
PERIMETER
100
AcDbCircle
10
0.0017648909681206751
20
0.15436559382017062
30
0
40
0.0058323755696358254
210
0
220
0
230
1
100
AcDbArc
50
269.3449550802045
51
343.76333810433084
0
ARC
5
105
100
AcDbEntity
8
PERIMETER
100
AcDbCircle
10
2.6225740739176924e-16
20
4.1494880829230671e-17
30
0
40
0.14854330708661428
210
0
220
-0
230
1
100
AcDbArc
50
89.344955080204556
51
90.655044919795159
0
ARC
5
106
100
AcDbEntity
8
PERIMETER
100
AcDbCircle
10
-0.0017648909681201505
20
0.15436559382017062
30
0
40
0.0058323755696358505
210
0
220
0
230
1
100
AcDbArc
50
196.23666189566853
51
270.65504491980522
0
ARC
5
107
100
AcDbEntity
8
PERIMETER
100
AcDbCircle
10
-0.19078818128095157
20
0.099318067620753264
30
0
40
0.19104330708661421
210
0
220
-0
230
1
100
AcDbArc
50
16.236661895668295
51
38.985116976234046
0
ARC
5
108
100
AcDbEntity
8
PERIMETER
100
AcDbCircle
10
2.6225740739176924e-16
20
4.1494880829230671e-17
30
0
40
0.22354330708661418
210
0
220
0
230
1
100
AcDbArc
50
100.90454198817906
51
109.0954580118202
0
ARC
5
109
100
AcDbEntity
8
PERIMETER
100
AcDbCircle
10
0.11556837792076295
20
0.18140606025482767
30
0
40
0.19104330708661629
210
0
220
0
230
1
100
AcDbArc
50
171.01488302376538
51
193.76333810433081
0
ARC
5
10A
100
AcDbEntity
8
PERIMETER
100
AcDbCircle
10
-0.075654356496781316
20
0.13456697120259908
30
0
40
0.0058323755696358679
210
-0
220
0
230
1
100
AcDbArc
50
-60.655044919796097
51
13.763338104330995
0
ARC
5
10B
100
AcDbEntity
8
PERIMETER
100
AcDbCircle
10
2.6225740739176924e-16
20
4.1494880829230671e-17
30
0
40
0.14854330708661423
210
0
220
0
230
1
100
AcDbArc
50
119.34495508020382
51
120.65504491979442
0
ARC
5
10C
100
AcDbEntity
8
PERIMETER
100
AcDbCircle
10
-0.078711237323385336
20
0.13280208023447873
30
0
40
0.0058323755696358653
210
0
220
0
230
1
100
AcDbArc
50
226.23666189566808
51
300.6550449197934
0
ARC
5
10D
100
AcDbEntity
8
PERIMETER
100
AcDbCircle
10
-0.21488644554151207
20
-0.0093821210261210517
30
0
40
0.19104330708661529
210
0
220
-0
230
1
100
AcDbArc
50
46.236661895667631
51
68.985116976233201
0
ARC
5
10E
100
AcDbEntity
8
PERIMETER
100
AcDbCircle
10
2.6225740739176924e-16
20
4.1494880829230671e-17
30
0
40
0.22354330708661418
210
0
220
0
230
1
100
AcDbArc
50
130.90454198817835
51
139.09545801182034
0
ARC
5
10F
100
AcDbEntity
8
PERIMETER
100
AcDbCircle
10
0.009382121026126667
20
0.21488644554151221
30
0
40
0.19104330708661535
210
0
220
0
230
1
100
AcDbArc
50
201.01488302376535
51
223.7633381043309
0
ARC
5
110
100
AcDbEntity
8
PERIMETER
100
AcDbCircle
10
-0.13280208023447646
20
0.078711237323388847
30
0
40
0.0058323755696358627
210
-0
220
0
230
1
100
AcDbArc
50
-30.65504491979598
51
43.763338104331247
0
ARC
5
111
100
AcDbEntity
8
PERIMETER
100
AcDbCircle
10
2.6225740739176924e-16
20
4.1494880829230671e-17
30
0
40
0.1485433070866142
210
0
220
0
230
1
100
AcDbArc
50
149.3449550802039
51
150.65504491979451
0
ARC
5
112
100
AcDbEntity
8
PERIMETER
100
AcDbCircle
10
-0.13456697120259692
20
0.075654356496784911
30
0
40
0.0058323755696358471
210
0
220
0
230
1
100
AcDbArc
50
256.23666189566757
51
330.65504491979146
0
ARC
5
113
100
AcDbEntity
8
PERIMETER
100
AcDbCircle
10
-0.18140606025483003
20
-0.11556837792075557
30
0
40
0.19104330708661363
210
0
220
-0
230
1
100
AcDbArc
50
76.236661895667609
51
98.985116976233371
0
ARC
5
114
100
AcDbEntity
8
PERIMETER
100
AcDbCircle
10
2.6225740739176924e-16
20
4.1494880829230671e-17
30
0
40
0.22354330708661418
210
0
220
0
230
1
100
AcDbArc
50
160.90454198817838
51
169.09545801182023
0
ARC
5
115
100
AcDbEntity
8
PERIMETER
100
AcDbCircle
10
-0.099318067620750752
20
0.19078818128095346
30
0
40
0.19104330708661441
210
0
220
0
230
1
100
AcDbArc
50
231.01488302376532
51
253.76333810433104
0
ARC
5
116
100
AcDbEntity
8
PERIMETER
100
AcDbCircle
10
-0.15436559382017029
20
0.0017648909681220713
30
0
40
0.0058323755696358696
210
-0
220
0
230
1
100
AcDbArc
50
-0.65504491979586077
51
73.763338104330359
0
ARC
5
117
100
AcDbEntity
8
PERIMETER
100
AcDbCircle
10
2.6225740739176924e-16
20
4.1494880829230671e-17
30
0
40
0.1485433070866142
210
0
220
0
230
1
100
AcDbArc
50
179.34495508020413
51
180.65504491979419
0
ARC
5
118
100
AcDbEntity
8
PERIMETER
100
AcDbCircle
10
-0.15436559382017034
20
-0.0017648909681187543
30
0
40
0.0058323755696358497
210
-0
220
0
230
1
100
AcDbArc
50
-73.763338104332021
51
0.65504491980365231
0
ARC
5
119
100
AcDbEntity
8
PERIMETER
100
AcDbCircle
10
-0.099318067620753944
20
-0.19078818128095254
30
0
40
0.19104330708661624
210
0
220
0
230
1
100
AcDbArc
50
106.23666189566786
51
128.98511697623334
0
ARC
5
11A
100
AcDbEntity
8
PERIMETER
100
AcDbCircle
10
2.6225740739176924e-16
20
4.1494880829230671e-17
30
0
40
0.2235433070866141
210
0
220
0
230
1
100
AcDbArc
50
190.90454198817841
51
199.09545801182034
0
ARC
5
11B
100
AcDbEntity
8
PERIMETER
100
AcDbCircle
10
-0.18140606025482758
20
0.11556837792075988
30
0
40
0.19104330708661396
210
0
220
0
230
1
100
AcDbArc
50
261.01488302376544
51
283.76333810433113
0
ARC
5
11C
100
AcDbEntity
8
PERIMETER
100
AcDbCircle
10
-0.1345669712025985
20
-0.075654356496781996
30
0
40
0.0058323755696358731
210
0
220
-0
230
1
100
AcDbArc
50
29.344955080203999
51
103.76333810433101
0
ARC
5
11D
100
AcDbEntity
8
PERIMETER
100
AcDbCircle
10
2.6225740739176924e-16
20
4.1494880829230671e-17
30
0
40
0.1485433070866142
210
0
220
0
230
1
100
AcDbArc
50
209.34495508020402
51
210.65504491979434
0
ARC
5
11E
100
AcDbEntity
8
PERIMETER
100
AcDbCircle
10
-0.13280208023447812
20
-0.078711237323385988
30
0
40
0.0058323755696358653
210
-0
220
0
230
1
100
AcDbArc
50
-43.763338104331908
51
30.655044919802084
0
ARC
5
11F
100
AcDbEntity
8
PERIMETER
100
AcDbCircle
10
0.009382121026122122
20
-0.21488644554151229
30
0
40
0.19104330708661532
210
0
220
0
230
1
100
AcDbArc
50
136.23666189566785
51
158.98511697623346
0
ARC
5
120
100
AcDbEntity
8
PERIMETER
100
AcDbCircle
10
2.6225740739176924e-16
20
4.1494880829230671e-17
30
0
40
0.22354330708661427
210
0
220
0
230
1
100
AcDbArc
50
220.90454198817852
51
229.09545801182057
0
ARC
5
121
100
AcDbEntity
8
PERIMETER
100
AcDbCircle
10
-0.21488644554151107
20
0.0093821210261243928
30
0
40
0.19104330708661432
210
-0
220
0
230
1
100
AcDbArc
50
291.01488302376549
51
313.76333810433118
0
ARC
5
122
100
AcDbEntity
8
PERIMETER
100
AcDbCircle
10
-0.078711237323388097
20
-0.13280208023447698
30
0
40
0.0058323755696358627
210
0
220
-0
230
1
100
AcDbArc
50
59.344955080203917
51
133.76333810433167
0
ARC
5
123
100
AcDbEntity
8
PERIMETER
100
AcDbCircle
10
2.6225740739176924e-16
20
4.1494880829230671e-17
30
0
40
0.14854330708661423
210
0
220
0
230
1
100
AcDbArc
50
239.34495508020407
51
240.65504491979468
0
ARC
5
124
100
AcDbEntity
8
PERIMETER
100
AcDbCircle
10
-0.075654356496784134
20
-0.13456697120259742
30
0
40
0.0058323755696358523
210
-0
220
0
230
1
100
AcDbArc
50
-13.763338104332197
51
60.655044919796239
0
ARC
5
125
100
AcDbEntity
8
PERIMETER
100
AcDbCircle
10
0.11556837792075782
20
-0.1814060602548298
30
0
40
0.19104330708661485
210
0
220
0
230
1
100
AcDbArc
50
166.23666189566791
51
188.98511697623354
0
ARC
5
126
100
AcDbEntity
8
PERIMETER
100
AcDbCircle
10
2.6225740739176924e-16
20
4.1494880829230671e-17
30
0
40
0.22354330708661416
210
0
220
0
230
1
100
AcDbArc
50
250.90454198817855
51
259.09545801182094
0
ARC
5
127
100
AcDbEntity
8
PERIMETER
100
AcDbCircle
10
-0.19078818128095157
20
-0.099318067620753264
30
0
40
0.19104330708661402
210
-0
220
0
230
1
100
AcDbArc
50
321.01488302376595
51
343.76333810433175
0
ARC
5
128
100
AcDbEntity
8
PERIMETER
100
AcDbCircle
10
-0.0017648909681201505
20
-0.15436559382017054
30
0
40
0.0058323755696358254
210
0
220
-0
230
1
100
AcDbArc
50
89.3449550802045
51
163.76333810433144
0
ARC
5
129
100
AcDbEntity
8
PERIMETER
100
AcDbCircle
10
2.6225740739176924e-16
20
4.1494880829230671e-17
30
0
40
0.14854330708661428
210
0
220
0
230
1
100
AcDbArc
50
269.34495508020456
51
270.65504491979516
0
ARC
5
12A
100
AcDbEntity
8
PERIMETER
100
AcDbCircle
10
0.0017648909681206751
20
-0.15436559382017054
30
0
40
0.0058323755696358349
210
0
220
-0
230
1
100
AcDbArc
50
16.236661895668295
51
90.655044919805277
0
ARC
5
12B
100
AcDbEntity
8
PERIMETER
100
AcDbCircle
10
0.19078818128095265
20
-0.099318067620752959
30
0
40
0.19104330708661482
210
0
220
0
230
1
100
AcDbArc
50
196.23666189566833
51
218.985116976234
0
ARC
5
12C
100
AcDbEntity
8
PERIMETER
100
AcDbCircle
10
2.6225740739176924e-16
20
4.1494880829230671e-17
30
0
40
0.22354330708661418
210
-0
220
0
230
1
100
AcDbArc
50
280.90454198817906
51
289.09545801182048
0
ARC
5
12D
100
AcDbEntity
8
PERIMETER
100
AcDbCircle
10
-0.11556837792076044
20
-0.18140606025482822
30
0
40
0.19104330708661516
210
-0
220
0
230
1
100
AcDbArc
50
-8.9851169762343925
51
13.763338104331238
0
ARC
5
12E
100
AcDbEntity
8
PERIMETER
100
AcDbCircle
10
0.07565435649678276
20
-0.13456697120259847
30
0
40
0.0058323755696358844
210
0
220
0
230
1
100
AcDbArc
50
119.34495508020413
51
193.76333810433121
0
ARC
5
12F
100
AcDbEntity
8
PERIMETER
100
AcDbCircle
10
2.6225740739176924e-16
20
4.1494880829230671e-17
30
0
40
0.14854330708661423
210
-0
220
0
230
1
100
AcDbArc
50
299.34495508020422
51
300.65504491979482
0
ARC
5
130
100
AcDbEntity
8
PERIMETER
100
AcDbCircle
10
0.078711237323386751
20
-0.13280208023447809
30
0
40
0.0058323755696358184
210
0
220
-0
230
1
100
AcDbArc
50
46.236661895668085
51
120.65504491980423
0
ARC
5
131
100
AcDbEntity
8
PERIMETER
100
AcDbCircle
10
0.21488644554151132
20
0.0093821210261208956
30
0
40
0.19104330708661332
210
0
220
0
230
1
100
AcDbArc
50
226.23666189566794
51
248.98511697623377
0
ARC
5
132
100
AcDbEntity
8
PERIMETER
100
AcDbCircle
10
2.6225740739176924e-16
20
4.1494880829230671e-17
30
0
40
0.22354330708661416
210
-0
220
0
230
1
100
AcDbArc
50
310.90454198817872
51
319.0954580118206
0
ARC
5
133
100
AcDbEntity
8
PERIMETER
100
AcDbCircle
10
-0.0093821210261238047
20
-0.21488644554151168
30
0
40
0.19104330708661424
210
0
220
-0
230
1
100
AcDbArc
50
21.014883023765702
51
43.763338104331382
0
ARC
5
134
100
AcDbEntity
8
PERIMETER
100
AcDbCircle
10
0.13280208023447757
20
-0.078711237323387861
30
0
40
0.005832375569635828
210
0
220
0
230
1
100
AcDbArc
50
149.34495508020402
51
223.76333810433084
0
ARC
5
135
100
AcDbEntity
8
PERIMETER
100
AcDbCircle
10
2.6225740739176924e-16
20
4.1494880829230671e-17
30
0
40
0.14854330708661431
210
-0
220
0
230
1
100
AcDbArc
50
329.34495508020427
51
330.65504491979488
0
ARC
5
136
100
AcDbEntity
8
PERIMETER
100
AcDbCircle
10
0.134566971202598
20
-0.075654356496783898
30
0
40
0.0058323755696358627
210
0
220
-0
230
1
100
AcDbArc
50
76.236661895667851
51
150.65504491979308
0
ARC
5
137
100
AcDbEntity
8
PERIMETER
100
AcDbCircle
10
0.18140606025482983
20
0.11556837792075871
30
0
40
0.19104330708661538
210
0
220
0
230
1
100
AcDbArc
50
256.23666189566814
51
278.9851169762336
0
ARC
5
138
100
AcDbEntity
8
PERIMETER
100
AcDbCircle
10
2.6225740739176924e-16
20
4.1494880829230671e-17
30
0
40
0.22354330708661416
210
-0
220
0
230
1
100
AcDbArc
50
340.90454198817878
51
349.09545801182094
0
ARC
5
139
100
AcDbEntity
8
PERIMETER
100
AcDbCircle
10
0.099318067620752765
20
-0.19078818128095237
30
0
40
0.19104330708661474
210
0
220
-0
230
1
100
AcDbArc
50
51.014883023765833
51
73.763338104331467
0
ARC
5
13A
100
AcDbEntity
8
PERIMETER
100
AcDbCircle
10
0.15436559382017084
20
-0.0017648909681209099
30
0
40
0.0058323755696358254
210
0
220
0
230
1
100
AcDbArc
50
179.3449550802047
51
253.76333810433104
0
ARC
5
13B
100
AcDbEntity
8
PERIMETER
100
AcDbCircle
10
2.6225740739176924e-16
20
4.1494880829230671e-17
30
0
40
0.14854330708661428
210
-0
220
0
230
1
100
AcDbArc
50
-0.65504491979530099
51
0.65504491979474988
0
ARC
5
13C
100
AcDbEntity
8
PERIMETER
100
AcDbCircle
10
0.15436559382017084
20
0.0017648909681199155
30
0
40
0.0058323755696357941
210
0
220
0
230
1
100
AcDbArc
50
106.23666189566845
51
180.65504491979752
0
ARC
5
13D
100
AcDbEntity
8
PERIMETER
100
AcDbCircle
10
0.099318067620754028
20
0.19078818128095168
30
0
40
0.19104330708661452
210
-0
220
0
230
1
100
AcDbArc
50
286.23666189566814
51
308.98511697623394
0
ARC
5
13E
100
AcDbEntity
8
PERIMETER
100
AcDbCircle
10
2.6225740739176924e-16
20
4.1494880829230671e-17
30
0
40
0.22354330708661432
210
0
220
-0
230
1
100
AcDbArc
50
10.904541988178867
51
19.095458011820718
0
ARC
5
13F
100
AcDbEntity
8
PERIMETER
100
AcDbCircle
10
0.18140606025482903
20
-0.11556837792076055
30
0
40
0.19104330708661604
210
0
220
-0
230
1
100
AcDbArc
50
81.014883023765876
51
103.7633381043314
0
ARC
5
140
100
AcDbEntity
8
PERIMETER
100
AcDbCircle
10
0.1345669712025985
20
0.075654356496783023
30
0
40
0.0058323755696358757
210
0
220
0
230
1
100
AcDbArc
50
209.34495508020444
51
283.7633381043313
0
ARC
5
141
100
AcDbEntity
8
PERIMETER
100
AcDbCircle
10
2.6225740739176924e-16
20
4.1494880829230671e-17
30
0
40
0.1485433070866142
210
0
220
-0
230
1
100
AcDbArc
50
29.344955080204414
51
30.655044919795039
0
ARC
5
142
100
AcDbEntity
8
PERIMETER
100
AcDbCircle
10
0.13280208023447812
20
0.078711237323387001
30
0
40
0.0058323755696358262
210
0
220
0
230
1
100
AcDbArc
50
136.23666189566828
51
210.65504491979232
0
ARC
5
143
100
AcDbEntity
8
PERIMETER
100
AcDbCircle
10
-0.0093821210261219035
20
0.21488644554151151
30
0
40
0.19104330708661404
210
-0
220
0
230
1
100
AcDbArc
50
316.23666189566819
51
338.98511697623394
0
ARC
5
144
100
AcDbEntity
8
PERIMETER
100
AcDbCircle
10
2.6225740739176924e-16
20
4.1494880829230671e-17
30
0
40
0.22354330708661424
210
0
220
-0
230
1
100
AcDbArc
50
40.904541988178913
51
49.095458011820782
0
ARC
5
145
100
AcDbEntity
8
PERIMETER
100
AcDbCircle
10
0.21488644554151154
20
-0.0093821210261226477
30
0
40
0.19104330708661343
210
0
220
0
230
1
100
AcDbArc
50
111.01488302376578
51
133.76333810433161
0
ARC
5
146
100
AcDbEntity
8
PERIMETER
100
AcDbCircle
10
0.078711237323387709
20
0.13280208023447759
30
0
40
0.0058323755696358705
210
0
220
0
230
1
100
AcDbArc
50
239.34495508020419
51
313.76333810433164
0
ARC
5
147
100
AcDbEntity
8
PERIMETER
100
AcDbCircle
10
2.6225740739176924e-16
20
4.1494880829230671e-17
30
0
40
0.1485433070866142
210
0
220
-0
230
1
100
AcDbArc
50
59.344955080204493
51
60.655044919795671
0
ARC
5
148
100
AcDbEntity
8
PERIMETER
100
AcDbCircle
10
0.075654356496783717
20
0.13456697120259803
30
0
40
0.0058323755696358583
210
0
220
0
230
1
100
AcDbArc
50
166.23666189566842
51
240.65504491979618
0
ENDSEC
0
SECTION
2
OBJECTS
0
DICTIONARY
5
C
100
AcDbDictionary
3
ACAD_GROUP
350
D
3
ACAD_MLINESTYLE
350
17
0
DICTIONARY
5
D
100
AcDbDictionary
0
DICTIONARY
5
1A
330
C
100
AcDbDictionary
0
DICTIONARY
5
17
100
AcDbDictionary
0
ENDSEC
0
EOF
